<svg version="1.1" viewBox="0 0 500 500" xmlns="http://www.w3.org/2000/svg">
  <defs>
    <style>
      /* Light Scheme */
      :root {
        --base-100: #FFFFFF;
        --ground-500: #f5f5f5;
        --ground-600: #e0e0e0;
        --ground-700: #dbdbdb;
        --ground-800: #cccccc;
        --primary-400: #ff5f6c;
        --primary-500: #d70718;
        --primary-600: #1b2328;
      }

      /* Dark Scheme */
      @media (prefers-color-scheme: dark) {
        :root {
          --base-100: #1f2937;
          --ground-500: #c5c5c5;
          --ground-600: #a7a7a7;
          --ground-700: #acacac;
          --ground-800: #e0e0e0;
        }
      }
    </style>
  </defs>

  <g>
    <rect x="97.32" y="381.77" width="71.95" height="79.67" fill="var(--ground-600)" />
    <rect transform="scale(-1)" x="-97.33" y="-461.45" width="37.15" height="79.68" fill="var(--ground-800)" />
    <path d="m62.73 456q4.14-8.5 8.18-17l8.09-17.23 8-17.21q4-8.62 7.84-17.3-4.14 8.5-8.18 17.05l-8.06 17.14-8 17.21q-3.99 8.63-7.87 17.34z" fill="var(--ground-600)" />
    <rect transform="scale(-1)" x="-110.05" y="-331.02" width="7.99" height="7.99" fill="var(--base-100)" />
    <rect x="92.53" y="335.63" width="71.95" height="46.14" fill="var(--ground-600)" />
    <rect transform="scale(-1)" x="-92.53" y="-381.77" width="37.15" height="46.14" fill="#c7c7c7" />
    <path d="m57.94 379q4.13-5 8.18-10.09l8.06-10.14 8-10.19q3.94-5.1 7.83-10.24-4.12 5-8.18 10.09l-8.06 10.15-8 10.18q-3.95 5.13-7.83 10.24z" fill="var(--ground-700)" />
    <path d="m57.94 338.37q3.89 5.14 7.84 10.24l8 10.19 8.06 10.14q4 5.06 8.16 10.06-3.87-5.14-7.83-10.24l-8-10.18-8.06-10.15q-4.04-5.02-8.17-10.06z" fill="var(--ground-700)" />
  </g>
  <g>
    <rect x="239.03" y="379.05" width="99.68" height="82.36" fill="var(--primary-400)" />
    <rect x="239.03" y="379.05" width="99.68" height="82.36" opacity=".1" />
    <rect x="338.71" y="379.06" width="39.5" height="82.36" fill="var(--primary-400)" />
    <rect x="338.71" y="379.06" width="39.5" height="82.36" opacity=".2" />
    <path d="m375.48 455.74q-4.38-8.78-8.69-17.62l-8.57-17.72-8.46-17.79q-4.2-8.91-8.33-17.88 4.4 8.79 8.7 17.62l8.56 17.72 8.46 17.79q4.22 8.91 8.33 17.88z" fill="var(--primary-400)" />
    <path d="m375.48 384.73q-4.12 9-8.33 17.88l-8.46 17.79-8.56 17.72q-4.31 8.83-8.7 17.62 4.13-9 8.33-17.88l8.46-17.79 8.57-17.71q4.31-8.85 8.69-17.63z" fill="var(--primary-400)" />
    <rect x="270.35" y="296.7" width="74.37" height="82.35" fill="var(--primary-400)" />
    <rect x="344.72" y="296.7" width="38.4" height="82.36" fill="var(--primary-400)" />
    <rect x="344.72" y="296.7" width="38.4" height="82.36" opacity=".1" />
    <g opacity=".1">
      <path d="m339.27 373.38q-8.19-8.79-16.24-17.62l-16.03-17.76-15.79-17.79q-7.86-8.91-15.56-17.88 8.2 8.79 16.24 17.63l16 17.71 15.79 17.79q7.89 8.95 15.59 17.92z" />
      <path d="m339.27 302.37q-7.71 9-15.56 17.88l-15.79 17.75-16 17.72q-8 8.83-16.24 17.62 7.71-9 15.56-17.88l15.76-17.75 16-17.71q8.07-8.85 16.27-17.63z" />
    </g>
  </g>
  <g>
    <polygon points="145.73 461.12 250 460.95 354.27 461.12 406.41 461.2 458.55 461.45 406.41 461.69 354.27 461.78 250 461.95 145.73 461.78 93.59 461.69 41.45 461.45 93.59 461.2" fill="#263238" />
  </g>
  <g>
    <path d="m289.72 177.8q-0.84-0.54-1.68-1.05l0.39-0.65 1.7 1.07z" fill="#263238" />
    <path d="m265.3 278h-0.72v-0.75a33.51 33.51 0 0 0 4-0.15l0.08 0.75c-1.09 0.08-2.23 0.15-3.36 0.15zm7.42-0.82-0.16-0.73a26.84 26.84 0 0 0 3.82-1.17l0.27 0.7a27.59 27.59 0 0 1-3.93 1.18zm7.63-3-0.37-0.65a24.82 24.82 0 0 0 3.27-2.28l0.48 0.57a24.65 24.65 0 0 1-3.38 2.37zm6.33-5.2-0.55-0.51a27.9 27.9 0 0 0 2.47-3.14l0.62 0.42a28.34 28.34 0 0 1-2.54 3.25zm4.58-6.79-0.68-0.32a23.16 23.16 0 0 0 1.39-3.74l0.72 0.2a23.68 23.68 0 0 1-1.43 3.87zm2.16-7.92-0.75-0.06c0-0.54 0.07-1.09 0.07-1.62a20.36 20.36 0 0 0-0.13-2.22 20.42 20.42 0 0 1-2.32-0.29l0.13-0.74a21.4 21.4 0 0 0 3.7 0.34h0.26v0.75h-1.02a19.77 19.77 0 0 1 0.12 2.18c0.01 0.54-0.02 1.11-0.06 1.67zm5.07-4.34-0.17-0.73a16.66 16.66 0 0 0 3.71-1.36l0.34 0.67a17.49 17.49 0 0 1-3.88 1.43zm-12.18-0.93a25.91 25.91 0 0 1-3.75-1.7l0.37-0.65a24.82 24.82 0 0 0 3.63 1.64zm5.38-2.64a17.8 17.8 0 0 0-1.72-3.57l0.63-0.4a18 18 0 0 1 1.8 3.72zm14.12-0.16-0.48-0.57a20.27 20.27 0 0 0 2.77-2.85l0.58 0.47a20.6 20.6 0 0 1-2.87 2.98zm-26.64-1.2-0.21-0.2a9.06 9.06 0 0 1-2.31-3.15l0.7-0.28a8.25 8.25 0 0 0 2.12 2.88l0.2 0.18zm31.83-5.11-0.64-0.39c0.7-1.16 1.35-2.35 1.92-3.52l0.68 0.33c-0.58 1.19-1.24 2.4-1.96 3.58zm-23.52-0.15a17.83 17.83 0 0 0-3-2.34l-0.15-0.1 0.39-0.64 0.16 0.1a18.4 18.4 0 0 1 3.09 2.45zm-9.93-1.93-0.62-0.42a4.57 4.57 0 0 1 3.78-1.92v0.75a3.89 3.89 0 0 0-3.16 1.59zm37-5.27-0.7-0.26a38.42 38.42 0 0 0 1.19-3.83l0.72 0.18a34.56 34.56 0 0 1-1.2 3.91zm2-7.93-0.75-0.1a35.54 35.54 0 0 0 0.31-4h0.75a37 37 0 0 1-0.31 4.1zm-0.58-8.1a38.72 38.72 0 0 0-0.57-4l0.74-0.15a40.7 40.7 0 0 1 0.58 4.05zm-1.55-7.86c-0.38-1.26-0.83-2.53-1.35-3.79l0.7-0.28c0.52 1.27 1 2.57 1.37 3.85zm-3-7.45c-0.6-1.17-1.27-2.35-2-3.51l0.64-0.39c0.72 1.17 1.4 2.37 2 3.56zm-4.21-6.86c-0.77-1.08-1.6-2.15-2.46-3.19l0.58-0.48c0.87 1.05 1.71 2.14 2.49 3.23zm-5.12-6.22c-0.91-1-1.87-1.93-2.85-2.85l0.51-0.55c1 0.94 2 1.91 2.88 2.89zm-5.87-5.53c-1-0.85-2.09-1.69-3.16-2.49l0.44-0.6c1.09 0.8 2.17 1.65 3.2 2.52z" fill="#263238" />
    <path d="m260.39 277.64a18.66 18.66 0 0 1-2-0.36l0.18-0.73s0.72 0.18 1.92 0.35z" fill="#263238" />
    <path d="m250.3 276.15c-0.47 4 7.7 6.24 8.32 1s-7.85-5.03-8.32-1z" fill="#263238" />
    <path d="m261 282.77c-0.76 1.51-3.45 1.72-6.23-0.22a18.65 18.65 0 0 1-4.7-5.27 18.53 18.53 0 0 1 7 0.61c3.29 1.11 4.73 3.35 3.93 4.88z" fill="var(--ground-600)" />
    <path d="m262.32 272.3c-0.39-1.65-2.95-2.47-6.1-1.23a18.66 18.66 0 0 0-5.8 4.05 18.58 18.58 0 0 0 7 1c3.37-0.28 5.3-2.12 4.9-3.82z" fill="var(--ground-600)" />
    <path d="m250.3 276.15a1.46 1.46 0 1 1-1.62 1.29 1.47 1.47 0 0 1 1.62-1.29z" fill="#455a64" />
    <path d="m250.64 273.24a1.4649 1.4649 0 1 1-0.34 2.91 1.4649 1.4649 0 0 1 0.34-2.91z" fill="#455a64" />
  </g>
  <g>
    <path d="m160 370.31s-21.32 42.69-21.33 42.69c-1.76 8.81-3.14 16.58-3.49 20.66a0.16 0.16 0 0 0 0 0.07 6.22 6.22 0 0 0 0.11 2.85 0.16 0.16 0 0 0 0 0.07c2.27 2.3 72.33 18.43 75 18.17s2.1-7.79-0.12-10.58-26.29-21-26.29-21l20.84-42.76z" fill="#ffc4c0" />
    <path d="m209.23 454.86c-2.63 0.26-71.64-15.88-73.9-18.17a0.25 0.25 0 0 1 0-0.07 6.18 6.18 0 0 1-0.12-2.85 0.1 0.1 0 0 1 0-0.07c0.34-4.08 1.73-11.85 3.48-20.67l5.1-10.22 44.21 12.12-4.08 8.38s23 18.17 25.23 21 2.72 10.3 0.08 10.55z" fill="var(--ground-600)" />
    <path d="m210.19 453.74c-2.67 0.2-72.9-17.7-75.14-20.08-0.86-0.89 1.15-11.28 3.94-23.76l0.09-0.39 45.44 11.05-0.21 0.76s23.81 18.88 26 21.76 2.54 10.47-0.12 10.66z" fill="#263238" />
    <path d="m210.08 450.81c-11.76-3.3-59.52-15.54-71.4-17.92-0.1 0-0.12 0.05 0 0.08 11.59 3.53 59.45 15.38 71.38 18 0.23 0.09 0.27-0.09 0.02-0.16z" fill="var(--base-100)" />
    <path d="m211.9 451.5c1.13 0.8-0.22 4.95-1.21 5.06s-77.48-19.75-78.69-20.38 0.45-5.17 2-5 77.9 20.32 77.9 20.32z" fill="var(--primary-500)" />
    <path d="m148.67 420.33c-4.44-3.84-10.42 3.06-6 6.91s10.45-3.06 6-6.91z" fill="var(--base-100)" />
    <path d="m143.92 399.4 51.24 12.92s47.76-86.19 46.69-108.1c-1.47-30.22-36.95-123.14-36.95-123.14h-42.48s28.19 100.45 28.58 117.35c0.17 8.84-47.08 100.97-47.08 100.97z" fill="#455a64" />
    <path d="m197.35 401.92c-2.73-1.09-27.12-8.13-45.32-12a0.1 0.1 0 0 0 0 0.19c5.73 2 41.89 11.53 45.28 12 0.08 0.03 0.16-0.11 0.04-0.19z" fill="#263238" />
    <path d="m196.84 387.19s1.64 47 1.64 47c0.27 9 0.66 16.87 1.25 20.92a0.17 0.17 0 0 0 0 0.07 6.3 6.3 0 0 0 0.74 2.75l0.06 0.06c2.73 1.73 74.62 1.69 77.13 0.84s0.29-8.05-2.5-10.28-30.33-14.52-30.33-14.52l-2.09-46.95z" fill="#ffc4c0" />
    <path d="m198.14 424.57s0.34 9.62 0.34 9.65c0.27 9 0.66 16.87 1.25 20.92a0.17 0.17 0 0 0 0 0.07 12 12 0 0 0 0.74 2.75l0.06 0.06c2.73 1.73 74.62 1.69 77.13 0.84s0.29-8.05-2.5-10.28-30.33-14.52-30.33-14.52l-0.21-9.79z" fill="var(--ground-600)" />
    <path d="m277.7 458.78c-2.54 0.81-75-0.31-77.74-2.11-1-0.67-1.5-11.23-1.68-24v-0.4l46.76 0.2v0.8s27.55 12.83 30.34 15.12 4.87 9.61 2.32 10.39z" fill="#263238" />
    <path d="m276.93 456c-12.21-0.49-61.51-1.31-73.62-0.86-0.1 0-0.1 0.07 0 0.07 12.09 0.75 61.4 1.18 73.62 1 0.25-0.06 0.26-0.21 0-0.21z" fill="var(--base-100)" />
    <path d="m278.85 456.2c1.29 0.52 0.94 4.87 0 5.2s-80-1.24-81.29-1.56-0.77-5.13 0.8-5.36 80.49 1.72 80.49 1.72z" fill="var(--primary-500)" />
    <path d="m210.12 440.55c-5.21-2.71-9.43 5.39-4.21 8.1s9.43-5.39 4.21-8.1z" fill="var(--base-100)" />
    <path d="m179.74 420.54c-2.247 3e-3 -4.4558 0.45687-6.3808 1.5156-0.17 0.09 1e-3 0.32836 0.12109 0.31836a67.66 67.66 0 0 1 14.43 0.64063 0.31 0.31 0 0 0 0.16992-0.58008c-2.4975-1.1588-5.4508-1.8986-8.3398-1.8945zm2.8477 2.8867c-2.2476 3e-3 -4.4593 0.45343-6.3887 1.5078-0.17 0.09 8.6e-4 0.33008 0.13086 0.33008a67 67 0 0 1 14.43 0.64062 0.31 0.31 0 0 0 0.16015-0.58984c-2.4919-1.1531-5.4423-1.892-8.332-1.8887zm2.8418 2.8808c-2.247 2e-3 -4.4539 0.45344-6.3789 1.5078-0.17 0.1-1e-3 0.34007 0.12891 0.33007a67.6 67.6 0 0 1 14.42 0.63868 0.31 0.31 0 0 0 0.16992-0.58008c-2.4975-1.1588-5.4508-1.8988-8.3398-1.8965zm59.279 6.7227c-3.7045 0.0127-7.5059 1.0304-10.18 3.4238-0.15 0.13 1e-3 0.33101 0.20117 0.29101a68.23 68.23 0 0 1 14.18-2.7305 0.3 0.3 0 0 0 0.0293-0.56055c-1.3472-0.28125-2.7809-0.4288-4.2305-0.42383zm3.4356 2.1426c-3.7053 0.0179-7.5001 1.0505-10.174 3.4726-0.15 0.13-5.4e-4 0.3293 0.18946 0.2793a67.65 67.65 0 0 1 14.189-2.7207 0.31 0.31 0 0 0 0.0312-0.60938c-1.35-0.28125-2.7864-0.42887-4.2363-0.42187zm3.4356 2.1465c-3.7022 0.0127-7.4988 1.0324-10.18 3.4258-0.14 0.13-7.8e-4 0.32907 0.19922 0.28907a68.35 68.35 0 0 1 14.18-2.7285 0.3 0.3 0 0 0 0.0312-0.56055c-1.3472-0.28125-2.7818-0.43075-4.2305-0.42578z" fill="var(--base-100)" />
    <path d="m204.37 181c-0.19 0.87-10.78 42.74-12.1 43.52-1.5 0.89 38.48 54.68 43.22 81.09 3 16.89 10 115.34 10 115.34h-50.98s-5-83.61-6.66-111.16c-0.65-10.69-40.75-60.11-44.56-93.06-1.2-10.38 6.26-35.77 6.26-35.77z" fill="#455a64" />
    <path d="m193.22 381.17c-0.6-13.85-1.15-27.73-2.16-41.56-0.57-7.84-1.69-15.43-2.47-23.24 0-0.41-0.37-0.51-0.36-0.09 0.36 13.91 1.51 27.67 2.25 41.57s1.45 17.14 2.24 31c0.44 7.84 0.83 15.68 1.44 23.51a0.1 0.1 0 0 0 0.19 0c0.03-13.92-0.52-17.29-1.13-31.19z" fill="#263238" />
    <path d="m235.54 306.27a74 74 0 0 0-2.12-10.83 55.4 55.4 0 0 0-4.13-9.95c-3.47-6.66-7.42-13.1-11.23-19.57s-7.78-13.08-11.8-19.54q-3.39-5.44-6.81-10.87c-2.32-3.65-4.77-7.23-7.16-10.83a0.13463 0.13463 0 0 0-0.23 0.14c3.9 6.54 7.76 13.09 11.66 19.63s7.74 13.1 11.58 19.66 7.57 12.92 11.19 19.48a68.44 68.44 0 0 1 4.59 9.72 59.67 59.67 0 0 1 2.57 10.69c1.36 8.47 2.47 17 4.17 25.39a0.1 0.1 0 0 0 0.19 0c-0.53-7.72-1.45-15.45-2.47-23.12z" fill="#263238" />
    <path d="m241 412.21c-2.91-0.38-25.12-1.15-43.7-0.35-0.12 0-0.11 0.18 0 0.19 6.05 0.53 40.26 0.77 43.67 0.37 0.09-0.01 0.13-0.19 0.03-0.21z" fill="#263238" />
    <path d="m198.92 221.66a95 95 0 0 0-15 7 0.17007 0.17007 0 0 0 0.14 0.31c5.06-2.18 10.23-4.26 15.17-6.71a0.33768 0.33768 0 0 0-0.31-0.6z" fill="#263238" />
    <path d="m200.45 187c0-0.17-0.32-0.21-0.32 0a168.24 168.24 0 0 1-0.85 16.92c-0.24 2.61-2.34 17-6.86 16-0.76-0.18-1.14-0.92-1.26-2.07a17.68 17.68 0 0 1 0.6-4.42c0.5-3 0.9-6 1.16-9.09a82.44 82.44 0 0 0-0.18-17.06 0.15 0.15 0 0 0-0.29 0 156.94 156.94 0 0 1-1.38 23.54c-0.57 3.75-2.46 9.4 1.47 10s6.58-8.87 7.06-11.46a86.44 86.44 0 0 0 0.85-22.36z" fill="#263238" />
    <path d="m192.54 220.23a23.39 23.39 0 0 0-1 3 6.87 6.87 0 0 0-0.42 2.45 0.17 0.17 0 0 0 0.31 0.07 8.4 8.4 0 0 0 1.05-2.39c0.35-0.93 0.71-1.84 1-2.78a0.50152 0.50152 0 0 0-0.94-0.35z" fill="#263238" />
    <path d="m192.39 123.57c5.72 17.56 21.17 47.47 26.69 51.08 4.89 3.19 27.9-0.37 38-2.8 3.76-0.91-4.7-29.57-8.71-28.52-4.81 1.26-19.14 4.49-20.18 3.69s-15.49-18.6-25.73-29.08c-9.32-9.49-12.23-1.01-10.07 5.63z" fill="#ffc4c0" />
    <path d="m254.87 172.07c1.93-0.24 18.26-1 25.75-5.07 4-2.17 14.21-9.35 13.19-11.93-0.93-2.35-4.21-1.07-4.21-1.07s4.51-3.27 3.19-6.53-6.77-0.81-6.77-0.81 4.39-3.7 2.84-6.85-6.61 0.22-6.61 0.22 4.17-3.19 1.8-5.25c-2.86-2.48-9.89 4.28-14.64 5.86-1.08 0.36-22.36 5.74-22.36 5.74z" fill="#ffc4c0" />
    <path d="m282.07 139.94c-5.18 4.95-8.31 6.22-15.23 7.62-0.13 0-0.12 0.24 0 0.22 6.9-0.75 11.05-1.78 15.46-7.6 0.24-0.29 0.01-0.48-0.23-0.24z" fill="#263238" />
    <path d="m285.85 146.54c-5.83 4.68-9.21 6.08-16.35 8.08-0.1 0-0.06 0.21 0.05 0.19 7.16-1.38 11.28-2.5 16.49-7.94 0.24-0.24 0.08-0.54-0.19-0.33z" fill="#263238" />
    <path d="m289.25 154.08c-6 4.12-9.61 5.83-16.79 6.88a0.13 0.13 0 0 0 0 0.26c7.43-0.36 12-2.45 16.87-6.94 0.36-0.28 0.29-0.45-0.08-0.2z" fill="#263238" />
    <path d="m241.47 147.3s5.95-6.73 9.21-9.11 18.7-6.78 19.84-3.5c1.47 4.24-6.94 8.53-11.33 10.09 0 0 3.41 9.8-2 14.18s-15.72-11.66-15.72-11.66z" fill="#ffc4c0" />
    <path d="m270.55 136c-1.45 4.83-7.35 6.51-11.5 8.34a0.43 0.43 0 0 0-0.16 0.67c1.16 4.2 1.56 10.46-1.38 14-0.08 0.1 0.05 0.24 0.15 0.15 3.67-3.36 3.77-9.55 2.21-14.07 4.29-1.81 10.13-3.76 10.72-9.07 0.01-0.02-0.03-0.02-0.04-0.02z" fill="#263238" />
    <path d="m254.86 177-7.54-34.34-18.66 3.39c-7.36-8.43-22.07-25.28-28-30.34-7-5.94-11.58-1.48-9 7.52 5.83 20.57 22.88 50.77 27.34 53.62 6.47 4.15 35.86 0.15 35.86 0.15z" fill="var(--primary-500)" />
    <path d="m196.54 135.8c-0.24598-0.46821-0.5865-0.88024-1-1.21 0.56 1.4333 1.15 2.87 1.77 4.31 0.0333-1.0845-0.23318-2.1571-0.77-3.1zm5.57-3c-0.1958-2.4702-1.1611-4.8169-2.76-6.71-1.2-1.55-3.28-4-5.48-3.47-0.48015 0.15-0.80523 0.59699-0.8 1.1-0.14 1.69 1.8 3.5 2.64 4.85 1 1.7 1.79 3.58 2.87 5.27 1.0425 1.6045 3.5339 0.86344 3.53-1.05zm-0.12 5.14c-0.78957-0.73056-2.0731-0.35208-2.34 0.69-1.2073 8.8079 6.6336 3.8038 2.34-0.69z" fill="#030402" opacity=".1" />
    <path d="m248.33 174c-0.86-2-3-10.88-3.47-13.09s-2.21-11.15-2.72-13.42c0-0.13 0.14-0.2 0.17-0.08 0.54 2.24 2.95 11.06 3.48 13.26s2.52 11.07 2.66 13.3a0.061847 0.061847 0 0 1-0.12 0.03z" fill="#263238" />
    <path d="m231 178.72c-5.25 0-9.86-0.5-12-1.87-4.49-2.9-21.54-33-27.41-53.61-1.48-5.16-0.59-8.84 1.75-9.91z" opacity=".1" />
    <path d="m146.38 185.71c0.13 0.19 62.53 8.19 63.2 7.61a45.24 45.24 0 0 0 0.75-5.26s-5.72-67.94-8.68-71.93c-2.59-3.48-10.45-6-15.8-3.73-11.23 4.76-38.12 65.46-37.83 68-0.02-0.03-1.8 5.07-1.64 5.31z" fill="var(--primary-500)" />
    <path d="m198 126.78c-3.81-0.35-8.69-8.49-9.62-13.66-0.06-0.36 1.46-3.37 3.13-7.11 1-2.27 2.08-4.83 2.88-7.23l13.84 8.71a40.42 40.42 0 0 0-4.55 8.74 5.66 5.66 0 0 0-0.22 1 1.36 1.36 0 0 1 0 0.17c-0.35 2-1.77 9.72-5.46 9.38z" fill="#ffc4c0" />
    <path d="m203.46 117.25a1.55 1.55 0 0 1 0 0.17 11 11 0 0 1-1.57-0.43c-8.66-3.12-7.13-14.48-6.52-17.62l3.45 2.18 9.45 6a40.11 40.11 0 0 0-4.54 8.74 5.47 5.47 0 0 0-0.27 0.96z" fill="#263238" />
    <path d="m195.84 82.75c-2.86 5.15-3.36 21.69-0.19 26.08 4.58 6.36 13.78 8.84 19.61 3 5.65-5.72 5.91-27.29 2.23-31.45-5.44-6.18-17.43-5.24-21.65 2.37z" fill="#ffc4c0" />
    <path d="m209.12 96.12s-0.09 0-0.09 0.1c0 1.14-0.2 2.44-1.24 2.78v0.07c1.27-0.14 1.51-1.87 1.33-2.95z" fill="#263238" />
    <path d="m208.15 94.9c-1.83-0.2-2.1 3.46-0.41 3.65s1.94-3.48 0.41-3.65z" fill="#263238" />
    <path d="m215.68 96.51s0.08 0.06 0.08 0.11c-0.13 1.13-0.08 2.45 0.91 2.9v0.07c-1.25-0.28-1.29-2.03-0.99-3.08z" fill="#263238" />
    <path d="m216.79 95.41c1.83 0 1.68 3.67 0 3.67s-1.54-3.68 0-3.67z" fill="#263238" />
    <path d="m209.63 94.16c-0.51 0.11-1 0.12-1.5 0.18a2.44 2.44 0 0 1-1.56-0.11 0.78 0.78 0 0 1-0.31-0.9 1.93 1.93 0 0 1 1.66-1 2.76 2.76 0 0 1 2 0.38 0.82 0.82 0 0 1-0.29 1.45z" fill="#263238" />
    <path d="m218.43 92a13.37 13.37 0 0 1-1.43-0.49 2.42 2.42 0 0 1-1.36-0.77 0.77 0.77 0 0 1 0.11-0.94 1.9 1.9 0 0 1 1.94-0.22 2.85 2.85 0 0 1 1.64 1.2 0.83 0.83 0 0 1-0.9 1.22z" fill="#263238" />
    <path d="m205.33 107.52c0.25 0.28 0.5 0.66 0.9 0.72a2.9 2.9 0 0 0 1.23-0.21s0.07 0 0 0.06a1.49 1.49 0 0 1-1.46 0.52 1.19 1.19 0 0 1-0.82-1c0.02-0.11 0.11-0.13 0.15-0.09z" fill="#263238" />
    <path d="m200.67 77.5c-0.15 2.57-0.76 10.54-2 12.16s-3.86 5.39-5.19 6c0.18-5.31 1-10.36 2.37-13a13.57 13.57 0 0 1 4.82-5.16z" fill="#263238" opacity=".2" />
    <path d="m194.84 86s-2.76-6.29 0.19-9.59c1.67-1.86 6.69-1.22 6.69-1.22a9.14 9.14 0 0 1 6.1-3.42c4.29-0.67 9.18 2.23 9.18 2.23s4.18-2 7.77 0.43c5 3.39 3.75 11.32-1.71 13.48-3.84 1.53-8.62-2.13-8.62-2.13-0.48 0-5.66 2.64-9.07-2.06 0 0-3.24 2.47-5.83 0.37a4.42 4.42 0 0 1-4.7 1.91z" fill="#263238" />
    <path d="m196.47 96.45s-2.62-5.87-5.21-5-1.33 8.85 1.23 10.41a2.84 2.84 0 0 0 4-0.78z" fill="#ffc4c0" />
    <path d="m191.68 93.71a0 0 0 0 0 0 0.07c1.78 1.15 2.45 3.14 2.8 5.13a1.57 1.57 0 0 0-2.23-0.86c-0.06 0 0 0.11 0 0.11a1.74 1.74 0 0 1 1.78 1 7.86 7.86 0 0 1 0.62 1.7c0 0.19 0.38 0.16 0.36 0 0.51-2.58-0.74-6.39-3.33-7.15z" fill="#263238" />
    <rect transform="rotate(-17.03)" x="176.13" y="201.5" width="112.6" height="66.28" fill="var(--primary-500)" />
    <rect transform="rotate(-17.03)" x="176.13" y="201.5" width="112.6" height="66.28" opacity=".2" />
    <rect transform="rotate(-17.03)" x="250.88" y="201.49" width="37.84" height="66.28" opacity=".2" />
    <polygon points="332.25 189.74 318.3 182.56 354.49 171.47 368.44 178.66" fill="var(--primary-500)" />
    <polygon points="332.25 189.74 318.3 182.56 354.49 171.47 368.44 178.66" opacity=".2" />
    <polygon points="275.48 207.13 283.01 193.37 246.82 204.45 239.29 218.22" fill="var(--primary-500)" />
    <polygon points="275.48 207.13 283.01 193.37 246.82 204.45 239.29 218.22" opacity=".1" />
    <path d="m179.73 131.3c5.29 17.69 20 48 25.46 51.7 4.81 3.31 27.9 0.3 38-1.89 3.78-0.81-4-29.67-8-28.72-4.84 1.15-19.25 4-20.27 3.21s-15-19-25-29.68c-9.08-9.72-12.19-1.31-10.19 5.38z" fill="#ffc4c0" />
    <path d="m233.11 154.74s7.65-8.62 13.07-11.91a40.7 40.7 0 0 1 18.74-5.35c7.11-0.28 24.5 3.94 24.15 9.16-0.31 4.73-17.86-0.49-17.86-0.49s18.77 2.37 17.35 8-21.45-1.6-21.45-1.6 19.23 2.86 16.89 8.45c-1.8 4.21-20.31-1.31-20.31-1.31s16.52 2.58 14.85 7c-1.84 4.87-19.25 0.85-19.25 0.85-6.11 10.48-13.32 13-18.65 14.13-1.33 0.23-7.53-26.93-7.53-26.93z" fill="#ffc4c0" />
    <path d="m264.77 144.91c2.21 0.2 4.46 0.39 6.65 0.78s4.36 0.87 6.51 1.47a38.16 38.16 0 0 1 8.12 3.11c-4.75-2.05-12.57-3.59-14.76-4s-4.36-0.9-6.54-1.29c-0.06 0.02-0.04-0.07 0.02-0.07z" fill="#263238" />
    <path d="m263.2 152.8c2.81 0.37 5.63 0.64 8.43 1.14s5.39 1.22 8.14 1.91c0.21 0.05 0.11 0.15-0.1 0.1-2.78-0.58-5.38-0.9-8.16-1.44s-5.54-1.2-8.33-1.65c-0.04 0-0.03-0.07 0.02-0.06z" fill="#263238" />
    <path d="m260.63 159.32a63.23 63.23 0 0 1 12.76 2.74c0.21 0.06 0.07 0.17-0.15 0.12-4.22-1-7.53-1.8-12.62-2.71-0.08-0.01-0.08-0.16 0.01-0.15z" fill="#263238" />
    <path d="m240.9 186.23-6.72-34.52-18.73 2.94c-7.16-8.6-21.46-25.8-27.3-31-6.85-6.11-11.54-1.75-9.19 7.3 5.38 20.69 21.7 51.25 26.12 54.25 6.34 4.3 35.82 1.03 35.82 1.03z" fill="var(--primary-500)" />
    <path d="m234.44 183.06c-0.81-2.05-2.71-10.95-3.16-13.18s-1.94-11.19-2.39-13.48c0-0.12 0.14-0.2 0.17-0.07 0.48 2.25 2.69 11.12 3.16 13.34s2.26 11.12 2.34 13.36a0.061847 0.061847 0 0 1-0.12 0.03z" fill="#263238" />
    <path d="m228.26 187.2c-3.07 0.18-6.14 0.25-9.21 0.23a74.78 74.78 0 0 1-9.22-0.53 14.76 14.76 0 0 1-4.54-1.2 13.54 13.54 0 0 1-3.32-3.35 68.16 68.16 0 0 1-4.91-7.85c-3-5.39-5.58-11-8.1-16.58s-4.81-11.32-6.91-17.1c2.55 5.59 5.07 11.19 7.69 16.74s5.27 11.08 8.13 16.49a82.68 82.68 0 0 0 4.72 7.84 12.77 12.77 0 0 0 3 3.27 14.19 14.19 0 0 0 4.31 1.21 122 122 0 0 0 18.36 0.83z" fill="#263238" />
    <path d="m184 145.7a9.48 9.48 0 0 1-1.11-1.35 5.46 5.46 0 0 1-0.77-1.57 8.31 8.31 0 0 0 0.49 0.72l0.49 0.71a14.72 14.72 0 0 1 0.9 1.49z" fill="#263238" />
    <path d="m199.79 136.43c2.53 2.54 4.8 5.33 7.15 8s4.6 5.49 7 8.15l0.89 1c0.16 0.15 0.31 0.32 0.46 0.46s0.15 0.13 0.22 0.19 0 0 0 0h0.11c0.76 0 1.72-0.17 2.58-0.28l5.32-0.79c3.54-0.52 7.09-1.06 10.64-1.54l0.14 0.88-0.21-0.87h0.05c-3.51 0.75-7 1.42-10.56 2.07-1.77 0.32-3.54 0.6-5.32 0.87a24.74 24.74 0 0 1-2.75 0.32 0.86 0.86 0 0 1-0.22 0 0.82 0.82 0 0 1-0.27-0.14 3.74 3.74 0 0 1-0.29-0.25l-0.49-0.48c-0.32-0.33-0.62-0.66-0.92-1-2.35-2.73-4.63-5.49-6.87-8.29l-3.35-4.21c-1.1-1.31-2.1-2.75-3.31-4.09z" fill="#263238" />
    <path d="m201.1 136.73a10.05 10.05 0 0 1 1 1.48 5.61 5.61 0 0 1 0.59 1.65c-0.12-0.27-0.27-0.51-0.41-0.77l-0.41-0.77a16.38 16.38 0 0 1-0.77-1.59z" fill="#263238" />
  </g>
  <g>
    <path d="m81.16 398.22a262.83 262.83 0 0 1 0.39-28.07 356.81 356.81 0 0 1 8.79-57.15c2.45-10.58 5.47-21 8.62-31.38 0.09-0.31 0.59-0.22 0.51 0.1-9.73 36.64-17.72 74.46-17.17 112.54 0.16 10.66 1.39 21.13 2.4 31.72 0 0.29-0.44 0.4-0.5 0.11-2.01-9.09-2.66-18.61-3.04-27.87z" fill="var(--primary-500)" />
    <path d="m99.471 281.67c-17.97 49.78-17.191 107.04-17.191 107.08 0.94-13.7 14.96-13.079 21.24-25.199 6.28-12.12-2.7188-25-2.7188-25s6.8094-1.8799 10.109-10.67-11.439-46.211-11.439-46.211zm-58.021 46.029s1.3506 24.79 4.1406 29.08 13 2.4609 13 2.4609-8.3506 3.579-7.3906 8.459 7.1708 10.12 14.551 17.49a91.63 91.63 0 0 1 12.43 15.9c-1e-6 0-0.83977-23.031-9.5098-41.561s-27.221-31.83-27.221-31.83zm92.131 26.66s-18.081 6.4405-29.381 19.48c-11.3 13.04-17.318 31.461-17.318 31.461a76.94 76.94 0 0 1 13.729-10c7.68-4.26 13.91-7.071 15.82-10.791s-4-8.5606-4-8.5606 7.8301 3.84 11.08 1 10.07-22.59 10.07-22.59z" fill="var(--primary-500)" />
    <path d="m98.268 289.55c-0.0325-2e-3 -0.06836 0.01-0.06836 0.0449a343 343 0 0 0-14.309 75.27 0.28 0.28 0 0 0 0 0.20117c-0.27 3.3-0.50016 6.6089-0.66016 9.8789h0.08008c0.23-3.23 0.51984-6.4597 0.83984-9.6797a0.27 0.27 0 0 0 0.31055-0.0996 32.58 32.58 0 0 1 12.318-9.4805 0.080777 0.080777 0 0 0-0.05859-0.15039 30 30 0 0 0-12.5 8.9316c0.21-2.1 0.45922-4.201 0.69922-6.291h0.080073a21.41 21.41 0 0 1 6.1094-4.0898c0.09-0.02 0.06-0.0898 0-0.0898a22.36 22.36 0 0 0-6.3496 3.6797c0.26-2.2067 0.53674-4.4094 0.83008-6.6094h0.06055a18.59 18.59 0 0 1 8.9102-5.7109c0.16-0.03 0.1-0.16016 0-0.16016a17.75 17.75 0 0 0-8.791 5c0.86667-6.2533 1.8667-12.483 3-18.689 3.22-4.1 7.9705-6.5991 12.73-8.5391 0.1-0.02 0.06-0.10156 0-0.10156-4.57 1.74-9.1397 3.57-12.43 7.25 0.40667-2.18 0.82334-4.3498 1.25-6.5098a18.72 18.72 0 0 1 7.2598-4.8594c0.07-0.07 0-0.0703 0-0.0703a16.28 16.28 0 0 0-7 3.9199c2.24-11.06 4.8202-22.06 7.7402-33 0.01-0.025-0.02023-0.0424-0.05273-0.0449zm6.3223 22.686a18.38 18.38 0 0 0-8.8594 2.7598 0.12 0.12 0 0 0 0.09961 0.21094 34.85 34.85 0 0 1 8.7598-2.8613c0.08-0.01 0.07-0.10938 0-0.10938zm-56.91 21.727c-0.05107 0.0148-0.05047 0.0848 0.05078 0.15234 3.76 3.97 7.56 7.9817 11 12.262a20.15 20.15 0 0 0-7.25-0.64063 0 0 0 0 0 0 0.0801 27.26 27.26 0 0 1 7.7793 1.2305c0.46 0.57 0.90961 1.1485 1.3496 1.7285-4.04-0.79-8.1094-1.4098-12.109-0.33985a0.07 0.07 0 0 0 0 0.13086c4.26-0.77 8.4804 0.08 12.65 1 1.0867 1.5 2.1196 3.0391 3.0996 4.6191a16.06 16.06 0 0 0-5.5605-0.54883c-0.05 0.01-0.06 0.0996 0 0.0996a44.53 44.53 0 0 1 5.9414 1.0606 53.3 53.3 0 0 1 3.5 6.8086c1.2 2.8733 2.305 5.8074 3.3184 8.8008a36 36 0 0 0-7.1797-0.8711s-0.05 0.0801 0 0.0801a57.24 57.24 0 0 1 7.3301 1.2402c0.19 0.58999 0.39008 1.1815 0.58008 1.7715a41.8 41.8 0 0 0-10.82-0.91992v0.0586a52.32 52.32 0 0 1 11 1.4414c1.12 3.47 2.1 6.9588 3 10.469a18.38 18.38 0 0 0-4.8203-0.87891c-0.1 0-0.11 0.19922 0 0.19922a16.17 16.17 0 0 1 4.8301 1.2402h0.11133c0.99 3.9 1.8699 7.7999 2.6699 11.67 0.01 0.08 0.08008 0.05 0.08008 0a211.33 211.33 0 0 0-5.2812-22.92 0.19 0.19 0 0 0 0-0.12109c-0.22-0.73-0.45922-1.4692-0.69922-2.1992a101.19 101.19 0 0 0-4.0996-10.689c-4.6-10.08-12.461-18.25-20.281-25.92-0.045-0.0475-0.08742-0.0752-0.12305-0.0879-0.02672-0.01-0.04939-0.0108-0.06641-6e-3zm2.8594 16.863a16.89 16.89 0 0 0-2.459 0.16992c-0.08 0-0.08047 0.12064 0.01953 0.14062 1.23-0.06 2.4499 0 3.6699 0 0.14 0 0.15-0.25976 0-0.25976a16.89 16.89 0 0 0-1.2305-0.0508zm50.051 1.5098a18.62 18.62 0 0 0-6.6504 2.2695c-0.09 0.05-0.0095 0.20015 0.06055 0.16015a25.25 25.25 0 0 1 6.5898-2.3086c0.09-0.01 0.08-0.1211 0-0.1211zm24.891 6.4004c-16.54 10.14-28.66 25.48-37.66 42.48-0.12 0.23 0.17977 0.38844 0.50977 0.14844 1.4933-2.5533 3.0468-5.0832 4.6602-7.5898a12.44 12.44 0 0 1 3.1094-0.13868 0 0 0 0 0 0-0.0801 6.06 6.06 0 0 0-2.8691-0.16993c1.7933-2.8 3.6596-5.5345 5.5996-8.2012a24.83 24.83 0 0 1 6.7695 0.53125c0.06 0.02 0.09-0.13086 0-0.13086a23.61 23.61 0 0 0-6.5293-0.75c0.45-0.62 0.88961-1.2494 1.3496-1.8594a43.9 43.9 0 0 1 11.27 0.73047 0 0 0 0 0 0-0.0801 34.74 34.74 0 0 0-11-1.0703c0.48-0.64 0.99047-1.2704 1.4805-1.9004a19.37 19.37 0 0 1 3.8809 0.0605 0.070312 0.070312 0 0 0 0-0.14062 8.56 8.56 0 0 0-3.6309-0.25977 110.87 110.87 0 0 1 8.5293-9.6894 26.66 26.66 0 0 1 5.4902 0.44922v-0.0703a30.36 30.36 0 0 0-5.1992-0.68946c0.58-0.57 1.1602-1.1394 1.7402-1.6894a0.25 0.25 0 0 0 0.11914 0 26.68 26.68 0 0 1 10 1.6894c0 0.02 0.07-0.0996 0-0.0996a19.13 19.13 0 0 0-9.7188-2 83.7 83.7 0 0 1 12.1-9.4805zm-60.031 7.9707a0.13 0.13 0 0 0 0 0.25 12.3 12.3 0 0 0 2.4316 0.11914c0.07 0 0.08-0.15039 0-0.15039a12.41 12.41 0 0 0-2.4316-0.21875zm-4.0098 8.2891c-0.16 0-0.16852 0.2793 0.02148 0.2793 1.91 0.31 3.819 0.50117 5.709 0.95117v-0.0801a16.58 16.58 0 0 0-5.7305-1.1504z" fill="#263238" />
    <path d="m42.41 328.49a100.21 100.21 0 0 1 17.06 14.92 61.17 61.17 0 0 1 12 20.29 152 152 0 0 1 8.91 48.53 117.46 117.46 0 0 1-2.63 27.29 0.26 0.26 0 0 1-0.51-0.09 153 153 0 0 0-0.24-47.71c-2.54-15.48-6.51-32.32-16.35-44.9-5.41-6.82-12.09-12.23-18.65-17.82-0.39-0.28 0.05-0.76 0.41-0.51z" fill="var(--primary-500)" />
    <path d="m132.6 354.82a84.4 84.4 0 0 0-17.25 8.12 51.83 51.83 0 0 0-14.35 13.66 128 128 0 0 0-18.43 37.22 99.53 99.53 0 0 0-4.18 22.69 0.22 0.22 0 0 0 0.44 0 128.78 128.78 0 0 1 11.17-38.51c5.63-11.94 12.74-24.65 23.61-32.55 5.92-4.31 12.57-7.12 19.2-10.1 0.39-0.16 0.19-0.65-0.21-0.53z" fill="var(--primary-500)" />
    <polygon points="98.55 418.8 97.06 407.87 70.86 407.87 69.37 418.8 63.55 461.45 104.37 461.45" fill="#455a64" />
    <polygon points="97.06 407.87 70.86 407.87 69.37 418.8 98.55 418.8" fill="#263238" />
    <rect transform="scale(-1)" x="-100.81" y="-413.33" width="33.71" height="9.26" fill="#455a64" />
  </g>
</svg>