<svg fill="none" viewBox="0 0 500 500" xmlns="http://www.w3.org/2000/svg">
  <defs>
    <style>
      /* Light Scheme */
      :root {
        --base-100: #FFFFFF;
        --ground-500: #f5f5f5;
        --ground-600: #e0e0e0;
        --ground-700: #dbdbdb;
        --ground-800: #cccccc;
        --primary-500: #d70718;
        --color-skin: #ffa8a7;
      }

      /* Dark Scheme */
      @media (prefers-color-scheme: dark) {
        :root {
          --base-100: #1f2937;
          --ground-500: #c5c5c5;
          --ground-600: #a7a7a7;
          --ground-700: #acacac;
          --ground-800: #e0e0e0;
        }
      }
    </style>
  </defs>

  <rect id="frame" width="500" height="500" fill="var(--base-100)" />


  <path fill="var(--ground-500)" opacity="0.6" d="m254.65 433.31c121.35 0 219.72-58.212 219.72-130.02 0-71.808-98.373-130.02-219.72-130.02-121.35 0-219.72 58.21-219.72 130.02 0 71.807 98.374 130.02 219.72 130.02z" />
  <path fill="var(--ground-600)" opacity="0.6" d="m209.18 401.81c41.845 0 75.769-20.072 75.769-44.831 0-24.758-33.923-44.83-75.769-44.83s-75.769 20.072-75.769 44.83c0 24.76 33.923 44.831 75.769 44.831z" />
  <path fill="var(--ground-700)" d="m424.65 300.89-8.888-5.2573s-2.1725-19.499-0.72725-34.601c2.0337-21.221 15.407-46.762 31.355-40.759 15.949 6.0027-7.3114 27.607-12.487 45.605-5.1759 17.999-9.2525 35.013-9.2525 35.013z" />
  <path fill="#fff" d="m419.98 298.68c0.1425-7e-3 0.27573-0.0721 0.37195-0.17828 0.0944-0.1081 0.1462-0.24845 0.14064-0.39449-1.5563-47.153 21.349-70.879 21.573-71.109 0.10177-0.10432 0.15729-0.24467 0.15729-0.39071 0-0.14793-0.0556-0.28827-0.15729-0.39258-0.0499-0.0512-0.10918-0.091-0.17395-0.11949-0.0648-0.0284-0.13324-0.0417-0.20356-0.0417-0.0703 0-0.14064 0.0133-0.2054 0.0417-0.0648 0.0284-0.12398 0.0683-0.17395 0.11949-0.24241 0.22948-23.474 24.299-21.897 71.93 2e-3 0.0739 0.0186 0.14603 0.0481 0.21241 0.0296 0.0682 0.0722 0.12707 0.12583 0.17828 0.0537 0.0493 0.11473 0.0872 0.1832 0.1119 0.0666 0.0266 0.13879 0.036 0.21096 0.0322z" />
  <path fill="var(--ground-700)" d="m430.24 304.17-6.3232-3.7363s-1.0826-13.382 5.3257-29.632c5.5959-14.149 19.399-25.896 26.357-23.428 6.9579 2.4656 6.7802 7.5218 3.3846 12.827-3.3938 5.3048-24.016 17.932-28.744 43.97z" />
  <path fill="#fff" d="m426.9 302.75c0.14249-2e-3 0.27757-0.0607 0.37935-0.165 0.0999-0.10242 0.15915-0.24276 0.16099-0.3888-0.13138-29.824 27.188-49.973 27.467-50.174 0.0573-0.0417 0.10733-0.0929 0.14619-0.15552 0.037-0.0607 0.063-0.12896 0.074-0.20103 0.0111-0.0702 7e-3 -0.14414-9e-3 -0.21432-0.0167-0.0702-0.0481-0.13655-0.0907-0.19345-0.0814-0.11758-0.2054-0.19914-0.34604-0.2238-0.13879-0.0247-0.28313 7e-3 -0.39971 0.0892-0.27943 0.20104-28.044 20.696-27.924 51.073 0 0.14793 0.0573 0.28828 0.15915 0.39259 0.10177 0.10431 0.23871 0.16121 0.38305 0.16121z" />
  <path fill="var(--ground-700)" d="m95.781 289.18 8.2074-5.6765s3.6094-21.985 0.25186-41.38c-4.7192-27.205-23.064-36.248-29.593-33.38-6.5286 2.8676-7.9276 10.964 4.2623 26.488 7.2281 9.1283 16.62 28.618 16.872 53.948z" />
  <path fill="#fff" d="m98.598 278.28h-0.084c-0.0838-6e-3 -0.16562-0.0284-0.24001-0.0683-0.0744-0.0417-0.13971-0.0967-0.19153-0.165-0.052-0.0664-0.0894-0.14604-0.10992-0.22949-0.0203-0.0835-0.0235-0.1688-9e-3 -0.25414 2.966-25.608-7.5824-53.406-19.063-64.465-0.11048-0.1138-0.17247-0.26932-0.17247-0.43053s0.06199-0.31484 0.17247-0.43052c0.05459-0.0569 0.11991-0.10242 0.19208-0.13276 0.07198-0.0304 0.14934-0.0475 0.22761-0.0475 0.07809 0 0.15544 0.0171 0.22761 0.0475 0.07198 0.0304 0.13731 0.0759 0.19208 0.13276 11.695 11.262 22.44 39.517 19.436 65.499-0.0176 0.14604-0.0853 0.28069-0.19134 0.38121-0.10585 0.0986-0.24297 0.15742-0.38675 0.16311z" />
  <path fill="var(--ground-700)" d="m74.293 304.03c-1.3057 0.80225-5.1109-2.0938-6.1648-2.7918-1.8063-1.2081-3.2774-2.8752-4.2715-4.8363-1.1153-2.2266-1.5291-4.751-1.1845-7.2279 0.19097-1.2916 0.46836-2.5699 0.82995-3.8235 0.32643-1.2517 0.65286-2.5035 0.93266-3.7647 0.41377-1.229 0.57254-2.53 0.46633-3.8235-0.36362-2.5528-2.6114-4.3015-4.6633-5.8036-2.2569-1.6728-4.6633-3.8804-4.6633-6.9586 0.1151-2.4181 1.0181-4.7263 2.5648-6.5565 1.399-1.9118 3.0778-3.575 4.3368-5.574 0.98465-1.3826 1.4871-3.0668 1.4271-4.7794-0.16229-1.0545-0.53017-2.0654-1.082-2.972-1.1005-1.9876-2.5274-3.8235-3.3015-5.9363-0.77425-2.1128-0.71818-4.8268 0.93266-6.4048 1.315-1.2897 3.3202-1.5002 5.1388-1.4149 1.7138 0.17639 3.3692 0.73399 4.8498 1.6349 4.8219 2.6287 7.657 8.3639 12.759 10.363 1.968 0.76433 4.1131 0.89708 6.1555 1.4148 2.0426 0.51587 4.1503 1.5381 5.1296 3.4404 1.9306 3.7761-1.4362 8.5365-0.05588 12.54 1.2311 3.5561 4.6633 4.8572 6.6032 8.0396 0.78739 1.413 1.114 3.0478 0.93265 4.6656-0.10936 2.7292-0.70689 5.4148-1.7628 7.9239-1.2143 2.6021-2.5848 5.1227-4.1037 7.5503 0 0-21.609 14.97-21.805 15.095z" />
  <path fill="#fff" d="m67.363 236.14c-0.078091 0-0.15634 0.01468-0.22852 0.04688-0.071984 0.03034-0.13663 0.07591-0.19141 0.13281-0.10437 0.12138-0.15909 0.2802-0.15039 0.44141 0.008882 0.16122 0.080498 0.31181 0.19726 0.41992 4.7441 4.4101 10.613 15.082 14.635 27.965-7.559-2.012-16.309-2.2324-16.398-2.2324-0.078646-0.0058-0.15645 0.0066-0.23047 0.0332-0.074019 0.02847-0.14223 0.07196-0.19922 0.12696-0.056996 0.055-0.10246 0.12336-0.13281 0.19726-0.030339 0.07397-0.044468 0.15468-0.042968 0.23438-0.0026 0.07965 0.011312 0.16042 0.039062 0.23632 0.027939 0.07396 0.069197 0.14232 0.12305 0.19922 0.05385 0.05885 0.11802 0.10452 0.18945 0.13672 0.071429 0.0323 0.14847 0.04878 0.22656 0.05078 0.091937 0.00936 9.282 0.23392 16.852 2.4004 2.7137 9.1028 4.4741 19.214 4.2637 28.961-0.00111 0.07966 0.012146 0.16043 0.041016 0.23633 0.028869 0.07397 0.072363 0.14232 0.12695 0.19922 0.05459 0.05884 0.11943 0.10256 0.19141 0.13476 0.071985 0.0322 0.15024 0.05079 0.22852 0.05079 0.077167 0.00189 0.153-0.01257 0.22461-0.04297 0.071799-0.02846 0.13785-0.07196 0.19336-0.12696 0.055336-0.05501 0.10014-0.12126 0.13086-0.19336 0.03072-0.07207 0.047528-0.14881 0.048828-0.22851 0.21465-9.907-1.5926-20.201-4.373-29.465 0.003839-0.10864-0.018661-0.21797-0.070312-0.31445-0.013603-0.02582-0.030047-0.04906-0.046875-0.07226-4.107-13.51-10.269-24.774-15.227-29.348-0.05459-0.05686-0.12119-0.10241-0.19336-0.13281-0.071985-0.0324-0.14828-0.04688-0.22656-0.04688z" />
  <path fill="#455a64" d="m302.36 272.54-3.5345-2.0938c-0.59031-0.3907-1.0807-0.91984-1.4323-1.5438-0.3516-0.62209-0.55516-1.3219-0.59217-2.0407v-150.57c0.0389-0.71748 0.24057-1.4156 0.59031-2.0383 0.34975-0.62246 0.83828-1.1522 1.4249-1.5463l98.254-58.137c0.62547-0.32507 1.3176-0.49444 2.0189-0.49444 0.70135 0 1.3934 0.16936 2.0189 0.49444l3.5345 2.0934c0.59032 0.39184 1.0807 0.92079 1.4323 1.5436 0.3516 0.62303 0.55515 1.3223 0.59216 2.0409v150.57c-0.0388 0.71691-0.24056 1.4148-0.59031 2.0369-0.34974 0.62397-0.83828 1.1531-1.4249 1.5476l-98.254 58.145c-0.62548 0.32622-1.3176 0.49501-2.0208 0.49311-0.70134-2e-3 -1.3934-0.17448-2.017-0.50259z" />
  <path fill="#37474f" d="m304.38 120.8v150.55c0 1.32 0.93266 1.8549 2.0245 1.1948l98.254-58.145c0.58661-0.39449 1.0752-0.92364 1.4249-1.5476 0.34975-0.62208 0.55145-1.32 0.59031-2.0369v-150.57c0-1.3191-0.93265-1.8543-2.0152-1.1948l-98.254 58.146c-0.59217 0.39391-1.0826 0.92572-1.436 1.5524-0.3516 0.62644-0.5533 1.3295-0.58847 2.0513z" />
  <path fill="var(--ground-700)" d="m355.53 103.79c11.453-6.7773 20.733-1.281 20.733 12.273s-9.2803 30.024-20.733 36.801c-11.453 6.7772-20.733 1.281-20.733-12.264 0-13.545 9.2803-30.034 20.733-36.811z" />
  <path fill="#fff" d="m358.3 113.51c-0.88249 0.01945-1.8746 0.32307-2.9238 0.94141-1.9578 1.3056-3.5864 3.0659-4.7578 5.1387-1.1695 2.0728-1.8469 4.4-1.9746 6.791 0 4.397 3.0018 6.1751 6.7324 3.9766 1.9578-1.3068 3.5882-3.068 4.7559-5.1406 1.1677-2.0728 1.843-4.3988 1.9707-6.7891 0-3.1604-1.5475-4.9677-3.8027-4.918zm4.0781 16.295c-1.4493 0.03073-3.0736 0.53067-4.7891 1.5469l-3.8164 2.2559c-6.0992 3.6132-11.051 12.425-11.051 19.623v1.9785c1.151 0.37723 2.3541 0.56805 3.5625 0.56445 3.2717-0.11399 6.4572-1.102 9.2422-2.8672 5.3017-3.3471 9.7879-7.8921 13.113-13.287v-1.7305c0-5.1871-2.558-8.1625-6.2617-8.084z" />
  <path fill="#fafafa" d="m329.53 200.59 51.958-30.761c1.3342-0.79278 2.4242-0.15362 2.4242 1.4338v3.2223c-0.0444 0.86105-0.28869 1.6993-0.70875 2.4466-0.42191 0.74725-1.0104 1.3826-1.7154 1.8549l-51.986 30.759c-1.3342 0.79466-2.4149 0.15362-2.4149-1.4338v-3.1919c0.0425-0.86864 0.28497-1.7145 0.71059-2.4674 0.42562-0.75295 1.0196-1.3921 1.7321-1.8625z" />
  <path fill="#fafafa" d="m381.41 151.5c-0.40342 0.03736-0.79027 0.17394-1.1289 0.40039l-2.1621 1.291c-0.0777 0.05026-0.13466 0.12444-0.16796 0.21094-0.0462 0.09502-0.07222 0.19829-0.07422 0.30468v8.9375c-0.0038 0.03994-0.00118 0.08105 0.01172 0.11915 0.013 0.03797 0.0347 0.07256 0.0625 0.10156 0.024 0.0201 0.05243 0.03125 0.08203 0.03125 0.0315 0 0.06183-0.01115 0.08593-0.03125l2.209-1.2344c0.41636-0.25263 0.78882-0.575 1.1016-0.95507 0.31088-0.37116 0.57595-0.78366 0.7832-1.2246 0.21651-0.48022 0.37891-0.98281 0.48438-1.5 0.11841-0.55646 0.18648-1.1222 0.20508-1.6914v-2.0547c-0.01111-0.49103-0.07924-0.97916-0.20508-1.4531-0.07586-0.35902-0.24617-0.69094-0.49414-0.95703-0.21651-0.20103-0.50245-0.30593-0.79297-0.29493zm-0.52148 1.9297c0.08142-0.0027 0.16433 0.01187 0.24023 0.04297 0.07772 0.0313 0.14963 0.07857 0.20703 0.13867 0.13509 0.13675 0.22709 0.30991 0.27149 0.49805 0.07033 0.24883 0.10732 0.50498 0.11132 0.76367 0.0278 0.66912 0.0278 1.3491 0 2.0469-0.00924 0.30251-0.04652 0.60313-0.11132 0.89843-0.05736 0.28296-0.1471 0.55688-0.26368 0.82032-0.11659 0.24731-0.26345 0.47969-0.43554 0.68945-0.17765 0.21318-0.3901 0.39406-0.62696 0.53516l-1.2207 0.71679v-6.2324l1.1758-0.6875c0.1943-0.13428 0.41734-0.21447 0.65235-0.23047zm-5.7852 1.7734c-0.29982 0.00871-0.65604 0.13499-1.0703 0.37695l-2.2774 1.3672c-0.07585 0.05026-0.13451 0.12444-0.16601 0.21094-0.0463 0.09503-0.07217 0.19827-0.07617 0.30468v8.9395c-0.0019 0.03989 0.00272 0.07929 0.01562 0.11718 0.013 0.03792 0.03275 0.07117 0.06055 0.10157 0.0221 0.019 0.05248 0.03125 0.08398 0.03125s0.05983-0.01235 0.08203-0.03125l0.70899-0.41992c0.07219-0.055 0.13112-0.12784 0.16992-0.21094 0.0444-0.09559 0.06645-0.201 0.06445-0.30664v-3.2305l1.166-0.6875 1.1465 2.5508c0.03143 0.06392 0.07315 0.12168 0.12305 0.17188 0.05552 0.07639 0.13764 0.06669 0.25976 0l0.7461-0.43946c0.05918-0.04267 0.10496-0.10247 0.13086-0.17187 0.037-0.07719 0.05664-0.16195 0.05664-0.24805 4e-3 -0.04449 4e-3 -0.09017 0-0.13477l-1.2129-2.7051c0.38306-0.46144 0.67843-0.99213 0.86719-1.5664 0.19982-0.61639 0.29606-1.2627 0.28906-1.9121 0.04808-0.34195 0.02193-0.69109-0.07617-1.0215-0.09809-0.33057-0.26653-0.63479-0.49414-0.89063-0.16678-0.13799-0.36447-0.20209-0.59766-0.19531zm-0.48047 1.9453c0.07058-0.00423 0.14165-1.3e-4 0.21289 0.00977 0.19431 0.05729 0.29883 0.34312 0.29883 0.85937 0.02035 0.4292-0.08417 0.85629-0.29883 1.2246-0.20725 0.31256-0.48074 0.56994-0.80273 0.75391l-1.3164 0.72656 0.04883-2.6094 1.2676-0.7461c0.17348-0.1309 0.37811-0.20607 0.58984-0.21875zm-6.1211 1.873c-0.39601 0.01517-0.78184 0.14451-1.1094 0.37304-0.42932 0.24864-0.81061 0.5714-1.1289 0.95508-0.31459 0.38671-0.57781 0.81422-0.78321 1.2715-0.21466 0.47016-0.379 0.96456-0.48633 1.4726-0.10352 0.51904-0.16312 1.0489-0.18359 1.5781-0.01089 0.1714 0 0.324 0 0.54297v0.66015 0.66016 0.57422c0.0111 0.45518 0.07256 0.90569 0.18359 1.3457 0.07402 0.35845 0.24392 0.68961 0.48633 0.95703 0.10363 0.1062 0.22614 0.1892 0.35938 0.2461 0.13508 0.055 0.27764 0.08207 0.42383 0.08008 0.40156-0.01707 0.79211-0.14742 1.1289-0.375 0.42191-0.25224 0.80086-0.57386 1.1191-0.95508 0.31459-0.38879 0.58016-0.81632 0.79297-1.2715 0.20725-0.47225 0.36924-0.96374 0.47656-1.4707 0.10371-0.51645 0.16515-1.0413 0.18555-1.5684v-0.5918-0.66015-0.66016-0.57422c-0.0111-0.45574-0.07503-0.90859-0.19531-1.3476-0.08698-0.33683-0.2508-0.648-0.47656-0.90821-0.21282-0.21147-0.49689-0.32998-0.79297-0.33398zm-0.56055 1.9043c0.16446-0.00121 0.31044 0.05025 0.43164 0.16015 0.14989 0.17714 0.26369 0.384 0.33398 0.60742 0.0709 0.22341 0.09648 0.45951 0.07618 0.69336 9e-3 0.34403 0 0.68899 0 1.1191v1.1836c-0.00556 0.61658-0.14554 1.2257-0.41016 1.7793-0.21096 0.46466-0.553 0.85551-0.98047 1.1191-0.4108 0.23896-0.74782 0.2574-0.99023 0.04688-0.1499-0.17638-0.26369-0.38362-0.33399-0.60742-0.07-0.22379-0.09642-0.45813-0.07422-0.69141v-1.1582-1.1758c0.00556-0.61961 0.14358-1.2299 0.40821-1.7871 0.2091-0.47168 0.55352-0.86661 0.99023-1.1289 0.19986-0.10507 0.38437-0.15895 0.54883-0.16015zm-4.4277 0.92578c-0.0297 0-0.05989 0.00874-0.08399 0.02734l-0.64453 0.38281c-0.06849 0.04855-0.12357 0.11024-0.16797 0.18164-0.05928 0.10886-0.09456 0.2293-0.10156 0.35352l-0.73828 6.3086-0.65235-3.3164c-0.0148-0.07188-0.04328-0.14038-0.08398-0.20118-0.04626-0.0478-0.12098-0.0572-0.22461 0l-0.71875 0.42969c-0.10733 0.06353-0.18566 0.16573-0.22266 0.28711-0.0389 0.09483-0.06728 0.19637-0.08398 0.29688l-0.64453 4.082-0.73633-5.4395c-0.01853-0.15289-0.05378-0.22851-0.10937-0.22851-0.05552-0.0222-0.11623-0.0222-0.16993 0l-0.64257 0.38086c-0.074 0.05253-0.13473 0.12604-0.16993 0.21094-0.0462 0.09521-0.06826 0.20024-0.07226 0.30664v0.10351l1.1191 8.0781c0.00367 0.10052 0.03866 0.19964 0.10156 0.27734 0.04812 0.0569 0.11258 0.0569 0.20508 0l0.70898-0.42187c0.09067-0.05689 0.16012-0.14374 0.19532-0.24805 0.05178-0.12897 0.08918-0.26384 0.11328-0.40039l0.75586-4.5801 0.77343 3.6914c0.02778 0.09673 0.06323 0.19014 0.11133 0.27734 0.04627 0.0474 0.11201 0.0474 0.19531 0l0.71875-0.42188c0.09253-0.05879 0.16248-0.14563 0.20508-0.24804 0.05003-0.12897 0.08492-0.2639 0.10352-0.40235l1.1191-9.3945c4e-3 -0.03814 4e-3 -0.07713 0-0.11523 0.0018-0.04133-0.00453-0.08385-0.01563-0.12305-0.013-0.03946-0.03274-0.07612-0.06054-0.10742-0.024-0.0185-0.05243-0.02734-0.08203-0.02734zm-8.7363 5.3105c-0.0325 2.6e-4 -0.06504 0.00106-0.09766 0.00391-0.36826 0.03034-0.72417 0.1546-1.0332 0.36133-0.33124 0.21053-0.6253 0.47388-0.87696 0.77734-0.28683 0.30725-0.53658 0.64976-0.73828 1.0215-0.20726 0.37362-0.36964 0.77208-0.48437 1.1855-0.11465 0.40777-0.17374 0.82902-0.17774 1.252-0.00925 0.33759 0.02993 0.67574 0.11133 1.002 0.04996 0.22569 0.15921 0.43064 0.31836 0.59375 0.14619 0.14227 0.33931 0.22883 0.54102 0.24023 0.25907 0.0266 0.52177 0.00596 0.77344-0.05664 0.31828-0.05879 0.60718-0.12669 0.8496-0.18359 0.2017-0.05691 0.40614-0.09217 0.61524-0.10547 0.06662-0.0095 0.13442-0.00332 0.19922 0.01758 0.06477 0.0189 0.12393 0.05215 0.17383 0.09765 0.04803 0.05689 0.08321 0.12517 0.10351 0.19727 0.0206 0.07207 0.02658 0.14871 0.01758 0.22461 0 0.20482-0.03738 0.41001-0.11328 0.60156-0.07772 0.19156-0.1766 0.3682-0.29688 0.53321-0.12029 0.17448-0.26499 0.32812-0.42968 0.45898-0.15915 0.13466-0.32811 0.25712-0.50391 0.36523-0.1721 0.11-0.36059 0.19089-0.55859 0.23829-0.12399 0.02839-0.25091 0.02839-0.37305 0-0.09622-0.03414-0.18109-0.09825-0.24219-0.18165-0.0574-0.08724-0.10779-0.18064-0.15039-0.27734-0.0073-0.036-0.02467-0.0673-0.04687-0.0957-0.0222-0.0285-0.05054-0.05131-0.08204-0.06641-0.04626-0.0285-0.13211-0.01002-0.2246 0.04688l-0.61524 0.36328c-0.0759 0.04931-0.13662 0.12374-0.16992 0.21094-0.0519 0.09103-0.07555 0.20043-0.06445 0.30664 0 0.3338 0.08078 0.6611 0.23437 0.95507 0.12583 0.23328 0.32184 0.41918 0.56055 0.52539 0.25352 0.0967 0.52638 0.11956 0.79101 0.06836 0.32939-0.06827 0.64678-0.19476 0.9336-0.37304 0.3849-0.23328 0.73825-0.51753 1.0547-0.84375 0.30719-0.32621 0.57687-0.68744 0.80079-1.0781 0.21466-0.37742 0.38126-0.78403 0.49414-1.2051 0.11655-0.40965 0.17573-0.83303 0.17773-1.2598 0.0074-0.32242-0.02998-0.64599-0.11328-0.95703-0.06662-0.22001-0.19304-0.41462-0.36328-0.56446-0.18135-0.13841-0.39924-0.21293-0.625-0.21093-0.31459-0.00948-0.62816 0.02803-0.93164 0.11523l-0.81055 0.18164c-0.17395 0.0304-0.35144 0.0304-0.52539 0-0.05736-0.0057-0.11206-0.02429-0.16016-0.05469-0.04813-0.03227-0.08954-0.07575-0.11914-0.12695-0.0667-0.14604-0.09313-0.30754-0.08203-0.46875 0.0037-0.17638 0.0344-0.35062 0.0918-0.51562 0.05922-0.17638 0.14042-0.34248 0.24219-0.4961 0.09993-0.16121 0.22038-0.30859 0.35546-0.43945 0.13509-0.12518 0.28216-0.23734 0.43946-0.33594 0.11103-0.08727 0.23806-0.14955 0.375-0.18555 0.13508-0.036 0.27723-0.04433 0.41601-0.02343 0.17211 0.06448 0.31725 0.19444 0.40235 0.36133 0.02406 0.0664 0.0697 0.12616 0.1289 0.16406 0.05737 0.0759 0.13211 0.0569 0.22461 0l0.61524-0.36524c0.07589-0.04931 0.13467-0.12178 0.16797-0.20898 0.0519-0.09103 0.0775-0.20044 0.0664-0.30664-0.00924-0.25794-0.06814-0.50895-0.16992-0.74414-0.09252-0.22758-0.24742-0.42601-0.44726-0.56446-0.19754-0.11785-0.42097-0.17759-0.64844-0.17578zm-6.127 3.6211c-0.03236 4.3e-4 -0.06527 0.00278-0.09765 0.00586-0.36825 0.03035-0.72243 0.15058-1.0352 0.35351-0.33123 0.22948-0.62939 0.50743-0.88476 0.82227-0.28313 0.30915-0.52682 0.65165-0.72852 1.0215-0.2091 0.37173-0.3753 0.7702-0.48633 1.1856-0.1166 0.40398-0.17778 0.82115-0.17578 1.2422-0.0074 0.34139 0.02566 0.68371 0.10156 1.0156 0.05181 0.2238 0.16519 0.43058 0.32618 0.5918 0.14804 0.14226 0.34126 0.22498 0.54296 0.23828 0.25538 0.0265 0.51387 0.00776 0.76368-0.05664 0.32569-0.0569 0.60719-0.12474 0.84961-0.18164 0.20355-0.06071 0.41208-0.09847 0.62304-0.10547 0.06661-0.0096 0.13637-0.00528 0.20117 0.01562 0.06477 0.0189 0.12393 0.05216 0.17383 0.09766 0.04623 0.05879 0.08132 0.12517 0.10352 0.19727 0.0206 0.07207 0.02462 0.14871 0.01562 0.22461 0.00186 0.20673-0.03733 0.41-0.11133 0.60156-0.16468 0.37363-0.41382 0.70094-0.72656 0.95508-0.161 0.13655-0.33222 0.25901-0.51172 0.36523-0.17395 0.10999-0.36253 0.19088-0.56054 0.23828-0.12213 0.0284-0.25091 0.0284-0.37305 0-0.09437-0.03414-0.17502-0.09814-0.23242-0.18164-0.06109-0.08535-0.11149-0.17874-0.15039-0.27734-0.03699-0.08541-0.07346-0.13567-0.13086-0.16406-0.05551-0.0284-0.13021-0.00802-0.22461 0.05078l-0.61524 0.36132c-0.07588 0.05121-0.13508 0.11968-0.17578 0.20118-0.0444 0.09862-0.0684 0.20634-0.0664 0.31445 0.0074 0.3338 0.08859 0.66306 0.24218 0.95703 0.12398 0.23139 0.31763 0.41538 0.55079 0.52539 0.25722 0.0967 0.53441 0.12146 0.80273 0.06836 0.32939-0.06828 0.64491-0.19482 0.93359-0.375 0.39045-0.23138 0.74781-0.5177 1.0606-0.84961 0.30718-0.32431 0.57893-0.6834 0.80469-1.0703 0.21281-0.37742 0.37941-0.78404 0.49414-1.2051 0.11655-0.40966 0.17573-0.83499 0.17773-1.2617 0.01111-0.32431-0.03234-0.64594-0.12304-0.95508-0.05922-0.22001-0.18338-0.41651-0.35547-0.56445-0.1795-0.13652-0.39914-0.21098-0.62305-0.20898-0.31459-0.01707-0.63196 0.02228-0.93359 0.11328l-0.8125 0.18164c-0.1721 0.0304-0.34939 0.0304-0.52149 0-0.05736-0.0057-0.11205-0.02429-0.16015-0.05469-0.04993-0.03226-0.09134-0.07575-0.11914-0.12695-0.0666-0.14604-0.09314-0.30753-0.08204-0.46875 0-0.17448 0.02644-0.34872 0.08204-0.51563 0.06107-0.17448 0.14228-0.34057 0.24218-0.49609 0.10363-0.16121 0.22634-0.31055 0.36328-0.44141 0.13509-0.12329 0.2798-0.23538 0.42969-0.33398 0.22947-0.17633 0.51776-0.25069 0.80274-0.20899 0.08512 0.03224 0.16392 0.07998 0.23242 0.14258 0.06659 0.06449 0.1212 0.14312 0.1582 0.22852 0.03517 0.06261 0.08333 0.11449 0.14063 0.15429 0.04627 0.0664 0.12284 0.0569 0.22461 0l0.61523-0.36523c0.07583-0.04931 0.13452-0.12358 0.16602-0.20898 0.05-0.09483 0.0714-0.20044 0.0664-0.30665-0.00925-0.25602-0.0662-0.51092-0.16797-0.74609-0.09253-0.23139-0.25162-0.42594-0.45703-0.5625-0.19754-0.11951-0.42185-0.18075-0.64844-0.17773zm-6.7617 3.8613c-0.03609 0-0.07875 0.01452-0.125 0.04297l-1.0078 0.56641c-0.09252 0.055-0.16864 0.13776-0.21484 0.23828-0.05368 0.13845-0.09519 0.28176-0.12109 0.42969l-2.1445 10.016c-5e-3 0.03602-5e-3 0.07323 0 0.10743-0.0074 0.07965 0.01636 0.15615 0.06446 0.21875 0.024 0.0191 0.05438 0.03125 0.08398 0.03125 0.0315 0 0.06184-0.01235 0.08594-0.03125l0.63281-0.37305c0.11103-0.055 0.19599-0.14999 0.24219-0.26758 0.04252-0.08914 0.07762-0.18254 0.10352-0.27734l0.37304-1.7578 2.7988-1.6445 0.38086 1.3086c0.0167 0.06447 0.04755 0.12633 0.09375 0.17383 0.04627 0.07589 0.12931 0.06639 0.24219 0l0.63281-0.375c0.07769-0.04931 0.13662-0.12179 0.16992-0.20899 0.0481-0.09293 0.07227-0.20043 0.07227-0.30664v-0.08398l-2.1524-7.4746c-0.02038-0.10431-0.06189-0.20187-0.12109-0.28907-0.02406-0.02845-0.05376-0.04297-0.08984-0.04297zm-0.57227 2.4609 0.93164 3.377-1.8652 1.1348 0.93359-4.5117zm-4.6543 0.85352c-0.29847 0.01105-0.64625 0.1362-1.0449 0.37304l-2.3516 1.3945c-0.07404 0.05121-0.13082 0.12548-0.16602 0.20898-0.0444 0.09672-0.0664 0.20042-0.0664 0.30664v8.9375c-0.0074 0.08345 0.0146 0.16402 0.0664 0.22852 0.024 0.0184 0.05439 0.02929 0.08399 0.02929 0.0297 0 0.05793-0.01039 0.08203-0.02929l0.70898-0.41992c0.0759-0.04932 0.13467-0.12374 0.16797-0.21094 0.0462-0.09483 0.07222-0.19849 0.07422-0.30469v-3.0879l1.4004-0.83008c0.71059-0.41346 1.284-1.032 1.6504-1.7793 0.40712-0.825 0.60819-1.7424 0.58789-2.668 0-1.0128-0.19558-1.6729-0.58789-1.9688-0.17082-0.12945-0.37332-0.18829-0.60547-0.17969zm-0.5 1.9219c0.07079 7.3e-4 0.14154 0.00829 0.21094 0.02539 0.1943 0.08724 0.29883 0.38452 0.29883 0.90039 0.01665 0.4419-0.08788 0.87667-0.29883 1.2598-0.19986 0.32622-0.47518 0.5955-0.80273 0.78516l-1.3535 0.80273v-2.7637l1.3535-0.80078c0.11103-0.09107 0.24207-0.1553 0.38086-0.1875 0.06939-0.016 0.14015-0.02221 0.21093-0.02149z" />
  <path fill="var(--ground-700)" d="m248.86 12.795c-0.67393 0.01068-1.3474 0.07222-2.0156 0.18359-1.6636 0.27557-3.2742 0.82445-4.7676 1.625-1.3657 0.7281-2.5944 1.6985-3.627 2.8672-0.91785 1.0077-1.5823 2.2285-1.9394 3.5566-0.0408 0.16159-0.0512 0.33128-0.0234 0.49609 0.0278 0.165 0.0891 0.32053 0.18164 0.45898 0.17211 0.25888 0.43655 0.4385 0.73633 0.49805l4.207 0.95508c0.34235 0.11456 0.71316 0.08731 1.0352-0.07617 0.28498-0.20445 0.53237-0.45899 0.72852-0.75391 2.0263-2.7019 4.5131-3.7199 7.4609-3.0508 1.5914 0.27235 3.0487 1.0842 4.1387 2.3047 0.43672 0.49501 0.74926 1.0904 0.91211 1.7363 0.16288 0.64579 0.17136 1.3233 0.0215 1.9727-0.1573 0.74782-0.55514 1.4188-1.127 1.9102-0.65322 0.56916-1.364 1.0667-2.1172 1.4824-0.81237 0.46846-1.7451 0.93622-2.6777 1.4238-0.97891 0.50146-1.9161 1.0875-2.7988 1.75-0.90675 0.69586-1.7206 1.5084-2.4238 2.418-0.77165 1.0283-1.3321 2.2058-1.6504 3.4609-0.0573 0.18454-0.0706 0.37933-0.041 0.57031 0.0315 0.19099 0.10576 0.37321 0.21679 0.5293 0.10549 0.16785 0.24321 0.31256 0.40235 0.42578 0.161 0.11323 0.34065 0.19164 0.53125 0.23242l3.9531 0.89844c0.17579 0.04571 0.36141 0.04984 0.53906 0.01172s0.34396-0.1163 0.48828-0.23047c0.30349-0.22968 0.53917-0.54055 0.68165-0.89844 0.28868-0.78348 0.78602-1.4683 1.4355-1.9785 0.71615-0.57846 1.4844-1.0871 2.2949-1.5195l2.6856-1.4629c0.95486-0.51208 1.8636-1.1098 2.7148-1.7871 0.86603-0.70249 1.6314-1.5263 2.2754-2.4473 0.70318-1.0769 1.1955-2.2859 1.4453-3.5566 0.37932-1.603 0.34666-3.2789-0.0937-4.8652-0.43117-1.482-1.1704-2.8523-2.1641-4.0156-1.04-1.2095-2.28-2.2194-3.666-2.9824-1.4452-0.81212-2.9955-1.4104-4.6055-1.7773-1.0999-0.26066-2.2244-0.38303-3.3476-0.36523zm40.531 26.377c-0.34448 6.85e-4 -0.68901 0.01543-1.0332 0.04492-1.2509 0.10166-2.4775 0.42618-3.6211 0.95703-1.0067 0.45935-1.8872 1.1646-2.5644 2.0547-0.0777 0.10488-0.13257 0.22512-0.16407 0.35352-0.0296 0.1284-0.0359 0.26247-0.0137 0.39258 0.024 0.12574 0.0702 0.24478 0.13867 0.35156 0.0703 0.10659 0.16004 0.19879 0.26367 0.26953l2.8711 2.0938c0.10918 0.09824 0.23806 0.1731 0.375 0.2207 0.13879 0.04743 0.28339 0.06707 0.42773 0.05664 0.27757-0.05841 0.5445-0.1697 0.78321-0.32617 2.3816-1.3764 4.5804-1.3274 6.5938 0.14453 1.1121 0.72696 1.9562 1.8118 2.3984 3.0859 0.17584 0.51568 0.22825 1.0685 0.15235 1.6094-0.0759 0.5409-0.28092 1.0546-0.5918 1.498-0.34604 0.52497-0.85079 0.91924-1.4356 1.1191-0.66988 0.21621-1.361 0.35657-2.0605 0.41992-0.76426 0.07643-1.5858 0.14389-2.4629 0.20117-0.8901 0.05823-1.7726 0.1947-2.6387 0.41016-0.8975 0.22494-1.7637 0.56959-2.5742 1.0234-0.9012 0.52251-1.6912 1.2241-2.3223 2.0645-0.10178 0.12043-0.17394 0.26359-0.21094 0.41797-0.0373 0.15438-0.0391 0.31575-4e-3 0.4707 0.0592 0.31995 0.23496 0.60388 0.49218 0.79297l2.707 1.9707c0.11658 0.09521 0.25225 0.15967 0.39844 0.18945 0.14434 0.02996 0.29697 0.02452 0.43946-0.01758 0.30162-0.07378 0.5746-0.23291 0.79296-0.45898 0.48113-0.49482 1.0896-0.83957 1.7539-0.99414 0.7217-0.19971 1.4573-0.3317 2.2012-0.39258l2.4805-0.22852c0.87529-0.07757 1.7424-0.2314 2.5918-0.45898 0.87344-0.24295 1.7065-0.61702 2.4726-1.1094 0.87159-0.57353 1.6183-1.322 2.2012-2.1992 0.78276-1.0847 1.2784-2.3595 1.4375-3.6992 0.13509-1.2565 2e-3 -2.5266-0.38477-3.7266-0.41636-1.2523-1.0473-2.4182-1.8652-3.4414-0.83828-1.1-1.8314-2.0661-2.9473-2.8672-1.1991-0.90448-2.5627-1.5546-4.0098-1.9121-1.0048-0.25459-2.0349-0.38291-3.0684-0.38086zm-46.477 3.6953c-0.28148-0.0018-0.55873 0.08039-0.79883 0.23828-0.32014 0.21052-0.54786 0.54023-0.63476 0.91992l-1.0176 4.6836c-0.0425 0.1889-0.045 0.38538-0.0117 0.57617 0.0333 0.19061 0.10536 0.37161 0.20899 0.5332 0.0999 0.17069 0.23549 0.31741 0.39648 0.42969 0.16099 0.11209 0.34271 0.18751 0.53516 0.2207l4.5137 1.0605c0.18505 0.04419 0.37746 0.04795 0.5625 0.01172 0.18691-0.03623 0.36409-0.11246 0.51953-0.22266 0.16469-0.10469 0.30684-0.24358 0.41602-0.4082 0.10918-0.16481 0.18355-0.35077 0.21875-0.54688l1.0078-4.6836c0.0777-0.38121 6e-3 -0.77874-0.19727-1.1074-0.20356-0.32868-0.52444-0.56339-0.89453-0.65234l-4.541-1.0215c-0.0934-0.01935-0.18938-0.03065-0.28321-0.03125zm15.967 14.979c-0.56718 0.01119-1.1337 0.06193-1.6953 0.1543-1.2417 0.20312-2.4307 0.65234-3.5059 1.3203-0.99557 0.61582-1.8897 1.3891-2.6484 2.293-0.69209 0.82539-1.2353 1.7703-1.6035 2.791-0.36456 0.87698-0.50872 1.8347-0.41992 2.7832 0.0129 0.11095 0.048 0.21691 0.10352 0.3125 0.0574 0.09578 0.1319 0.17707 0.2207 0.24023 0.17579 0.12022 0.3904 0.16559 0.59766 0.125l2.9473-0.48828c0.24242-0.02162 0.46823-0.13295 0.63477-0.31445 0.13139-0.20806 0.2256-0.43882 0.2793-0.67969 0.19615-1.002 0.68857-1.9157 1.4121-2.6191 0.72355-0.70325 1.6406-1.1607 2.627-1.3086 1.0881-0.23612 2.2255-0.09595 3.2285 0.40039 0.40341 0.20218 0.75316 0.50188 1.0215 0.87305 0.26832 0.37097 0.44532 0.80383 0.51562 1.2598 0.0796 0.51815-0.01 1.0481-0.25195 1.5098-0.27388 0.53654-0.60523 1.0391-0.98828 1.5-0.42932 0.51625-0.86725 1.0515-1.3613 1.625-0.50149 0.57201-0.95144 1.1904-1.3438 1.8457-0.39971 0.68296-0.71338 1.4156-0.93359 2.1797-0.2406 0.86313-0.30213 1.7687-0.18555 2.6582 9e-3 0.13314 0.0467 0.26221 0.11328 0.37695 0.0666 0.11474 0.16035 0.21032 0.26953 0.28125 0.10918 0.07889 0.23179 0.13447 0.36133 0.16406 0.12954 0.02962 0.26304 0.03209 0.39258 0.0078l2.7988-0.45898c0.12398-0.01897 0.24022-0.06358 0.3457-0.13281 0.10363-0.06923 0.19322-0.16042 0.26172-0.26758 0.13326-0.23271 0.20584-0.4965 0.21484-0.76562-0.0167-0.57618 0.13166-1.1445 0.42774-1.6348 0.31459-0.5593 0.67902-1.0863 1.0898-1.5762 0.42006-0.52573 0.87795-1.071 1.3535-1.6445 0.48484-0.57523 0.91515-1.1952 1.2871-1.8535 0.3849-0.67689 0.67-1.4079 0.84765-2.1699 0.19801-0.99115 0.19133-2.0142-0.0215-3.002-0.21096-0.98793-0.62423-1.9196-1.209-2.7344-0.65138-0.83241-1.4633-1.5166-2.3867-2.0078-0.96965-0.50108-2.0187-0.82364-3.0957-0.95508-0.56533-0.07017-1.134-0.09908-1.7012-0.08789zm21.014 2.8613c-0.0767-0.0021-0.15562 0.0022-0.23242 0.01563-0.30903 0.05367-0.58232 0.23078-0.76367 0.49024l-2.248 3.2012c-0.0907 0.12783-0.15615 0.27316-0.18945 0.42774-0.0338 0.15457-0.0355 0.31518-6e-3 0.4707 0.0185 0.15704 0.0708 0.30813 0.15039 0.44336 0.0814 0.13504 0.18872 0.25247 0.31641 0.3418l3.0586 2.2266c0.12398 0.09369 0.26612 0.15884 0.41601 0.19336 0.15174 0.03456 0.30725 0.03816 0.45899 0.0078 0.15359-0.02371 0.3022-0.08023 0.43359-0.16406 0.13138-0.08383 0.24323-0.19392 0.33203-0.32422l2.2188-3.2012c0.0925-0.12783 0.15811-0.27512 0.19141-0.42969 0.0338-0.15476 0.0355-0.31323 6e-3 -0.46875-0.0222-0.15685-0.0768-0.3087-0.1582-0.44336-0.0814-0.13485-0.18872-0.25114-0.31641-0.3418l-3.0215-2.2266c-0.19153-0.1374-0.41645-0.21237-0.64649-0.21875zm-17.701 18.168c-0.0645-0.0026-0.12952 0.0013-0.19336 0.01172l-3.1172 0.52539c-0.12954 0.0184-0.2542 0.06403-0.36523 0.13477-0.11103 0.07074-0.2053 0.16639-0.2793 0.27734-0.0777 0.10621-0.13451 0.22732-0.16601 0.35742-0.0294 0.1301-0.0318 0.26486-8e-3 0.39648l0.52149 3.2793c0.0185 0.13257 0.0624 0.25944 0.13086 0.37305 0.0703 0.11361 0.16035 0.21025 0.26953 0.28516 0.21281 0.1576 0.47726 0.22475 0.73633 0.18359l3.125-0.52734c0.25907-0.04457 0.48898-0.19167 0.64257-0.41016 0.15355-0.2183 0.21844-0.48996 0.17774-0.75586l-0.52149-3.2773c-0.0204-0.13333-0.0664-0.26139-0.13671-0.375-0.0703-0.1136-0.16426-0.211-0.27344-0.28516-0.10547-0.07833-0.22388-0.13492-0.35156-0.16602-0.0629-0.01555-0.12687-0.02474-0.19141-0.02734z" />
  <path fill="var(--color-skin)" d="m216.36 102.42c3.3661 7.4185 9.123 19.695 12.28 26.498l12.348-14.908h10.407s-12.487 27.256-19.934 33.631c-0.58291 0.56063-1.2713 0.99343-2.0226 1.272-0.75131 0.27861-1.5507 0.39715-2.3483 0.3484-0.79756-0.0487-1.5766-0.264-2.2909-0.63232-0.71429-0.36813-1.3472-0.88191-1.8598-1.5095-3.0348-3.7604-5.8272-7.7187-8.3606-11.85-5.8957-9.338-8.5327-13.367-8.5327-13.367l-7.4224-31.996c6.4509-0.49766 13.065 2.2162 17.735 12.514z" />
  <path fill="#455a64" d="m254.48 94.207-0.98262-1.0547c-0.15173-0.12555-0.33124-0.21242-0.52184-0.25357-0.1906-0.04116-0.38861-0.03547-0.57736 0.0165l-11.954 2.0857c-0.60697 0.13921-1.1751 0.41156-1.6692 0.79827-0.49222 0.38671-0.89749 0.8785-1.188 1.4414l-10.753 23.95c-0.12028 0.19232-0.18689 0.41668-0.18689 0.64598 0 0.22911 0.0666 0.45348 0.18689 0.64578l1.0178 1.0902c0.15913 0.13599 0.34604 0.22893 0.5496 0.27046 0.2017 0.0414 0.4108 0.03 0.60696-0.0334l11.91-2.0739c0.60696-0.14129 1.1751-0.41573 1.6692-0.80453 0.49224-0.38861 0.8975-0.88229 1.1862-1.4469l10.753-23.95c0.26646-0.59249 0.26646-1.0666-0.0462-1.3272z" />
  <path fill="#263238" d="m227.85 122.27 10.753-23.962c0.29053-0.56196 0.69764-1.0528 1.1899-1.4395 0.49224-0.38652 1.0604-0.65944 1.6655-0.80017l11.956-2.062c1.1566-0.18966 1.6192 0.49766 1.1566 1.5524l-10.753 23.95c-0.28868 0.56461-0.69394 1.0585-1.1862 1.4471-0.49408 0.3888-1.0622 0.66323-1.6692 0.80453l-11.956 2.0739c-1.1103 0.17772-1.6303-0.52155-1.1566-1.5643z" />
  <path fill="var(--color-skin)" d="m248.83 117.9c4.9482-5.8185 4.8095-13.107 2.5315-15.216l-1.5026 3.3655s-7.5741 1.7301-11.216 1.4458c-3.6418-0.28449-6.6137-1.1852-7.6074-0.45044-2.117 1.5288-2.7295 8.0227 3.3291 10.393 5.1463 2.0028 14.465 0.4622 14.465 0.4622z" />
  <path fill="var(--color-skin)" d="m161.82 309.1c3.2032 1.7657 7.1004 1.6235 10.892 0l1.584-21.236-12.476 1.6709z" />
  <path fill="var(--color-skin)" d="m200.06 296.41c2.6943 5.9837 7.5741 4.3261 13.066 0.49691l-0.97151-21.331h-13.239z" />
  <path fill="#37474f" d="m173.86 308.17c0.0629 0.91036 0.22946 1.8093 0.49593 2.6799 0.63658 1.8643 1.4878 3.6471 2.5333 5.3085 0.52184 0.86484 1.0974 1.6956 1.7228 2.4883 1.2491 1.5173 2.798 2.7614 4.1155 4.2313 1.4138 1.3731 2.3187 3.2071 2.5556 5.1891 0.17395 3.319-3.342 4.4437-6.0474 4.9425-2.9256 0.52156-5.9272 0.36794-8.788-0.45138-1.5008-0.40398-2.8572-1.2423-3.9064-2.4144-1.0511-1.1721-1.7487-2.6287-2.0134-4.1971-0.1499-0.92554-0.0925-1.8719-0.20726-2.7975-0.36084-2.1166-1.2232-4.1099-2.5093-5.8054-0.75501-0.97484-1.4027-2.0331-1.9301-3.1521-0.84568-2.0635-0.17394-4.3735 0.36825-6.4124 0.46263-1.7657 0.99557-3.7685 1.597-3.5542-0.037 0.36225 0.0148 0.72829 0.1499 1.0659 0.198 0.32621 0.35715 0.67708 0.47372 1.0431 0.12214 0.46845 0.28498 0.92363 0.48669 1.3618 0.30163 0.68466 0.80682 1.2536 1.4452 1.6235 0-1.1835 0.0796-2.4997 0.11473-3.7552-0.0296-0.3888 0.0685-0.7776 0.27757-1.1019 0.28683-0.26931 0.65322-0.43242 1.04-0.46276 2.2706-0.55949 4.6096-0.75484 6.9375-0.58036 0.1758-7e-3 0.34975 0.0266 0.50889 0.0986 0.16099 0.0721 0.30348 0.18018 0.41637 0.31672 0.14063 0.25415 0.198 0.55001 0.16284 0.84019-0.0629 1.1645-0.0629 2.3309 0 3.4954z" />
  <path fill="#f5f5f5" d="m171.3 310.57c-0.48209 0.00725-0.96375 0.05563-1.4414 0.14453-1.6358 0.21431-3.2088 0.78233-4.6133 1.6699-0.17395 0.10432-0.30393 0.27156-0.36133 0.4707-0.05738 0.19725-0.03997 0.40984 0.04883 0.5957 0.05181 0.10241 0.12193 0.19563 0.20703 0.26953 0.08697 0.07591 0.1876 0.13002 0.29492 0.16602 0.10733 0.0359 0.21914 0.05046 0.33203 0.03906 0.11288-0.0094 0.22237-0.0426 0.32227-0.0957 0.32384-0.18965 0.69497-0.37925 1.0059-0.52149 1.2398-0.59743 2.5697-0.97293 3.9316-1.1133 1.3731-0.15172 2.7626 0.04497 4.0469 0.57031 0.41636-0.26171-0.01372-1.2922-0.64843-1.6602-1.0051-0.37032-2.0644-0.5511-3.125-0.53516zm1.8066 3.5898c-0.51019-0.00436-1.1005 0.01183-1.7812 0.06054-1.7099 0.13276-3.348 0.75772-4.7266 1.8027-0.10548 0.08155-0.191 0.18319-0.2539 0.30078-0.06113 0.11758-0.09843 0.24809-0.10742 0.38086-0.0092 0.13465 0.01044 0.26746 0.05664 0.39453 0.04626 0.12517 0.11843 0.23913 0.21093 0.33203 0.161 0.165 0.37396 0.26415 0.60157 0.28125 0.22576 0.01707 0.45156-0.0471 0.63476-0.18555 1.2546-0.85347 2.6984-1.3711 4.1973-1.5039 1.4804-0.1669 4.2321-0.1541 5.3887 0.76953 0.33495-1.0545-1.3066-2.1934-1.3066-2.1934s-0.70324-0.4206-2.9141-0.43945zm1.8418 3.5508c-0.37469 0.00412-0.7864 0.02025-1.2402 0.05273-1.7506 0.17258-3.4195 0.84306-4.8203 1.9336-0.10733 0.07776-0.19692 0.17929-0.26172 0.29687-0.06483 0.11759-0.10433 0.24821-0.11133 0.38477-0.0092 0.13466 0.01245 0.2694 0.06055 0.39648 0.04811 0.12518 0.12255 0.23908 0.21875 0.33008 0.15914 0.1688 0.372 0.27211 0.5996 0.29101 0.22761 0.01896 0.45363-0.04509 0.63868-0.18164 1.201-0.8895 2.6071-1.4422 4.0801-1.6016 1.4804-0.15363 4.442-0.2853 5.9668 0.62695-0.12768-0.4419-0.35082-0.84812-0.65429-1.1914-0.30163-0.34328-0.67544-0.61067-1.0918-0.78516 0 0-0.76193-0.5816-3.3848-0.55273z" />
  <path fill="#37474f" d="m210.94 291.34 1.5378-0.61639c0.27202-0.14224 0.58475-0.17638 0.87899-0.0948 0.3812 0.14225 0.53109 0.60311 0.63657 1.0071 0.13694 0.89898 0.35344 1.7828 0.64582 2.6419 0.43857 0.70174 1.003 1.3086 1.6655 1.7904 1.473 1.2138 3.0663 2.2664 4.7521 3.1408 1.943 1.0659 3.8398 1.8947 5.8513 2.8202 2.0115 0.92364 4.7521 1.5154 6.3472 2.6306 2.3131 1.6121 2.637 5.6518 0 7.2525-2.3113 1.375-8.3125 2.8676-14.637 1.0298-3.4697-0.99571-7.2614-4.7396-11.782-5.1303-2.8794-0.22569-8.3143-1.0545-10.163-3.2944-0.68283-0.9957 0.23132-4.1364 0.97152-6.8505 0.81978-2.9738 1.1547-7.6072 2.0911-7.3474 0.0703 0.98433 0.90304 1.5647 1.4119 2.3707 0.39601 0.76433 0.74021 1.5552 1.0289 2.3707 0.28682 0.81553 0.81236 1.523 1.5026 2.0256 0.34605 0.24087 0.76056 0.35845 1.1788 0.3357 0.41636-0.0228 0.81608-0.18776 1.1344-0.46656 0.84382-0.90088 0.34604-2.4769 0.95855-3.5542 0.49963-0.68277 1.2158-1.1645 2.0244-1.3636z" />
  <path fill="#f5f5f5" d="m215.71 296.15c-1.3376 0.03864-3.2666 0.92708-4.5215 1.9941-0.13694 0.1138-0.24413 0.25883-0.31445 0.42383-0.0685 0.16691-0.09472 0.34718-0.07812 0.52735 0.01479 0.18017 0.07377 0.35407 0.17187 0.5039s0.22933 0.27209 0.38477 0.35742c0.19246 0.11 0.41454 0.15552 0.63476 0.13086 0.2202-0.0266 0.42515-0.1217 0.58984-0.27343 1.5822-1.468 3.6594-2.2457 5.793-2.168-0.20912-0.40396-0.51085-0.74788-0.88281-1.0039-0.37195-0.25415-0.80002-0.4095-1.2441-0.45312-0.16331-0.03106-0.34212-0.04459-0.5332-0.03907zm4.1855 2.4922c-2.0133 0.0948-3.9469 0.83711-5.5254 2.1211-0.13139 0.11-0.23416 0.24888-0.30078 0.4082-0.0666 0.15931-0.09498 0.33327-0.08008 0.50586 0.0129 0.17259 0.06556 0.33834 0.15625 0.48437 0.0907 0.14604 0.21525 0.26823 0.36329 0.35547 0.18135 0.10242 0.39039 0.14582 0.59765 0.12305 0.20726-0.0228 0.4013-0.11166 0.5586-0.25391 0.87342-0.89898 1.936-1.5808 3.1055-2 1.1695-0.41914 2.4178-0.56211 3.6484-0.41797-0.28683-0.41156-0.66495-0.74713-1.1035-0.97851-0.43857-0.22948-0.92584-0.34955-1.4199-0.34766zm4.3945 2.2402c-1.943 0.11949-3.796 0.87002-5.2949 2.1445-0.1314 0.1081-0.23611 0.24889-0.30273 0.4082-0.0666 0.15932-0.09103 0.33327-0.07813 0.50586s0.06757 0.3403 0.15821 0.48633c0.0907 0.14604 0.21514 0.26621 0.36133 0.35156 0.18505 0.10052 0.39419 0.13989 0.59961 0.11523 0.20724-0.02459 0.40119-0.11355 0.55664-0.2539 0.83086-0.92743 1.8624-1.6442 3.0098-2.0918 1.1492-0.44569 2.3822-0.60943 3.6035-0.48047-0.32938-0.37741-0.73013-0.67797-1.1816-0.88281-0.44968-0.20483-0.9394-0.30653-1.4316-0.30273z" />
  <path fill="#37474f" d="m163.45 149.25c-0.74019 23.239-0.68099 79.397-0.68099 79.397-0.24425 2.8923-1.3879 8.8286-2.3131 20.396-1.225 15.061 1.4212 48.16 1.4212 48.16 1.8672 0.8326 3.8787 1.2669 5.9142 1.2802 2.0356 0.0114 4.0508-0.40018 5.9272-1.21 0 0 7.0763-47.128 9.2729-62.013 1.9763-13.035 5.8494-42.472 5.8494-42.472l4.4764 38.205c-0.61436 6.363-0.46262 12.779 0.44968 19.104 1.0418 6.8486 5.6662 35.005 5.6662 35.005 4.3357 1.119 8.8935 0.9426 13.135-0.51018 0 0 0.42747-48.788 0.55515-55.128 0.12769-7.2393-3.1329-85.95-3.1329-85.95z" />
  <path fill="#fafafa" d="m208.84 107.76c-0.99372-7.442-1.9541-17.444-13.205-17.906l-14.521 0.71103c-3.5733 0.95986-17.472 2.6427-17.472 2.6427l-0.26463 32.28s-0.87898 23.274-0.61252 35.729c10.405 6.7547 33.009 8.9471 47.221-2.1094 0.42746-10.274-0.15174-43.977-1.1455-51.348z" />
  <path fill="#37474f" d="m206.98 51.569c0.97522 1.7629 1.5859 3.7129 1.7931 5.7284 0.20541 2.0155 4e-3 4.053-0.59216 5.9851-0.59771 1.9321-1.5766 3.7171-2.8775 5.2435-1.3009 1.5264-2.8942 2.761-4.6818 3.6272l2.6129 1.8486-26.109 2.3702 0.33494 6.4465c-1.164-0.32488-2.1632-1.0974-2.7869-2.1566-0.93636-1.7183-3.4678-12.265-3.4678-12.265-2.4519-5.7594-3.6547-11.684-1.8968-13.652 0.68839-0.77988 1.5988-1.3187 2.6018-1.5404l-3.4678-1.7894c0.14989-0.35258 0.37011-0.67006 0.64398-0.93331 0.27573-0.26325 0.59956-0.46675 0.95116-0.59856 0.35345-0.13181 0.7291-0.1889 1.1048-0.16804 0.37565 0.02086 0.7439 0.11949 1.0807 0.28961 0.29424 0.15362 0.55886 0.35808 0.78647 0.60444-0.0888-0.38956-0.14805-0.78594-0.17395-1.185-0.11658-1.1753 0.15544-2.3567 0.77536-3.3537 0.49778-0.66987 1.1233-1.2301 1.8376-1.6472 2.9368-1.8843 6.4176-2.5833 9.6892-3.7685 1.8505-0.67537 3.6418-1.5049 5.4701-2.2634 1.1862-0.60842 2.5185-0.85517 3.8379-0.71103 0.66619 0.11322 1.2602 0.49273 1.6525 1.0549 0.39231 0.56234 0.5496 1.2612 0.44042 1.9432 0.71799-0.66817 1.6118-1.1044 2.5704-1.254 0.95856-0.14964 1.9375-0.0061 2.8183 0.4127 0.82904 0.35258 1.5285 0.96309 2.0022 1.7454 0.47373 0.78253 0.69394 1.6973 0.63287 2.6156 1.1843-0.30194 2.4334-0.17638 3.5382 0.35542 0.5459 0.2695 1.003 0.69984 1.3102 1.236 0.30534 0.53598 0.44967 1.1537 0.41266 1.7741-0.45522 1.6381-1.4637 3.0575-2.8442 4.0054z" />
  <path fill="var(--color-skin)" d="m188.6 55.338c-2.4038-0.29625-4.7872-0.69927-7.1688-1.0784-0.10548-0.03205-0.21651-0.04116-0.32569-0.02693s-0.21466 0.05178-0.30903 0.10981c-0.10363 0.09748-0.1721 0.22645-0.19801 0.36737-1.5711 4.7401-1.5248 9.7767-2.7739 14.552-0.11658 0.43849-0.38121 1.185-0.8901 1.185-0.92525 0.10678-1.5618-0.73455-1.9541-1.4693l-0.8901-1.6474c-0.18505-0.30763-0.40711-0.59041-0.66063-0.84133-1.1547-1.0547-4.4283-2.37-5.966 1.2561-1.5378 3.6263 1.758 8.5086 4.4172 9.2671 4.6244 1.3155 5.1925-1.7065 5.1925-1.7065l0.87898 16.828c4.0693 4.361 17.447 2.8441 14.798-0.94791l-0.17209-5.1194c2.0392 0.2678 4.1026 0.30744 6.1511 0.11854 3.3291-0.63991 5.3406-3.4129 6.2436-7.1103 1.4452-6.0199 1.2824-13.379 0.1499-22.516-0.1388-1.083-0.41452-2.1428-0.82163-3.1523-4.6818 2.6782-10.383 2.5833-15.702 1.9317z" />
  <path fill="#263238" d="m202.02 65.471c-0.31829 0.009293-0.6258 0.11359-0.88672 0.30078-0.25907 0.18738-0.45958 0.44869-0.57617 0.75195-0.1166 0.30307-0.14277 0.63488-0.07617 0.95312 0.06661 0.31844 0.2255 0.61011 0.45312 0.83789 0.22575 0.22778 0.51333 0.38191 0.82422 0.44336 0.31273 0.061634 0.63546 0.027519 0.92969-0.097656 0.29238-0.12498 0.54295-0.3354 0.71875-0.60547 0.17762-0.27026 0.27339-0.58861 0.27539-0.91406-0.00555-0.4474-0.18141-0.87437-0.49414-1.1875-0.31273-0.31294-0.7331-0.48562-1.168-0.48242zm-12.178 0.011719c-0.31458 0.009294-0.61984 0.11277-0.8789 0.29883-0.25723 0.18606-0.4556 0.44511-0.57032 0.74609-0.1147 0.30099-0.14081 0.6313-0.07421 0.94726 0.06661 0.31616 0.22139 0.60401 0.44531 0.83008 0.22575 0.22626 0.51137 0.38015 0.82226 0.44141 0.30903 0.061066 0.6295 0.026569 0.92188-0.097656 0.29053-0.12404 0.53905-0.3332 0.71484-0.60156 0.17578-0.26818 0.26944-0.58288 0.27344-0.90625-0.0074-0.44418-0.18511-0.86884-0.49414-1.1797-0.30903-0.31085-0.72714-0.48172-1.1602-0.47852z" />
  <path fill="#263238" d="m187.59 59.102c-0.24242 0-0.48107 0.049005-0.70312 0.14648-0.44967 0.21033-0.80313 0.59038-0.98633 1.0605-0.18305 0.46997-0.18125 0.99525 0.00195 1.4648l3.3672-1.4824c-0.08512-0.23214-0.21626-0.44382-0.38281-0.62305-0.16655-0.17923-0.36974-0.32244-0.5918-0.41992-0.22391-0.097484-0.46267-0.14648-0.70508-0.14648zm15.547 0.076172c-0.23686 0.001517-0.46914 0.052721-0.6875 0.15039-0.21651 0.097675-0.41128 0.24026-0.57227 0.41797-0.161 0.17771-0.28563 0.3867-0.36523 0.61523l3.3535 1.3164c0.15356-0.45499 0.13192-0.95214-0.06054-1.3906-0.1943-0.43849-0.54365-0.78434-0.97852-0.9668-0.21836-0.094834-0.45258-0.14428-0.68945-0.14258z" />
  <path fill="#b16668" d="m189.56 76.088 5.2721 1.8368c-0.10178 0.36092-0.27202 0.697-0.50334 0.9885-0.23131 0.2915-0.51629 0.53237-0.84013 0.70818-0.32383 0.17581-0.67913 0.28297-1.0437 0.31521-0.36455 0.03225-0.73281-0.01119-1.0807-0.12764-0.7143-0.25888-1.3009-0.79182-1.6377-1.4864-0.33678-0.69434-0.396-1.4958-0.16653-2.2347z" />
  <path fill="var(--color-skin)" d="m195.82 66.631 0.24426 9.1011 4.9482-1.4695-4.6244-7.7028c-0.19246-0.01858-0.38491 0.0057-0.56811 0.07112z" />
  <path fill="var(--color-skin)" d="m140.6 134.23c10.844-28.228 13.214-37.009 20.87-40.291 2.017-0.79448 4.1433-1.2584 6.301-1.3746 1.8838 3.5551 4.6244 17.207-4.4172 26.711 0 0-6.5674 16.591-9.8743 24.436 0.10363 7.8924-0.45152 14.469 1.8968 25.134 0.47743 1.4414 1.3934 2.6875 2.6129 3.5561 2.7517 1.5514 3.2143 3.3058 5.2499 5.3086 1.584 1.5647 2.9719 1.9307 2.7406 2.4523-0.35899 0.57656-0.89564 1.0147-1.523 1.2423-0.62917 0.22759-1.3139 0.23328-1.9467 0.0151-1.4878-0.62587-2.9164-1.3902-4.2673-2.2873-0.26462 0.31863 2.3131 4.5272 4.9834 7.5958 3.9675 4.5139 4.926 7.7741-2.9941 8.0927-4.9594 0.20293-10.313-3.9696-13.679-14.101-0.65879-2.0028-1.3527-4.8951-2.0578-7.7153-0.50889-1.1854-4.1396-20.216-4.902-26.07-1.0178-7.2288-0.7624-8.1176 1.0067-12.704z" />
  <path fill="var(--primary-500)" d="m192.7 89.715v0.57031c0.46262 0.02939 0.91279 0.16798 1.3125 0.4043 0.40156 0.2365 0.74473 0.56292 1.002 0.95703 2.8072 4.3688 4.9135 9.1697 6.2422 14.221 2.3131 9.1603 2.7648 29.628 2.8906 40.637 0.12768 11.009 0 19.896 0 19.896s5.4348-1.3051 7.1113-4.0898c0 0-0.13479-18.867-0.35938-32.84 2.1285-0.67673 4.134-1.7301 5.9102-3.1367 2.8683-2.212 5.3667-4.8851 7.4004-7.916 0 0-3.9542-7.8105-6.5098-13.973-1.8116-4.5563-4.64-8.6138-8.2559-11.85-3.6491-3.2713-7.7926-2.9117-11.643-2.7441-1.3838-0.13671-3.0407-0.1698-5.1016-0.13672z" />
  <path fill="var(--primary-500)" d="m177.93 91.127-9.582 1.3867c-3.0471-0.28608-6.1142 0.33306-8.8242 1.8125-4.2894 2.6545-5.7827 4.9761-10.951 17.324-5.1684 12.348-6.1856 14.73-6.1856 14.73s2.3124 7.0398 16.117 7.8457l3.1191-7.2891 0.58008 6.7324-0.73828 29.246c5.781 9.2322 23.125 7.5254 23.125 7.5254s0.49658-13.155-0.0586-38.562c-0.34789-14.244-0.50726-23.464-1.9766-29.863-1.1547-5.0246-3.5499-8.2934-4.625-10.889z" />
</svg>