<svg fill="none" viewBox="0 0 500 500" xmlns="http://www.w3.org/2000/svg">
  <defs>
    <style>
      /* Light Scheme */
      :root {
        --base-100: #FFFFFF;
        --ground-500: #f5f5f5;
        --ground-600: #e0e0e0;
        --ground-700: #dbdbdb;
        --ground-800: #cccccc;
        --primary-500: #d70718;
        --color-black: #000000;
        --color-white: #ffffff;
      }

      /* Dark Scheme */
      @media (prefers-color-scheme: dark) {
        :root {
          --base-100: #1f2937;
          --ground-500: #c5c5c5;
          --ground-600: #a7a7a7;
          --ground-700: #acacac;
          --ground-800: #e0e0e0;
        }
      }
    </style>
  </defs>

  <path fill="var(--ground-800)" d="m397.21 215.06c-4.4338 2.1945-7.4914 6.9-9.0716 11.9-1.5819 5.0005-1.8783 10.364-2.1675 15.65l-0.11917 1.7307c-8.2e-4 -3e-3 -2e-3 -0.17382-3e-3 -0.17382-8e-3 0-0.0122 1.7613-0.0203 2.0155-1.8676-5.9636-2.0718-13.515-5.3524-18.698-2.3014-3.6354-5.9814-6.1188-7.9657-9.9738-1.1951 3.696-1.0286 7.7527 0.46618 11.32 1.4983 3.5218 3.5596 6.731 6.084 9.4745 2.4335 2.8543 4.511 4.9442 6.768 7.9176-0.0789 2.737-0.13833 17.545-0.17696 38.612-0.0426-0.15034-0.0878-0.29921-0.13605-0.44747-0.31955-1.6082-0.82767-3.9006-1.4257-6.4865-0.29826-1.289-0.52937-2.1824-0.79623-3.2765 3.1112-8.4489 1.8069-17.186-2.1437-25.314-2.0732 3.8456-2.4386 8.5504-1.834 12.951 0.58825 4.2679 2.0275 8.3381 3.4844 12.359 0.2483 1.1352 0.44244 2.0922 0.75539 3.4244 0.27455 1.358 0.58837 2.7049 0.93575 4.042-0.17854-0.3096-0.36951-0.61444-0.57506-0.90605-0.58985-0.93376-1.3204-1.7419-2.1165-2.4703-2.2259-3.3554-4.7159-7.5972-7.639-9.9701-2.5111-2.0399-5.6553-3.4695-8.7756-3.406-0.72007 0.0152-1.4376 0.1079-2.1471 0.29216 1.9617 3.7338 4.6968 6.9224 7.9895 9.3081 3.1569 2.2873 6.7462 3.7517 10.497 4.3379 0.63024 0.70538 1.2188 1.4557 1.7592 2.2448 0.87496 1.3494 1.4764 2.6759 1.8783 3.6537 0.0932 0.30546 0.18881 0.60931 0.28582 0.91343-0.0202 11.434-0.0352 23.588-0.0374 37.954-0.12474-0.21359-0.25993-0.41886-0.40493-0.61759-0.4913-0.78198-1.2452-1.8911-2.1233-3.2543-1.335-2.0248-3.1605-4.6567-5.1517-7.4554-0.47531-1.0578-1.0372-2.4608-1.4632-4.0938-0.023-0.0859-0.0423-0.1727-0.0647-0.25888 0.20695-4.4169 1.3835-8.9235 1.7626-13.309 0.40419-4.6748 0.14774-9.6858-2.2322-13.609-3.1511 8.2422-3.5228 17.482-0.3811 25.669 0.1052 0.57954 0.23752 1.1532 0.3981 1.7196 0.15332 0.66007 0.35143 1.3051 0.58866 1.9304-0.27292-0.37722-0.4993-0.70781-0.7792-1.0909-2.9321-4.0178-5.6826-7.5863-7.7105-10.125-0.97327-1.2219-1.76-2.1795-2.3445-2.8734 1.1082-11.367-1.4282-22.804-7.1831-32.377-2.8652 10.417-0.30351 24.016 6.6012 31.948-4.1158-2.928-8.3616-5.8346-13.141-7.0412-4.9879-1.261-10.781-0.33262-14.267 3.761 4.0471 2.577 8.9464 2.8623 13.635 2.8623 0.40076 0 0.84099 8e-3 1.2556 8e-3 -1.1514 0.0874-2.3 0.25309-3.4401 0.49555-2.0439-0.19011-4.0635-0.39358-6.0602-0.41418-2.3169-0.0238-4.6088 0.1975-6.9007 0.9615-4.5837 1.5261-8.7834 4.989-10.627 9.7889 4.4826 0.40708 8.9851-0.49582 13.039-2.6146 3.9303-2.1073 7.6821-4.5852 11.219-7.3962 4.9332-0.75366 9.967-0.23424 14.693 1.5199 1.4432 0.53684 2.4655 1.0049 2.9025 1.176l0.34026 0.45486c0.28779 0.38321 0.80093 1.0828 1.1195 1.5088-0.29716-0.23992-0.62873-0.43256-0.98337-0.56579-1.8798-0.74223-3.8973-0.97927-5.8799-0.69525-0.5256 0.0427-1.0506 0.10453-1.5721 0.1812-0.24963-2e-3 -0.49921-3e-3 -0.74857 0-4.5739 0.0643-9.0974 1.1038-13.311 3.0546-4.4948 2.0828-8.5408 5.1585-11.879 9.0382 4.8642 0.82931 9.8696-0.53531 14.295-2.8623 4.3281-2.2769 8.1821-5.496 11.988-8.6979 0.41985-0.0517 0.84099-0.0939 1.2624-0.1295 1.9129-0.27267 3.8595-0.10811 5.7097 0.48444 0.62233 0.28894 1.215 0.64979 1.7694 1.0725 1.7392 2.3309 3.5578 4.7678 5.805 7.84 2.9338 4.0084 5.5515 7.6815 7.4383 10.344l2.256 3.1323c0.17249 0.26857 0.36798 0.51982 0.57167 0.7618-5e-4 3.3694-0.0105 5.4209-0.0105 8.894 5e-3 26.653 0.0465 49.843 0.10541 66.152-0.0572-0.36396-0.12213-0.7288-0.20076-1.0872-0.53659-2.4255-1.3104-4.779-2.3104-7.0227-2.1891-5.0723-6.0629-11.331-11.011-17.684 0.31931-0.66257 0.35311-0.98006 0.73839-1.8897 0.39896-0.93535 0.84912-1.8434 1.3509-2.7181 2.1168-3.6259 2.5584-8.1389 3.3755-12.348 0.49653-2.2607 0.82318-4.5627 0.97998-6.8822 0.15156-2.3289-0.22283-4.6614-1.0957-6.7934-0.0784-0.24615-0.23835-0.44826-0.44916-0.57322-0.061-0.0152-0.12125-0.0247-0.18374-0.0259-0.0625-8.5e-4 -0.12525 6e-3 -0.18715 0.0189-0.1237 0.0247-0.24253 0.076-0.34707 0.15166-2.5906 1.422-3.8816 4.6363-4.6447 7.681-1.8959 7.578-1.8021 15.57 0.2348 23.095-0.55775-0.71176-1.1176-1.4253-1.7014-2.1375-2.8391-3.524-5.5844-6.8222-7.9453-9.9812 5.1157-9.1134 6.0743-20.692 3.4129-30.968-2.9216 4.4666-4.7732 9.6558-5.3864 15.096-0.59077 5.2404-3e-3 10.552 1.6877 15.495-2.1047-2.7857-4.0298-5.7311-5.7506-8.8126-1.169-2.1188-2.1881-4.3325-3.0522-6.6159-0.15645-0.42099-0.12492-0.33342-0.2382-0.65457 2.9956-4.7388 5.2773-9.9658 6.7441-15.491 0.95819-3.6164 1.5444-7.6053 0.18374-11.068-3.6271 2.6243-5.9348 7.0422-6.9279 11.653-0.84646 4.6547-0.90964 9.438-0.18375 14.119-0.0444-0.0301-0.0914-0.0553-0.13605-0.0851-0.0594-0.16928-0.1948-0.55448-0.22459-0.62127-1.633-10.615-7.7322-19.192-15.561-25.809-0.8345 1.1247-0.75306 2.7553-0.48999 4.1678 1.0157 4.6824 3.1577 8.9879 6.2065 12.474 3.021 3.449 6.3125 6.6014 9.8406 9.4228 5e-3 0.0152 5e-3 0.0299 0.0105 0.0443 0.0139 0.0508 0.0522 0.1687 0.0681 0.22558-4.5457-3.0106-9.6532-4.8889-14.951-5.4843-2.5018-0.2859-5.2668-0.20297-7.2512 1.4386-0.22996 0.14769-0.42057 0.36206-0.55124 0.61389-0.13066 0.25371-0.19745 0.53868-0.19395 0.82837 0.12369 0.39951 0.37667 0.73827 0.71117 0.95411 6.1585 5.1106 15.435 5.7996 22.356 2.0414 0.0637 0.21789 0.13746 0.45557 0.22459 0.73219l3e-3 0.0517c3e-3 -3e-3 3e-3 -0.01 6e-3 -0.0152 0.0629 0.19902 0.0852 0.2947 0.15994 0.52146 0.79268 2.3364 1.7713 4.5925 2.9229 6.7453 1.2837 2.3823 2.6918 4.6831 4.2159 6.8896-4.5185 0.71625-8.4787 3.3254-11.889 6.6788-3.5209 3.4858-5.976 8.0638-7.0266 13.113 4.6097-0.30484 8.5204-3.8156 11.348-7.7956 2.7719-3.8997 4.7206-8.1209 7.7241-11.775 0.46419 0.66659 0.93701 1.3259 1.4223 1.9748 2.3972 3.2548 5.2061 6.6516 8.112 10.259 0.84993 1.0372 1.6108 2.0634 2.4057 3.0953-0.47922-0.0275-0.95804-0.0434-1.4359-0.0369-3.7417 0.0503-7.4185 1.1389-10.678 3.1767-3.7248 2.3289-6.7381 5.7952-8.6667 9.9664-0.26481 0.56424-0.49488 1.2806-0.14285 1.7862 0.17944 0.19125 0.40094 0.33287 0.6431 0.41049 0.24217 0.0795 0.49781 0.0899 0.7452 0.0369 4.1272-0.29728 7.7895-2.9861 10.81-6.0686 2.9674-3.0296 5.5694-6.4923 8.8266-9.138 4.6347 6.0324 8.3437 11.9 10.49 16.678 1.0244 2.2058 1.8454 4.5131 2.45 6.897 0.19493 0.79759 0.32185 1.4171 0.40831 1.8638 0.0492 13.195 0.10784 22.022 0.17021 22.022 0.0615 0 0.10593-9.2767 0.14287-21.46 0.25157-0.44613 0.49298-0.89878 0.69073-1.3757 0.51743-1.0679 1.3086-2.6052 2.3887-4.4266 1.8276-3.1345 4.7075-6.9705 7.8738-11.25 0.24079-0.22867 0.5024-0.46559 0.80301-0.71741 1.3163-1.093 2.7355-2.0244 4.233-2.781 9.1619 2.4212 19.573-0.12837 27.167-6.2091-4.6133-2.522-9.891-3.2259-14.928-1.9933-4.8074 1.1971-9.2121 3.5052-12.308 7.6255-1.3616 0.69605-2.6521 1.5507-3.845 2.5554 0.17652-0.23995 0.3429-0.46374 0.52062-0.70634 1.9059-2.5959 3.7769-5.01 5.594-7.1004 0.25517-0.29579 0.52083-0.58029 0.78261-0.86905 1.077-0.5414 2.407-0.78697 3.4741-1.0096 4.1185-0.85962 8.29-1.7658 12.022-3.8164 3.3419-1.8381 6.3407-4.7643 7.7513-8.5019 0.40292 0.12269 0.80815 0.24095 1.2148 0.35132 0.67597 0.18176 1.5725 0.25997 1.9157-0.41788 0.34146-0.67785-0.0828-1.2913-0.46957-1.8158-2.8676-3.6543-6.5882-6.3984-10.773-7.9472-3.8676-1.5656-7.244-3.4265-11.702-3.2987-0.095 3e-3 -0.1935 0.01-0.28924 0.0152-0.17039-6e-3 -0.33959-8e-3 -0.51042-8e-3 -0.94374 0.0133-1.8729 0.20552-2.7426 0.56581 1.39-1.3314 2.8266-2.6086 4.3044-3.8239 1.2493-0.95232 2.4171-1.8854 3.5796-2.6848 8.293 1.5066 15.401 7.2414 23.183 10.75 1.6551 0.8672 3.4891 1.2514 5.3218 1.1094 0.85367-6e-3 1.6884-0.29805 2.3853-0.83578 0.69861-0.53584 1.2267-1.2923 1.5142-2.1671 0.28746-0.87477 0.31844-1.8225 0.0918-2.7181-0.22475-0.89559-0.69749-1.6965-1.3543-2.2891-1.1167-1.1228-2.4334-1.9876-3.8655-2.5443-4.84-2.1908-9.8734-3.1803-14.965-3.2062-3.925-0.0201-7.8846 0.53194-11.814 1.5458 0.59154-0.41457 1.164-0.83407 1.7354-1.1945l1.1705-0.72114c12.044 0.15715 24.232-9.235 28.719-21.371-11.464 1.225-22.78 9.8496-28.566 20.724l-1.6027 0.95781c-0.61499 0.37112-1.2216 0.82015-1.8715 1.25-1.3084 0.83879-2.6178 1.8779-4.022 2.9363-3.5143 2.8004-6.744 5.9812-9.667 9.4708 0.34822-0.90411 0.57551-1.8593 0.67714-2.8364 0.095-0.90061 0.0824-1.8088-0.0339-2.7033 1.3558-5.0537 2.6889-10.145 3.0624-15.399 0.38502-5.4379-0.3323-11.1-2.9229-15.758-4.7972 10.079-5.3202 21.847-0.57165 31.933 0.0189 0.5777 5e-3 1.2013-0.0613 1.8602-0.16951 1.668-0.65708 3.0502-1.0208 3.9533-1.7268 2.1457-3.3423 4.4008-4.825 6.7638-0.93032 1.5545-1.8461 3.0133-2.5656 4.4636-0.37805 0.71566-0.76499 1.3947-1.0821 2.082l-0.87789 1.9637c-0.60627 1.2421-1.0264 2.4282-1.4393 3.4392-0.36063 0.86909-0.67741 1.7576-0.95616 2.6626-0.18708 0.58575-0.33277 1.0362-0.46277 1.4534 0.0213-13.495 0.0444-26.488 0.0407-43.464-8.3e-4 -5.0825-0.0139-8.164-0.0174-13.014 0.0564-0.18271 0.12334-0.38847 0.21095-0.62127 0.53834-1.3065 1.3442-2.46 2.3547-3.3764 2.5384-2.3857 6.9455-4.2094 11.712-6.3755 0.71909-0.32665 1.3423-0.56455 2.0416-0.86907 3.3796 3.2634 7.3126 5.78 11.6 7.3592 4.4599 1.6435 9.1845 2.2573 13.876 1.801 0.43381 3e-3 0.85488-0.16113 1.1842-0.46596 0.64983-0.76304-0.13049-1.9561-0.87791-2.596-5.71-4.8453-12.328-7.5598-19.225-7.5109-1.36 0.01-2.7305 0.13729-4.107 0.36612 1.5415-0.641 2.9373-1.2198 4.2874-1.7418 5.3209 1.4542 10.831 1.9354 16.299 1.3942 5.69-0.66649 11.336-2.9876 15.411-7.3481-3.7322-1.2874-7.6207-1.9028-11.511-1.8343-1.7684 0.0311-3.5393 0.20294-5.2946 0.51773-5.4888 0.98219-10.689 3.3382-15.203 6.8637-2.6289 0.97109-5.5043 2.1003-8.7007 3.528-2.3867 1.0679-4.6448 2.1393-6.6727 3.1693-1.4988 0.71177-2.9099 1.622-4.2126 2.6922l0.54102-0.66936c0.92336-1.1455 2.2757-2.7957 3.9778-4.7706 3.4164-3.98 8.3423-9.2489 14.05-14.774l1.4121-1.3683c5.5947 0.65757 11.262 1.0578 16.809 0.0517 5.6812-1.03 10.853-3.4166 16.061-5.8023 0.45471-0.14201 0.84304-0.46316 1.0956-0.89865 0.0802-0.26506 0.0847-0.5466 0.0139-0.81358-0.0696-0.26697-0.21145-0.50435-0.40832-0.68044-0.40244-0.3446-0.86962-0.58533-1.3679-0.69894-5.6638-1.7192-11.784-0.95477-17.361 1.1242-4.8113 1.779-9.4542 4.053-13.873 6.7786l7.6322-7.3962c11.299-4.5569 21.764-11.272 30.896-19.822-3.6969-1.6132-7.9036-0.64964-11.644 0.9541-8.305 3.6484-15.12 9.7648-19.286 18.357-3.1969 3.0286-6.315 5.9711-10.331 9.8332-1.8732 1.7938-3.7014 3.6397-5.5056 5.5139 0.27995-0.4462 0.53259-0.9116 0.72139-1.4127 0.66725-1.5545 1.2523-3.146 1.7558-4.7706 0.55886-1.6148 0.89604-3.299 1.1161-5.0035 5.0608-3.4481 8.8751-7.9266 12.406-13.176 2.4843-3.6941 4.5847-8.1294 4.022-12.662-3.5122-0.0776-6.815 2.0145-9.0886 4.8963-2.1673 2.9935-3.7426 6.4389-4.6277 10.125-0.85933 3.097-1.499 6.27-2.4023 9.3488-0.65984-7.936-0.22894-14.337-0.74179-22.403 0-0.65891-0.16864-1.4626-0.73839-1.7011-0.0999-0.0419-0.1975-0.0617-0.29262-0.0629-0.66583-8e-3 -1.2025 0.91021-1.4632 1.6789-1.0976 3.8436-1.371 7.9076-0.80304 11.886 0.53802 3.7667 1.8406 7.3491 3.7736 10.525-0.28194 1.0794-0.81581 3.5571-1.7047 6.3681-1.0823 3.4273-2.1072 6.0926-2.1879 6.6307-2.8204 2.9412-5.5661 5.9678-8.2107 9.0973-1.676 2.043-2.984 3.7108-3.8621 4.9037-0.38948 0.5241-0.65516 0.91879-0.87108 1.2315-0.12683 0.11077-0.26001 0.21134-0.3845 0.32544-1.0279 0.98079-1.8159 2.2159-2.3002 3.6056-7.9e-4 2e-3 -2e-3 6e-3 -3e-3 8e-3 -0.0122-17.483-0.0446-31.939-0.0782-44.699 4.4224-2.7262 8.2738-6.4272 11.307-10.861 3.0349-4.4363 5.1814-9.5128 6.3086-14.903-3.5262 0.34082-6.7892 2.1815-9.0784 5.1182-2.2579 2.9178-3.9972 6.2651-5.1279 9.8739-1.1812 3.3853-2.13 6.8788-3.4095 10.225-0.0381-14.295-0.0885-21.468-0.14634-24.903-0.0122-0.68155-0.0181-4.8875-0.0306-4.9406 1.5726-5.1112 4.7146-9.4233 7.3294-14.038 2.615-4.618 4.7744-9.9357 4.0288-15.269zm-11.328 34.248 0.0239-0.0369c7.3189-2.4747 14.1-6.5427 19.926-11.956 0.97562-0.92589 2.0276-2.1751 1.7558-3.5687-0.14808-0.50933-0.43003-0.96281-0.80983-1.3017-0.38154-0.33893-0.84431-0.54968-1.3339-0.60648-0.99478-0.0985-1.9978 0.0644-2.9229 0.47705-7.4548 2.7682-14.355 8.7961-16.639 16.993zm19.889 38.227c0.0186 0.0298 0.0343 0.0615 0.0511 0.0924-0.0368 0.1227-0.078 0.2438-0.11568 0.36612 0.0157-0.15412 0.0524-0.30419 0.0647-0.45857zm-47.896 8.4317c2.8233 0.16397 5.6475 0.52528 8.0916 1.4238l1.2658 1.6937c-0.10853-0.0687-0.21864-0.13367-0.33347-0.18858-0.72648-0.42034-1.4757-0.78953-2.2458-1.1057-2.1922-0.91652-4.47-1.5255-6.7782-1.8232zm-5.07 48.024 0.0139 0.21817c-0.0247-0.0717-0.0463-0.12571-0.0681-0.18857 0.0181-0.01 0.0364-0.0195 0.0543-0.0296zm54.845 3.5724c0.0716 0 0.14285 2e-3 0.21435 3e-3 1.632 0.61186 2.3291 1.6217 3.743 2.9289 4.0993 3.788 8.7951 6.7127 13.846 8.6536-8.3727 1.4488-16.392 6.6566-21.131 14.234-0.1486 0.16492-0.30291 0.32437-0.44915 0.49185-1.8519 2.079-3.7406 4.5008-5.6553 7.0966-0.0448 0.0614-0.0812 0.11267-0.12596 0.17382 0.42607-0.85812 0.79895-1.7485 1.1127-2.6626 0.0788-0.23641 0.1507-0.47449 0.22118-0.71374 4.2972-6.9055 6.7741-14.963 7.1252-23.298 0.0453-0.96376-0.19039-2.2409-1.0684-2.3261-0.0725-0.0114-0.14547-0.0114-0.21437-3e-3 -0.48263 0.0524-0.8754 0.52207-1.1909 0.95781-4.651 6.5783-6.7564 16.187-5.07 24.311-0.0863 0.28423-0.17825 0.57006-0.27904 0.86166-0.7197 2.0814-1.5713 3.8062-2.045 4.8038-3.1712 4.3133-6.1018 8.2957-7.884 11.516-0.83625 1.4674-1.5904 2.9865-2.2594 4.5524-0.23695 0.55288-0.39377 0.99155-0.50702 1.2869-3e-3 8e-3 -3e-3 0.0152-6e-3 0.0222 0.0215-7.0891 0.0432-14.188 0.0578-23.472 8e-3 -0.0215 0.0197-0.041 0.0272-0.0629 0.16724-0.43922 0.37853-0.97476 0.6329-1.6715 0.25435-0.69678 0.60409-1.6 1.0344-2.6035 0.43032-1.0016 0.88029-2.1662 1.504-3.3874l0.93914-1.9082c0.3258-0.67785 0.71763-1.3367 1.0957-2.0525 0.73693-1.4314 1.6538-2.8633 2.5928-4.4008 2.1289-3.268 4.4761-6.3613 7.0232-9.2563 0.91126-1.0112 1.8757-1.9602 2.8344-2.9178 1.1834-0.72201 2.5155-1.1235 3.8825-1.1575z" />
  <path fill="var(--ground-800)" d="m360.57 406.63c0.79095 15.221 5.014 30.71 11.511 46.368h28.239c6.19-15.498 10.124-30.967 10.826-46.368z" />
  <path fill="var(--ground-800)" d="m102.12 67.384c-4.1171-0.02311-8.2371 0.82412-12.124 2.5443-7.7724 3.4701-13.96 10.149-17.207 18.572-3.2476 8.4223-3.2896 17.901-0.1157 26.356l10.923 28.978-5.4681 2.4334c-2.6072 1.1605-3.8546 4.3961-2.7868 7.2298l16.905 44.865c1.0678 2.8326 4.0483 4.1894 6.6557 3.0288l69.612-30.983c2.608-1.1605 3.8547-4.3998 2.7868-7.2335l-16.905-44.862c-1.068-2.8337-4.0494-4.1892-6.6556-3.0288l-55.355 24.637-10.923-28.997c-2.2263-5.9098-2.2027-12.542 0.06804-18.431 2.2708-5.8897 6.601-10.557 12.039-12.977 5.4375-2.4196 11.536-2.3902 16.956 0.07767 5.4192 2.4679 9.7171 7.1741 11.943 13.084l8.8232-3.9311c-3.1911-8.4369-9.3308-15.155-17.071-18.683-3.8702-1.7636-7.9829-2.658-12.1-2.6811z" />
  <path fill="var(--ground-500)" d="m127.21 148.22c-0.49896-1.339-1.3321-2.5001-2.4054-3.3523-1.0734-0.85243-2.3444-1.362-3.6699-1.4716-1.3254-0.10944-2.6528 0.18536-3.8324 0.85147s-2.1647 1.6768-2.8441 2.9185c-0.67963 1.2417-1.0267 2.665-1.0021 4.1095 0.0246 1.4445 0.41969 2.8528 1.1411 4.0663 0.72127 1.2135 1.7399 2.1841 2.9415 2.8023 1.2014 0.61839 2.5378 0.85962 3.8586 0.69697l4.0391 10.736 3.6089-1.6032-4.048-10.736c1.2228-1.0357 2.1007-2.4772 2.5-4.1052 0.39948-1.6278 0.29861-3.3531-0.28728-4.9129z" />
  <path fill="var(--ground-500)" d="m62.857 172.08 0.43032-1.3551 0.81656 1.126c0.6568 0.88706 1.5347 1.5496 2.5288 1.9086l1.2469 0.46768-1.0361 0.88744c-0.81151 0.71856-1.42 1.6711-1.7561 2.7483l-0.42143 1.3837-0.87806-1.1164c-0.66255-0.8846-1.5425-1.5466-2.5377-1.9086l-1.238-0.46768 1.0274-0.88744c0.83956-0.71988 1.4706-1.6872 1.8174-2.7866z" />
  <path fill="var(--ground-500)" d="m54.419 125.48 0.72004-2.2806 1.3786 1.9086c1.0981 1.5096 2.5737 2.6426 4.2497 3.2635l2.0899 0.78255-1.7561 1.4983c-1.389 1.1955-2.4342 2.7983-3.0119 4.6188l-0.71987 2.2712-1.3699-1.9086c-1.0976-1.5123-2.5732-2.6487-4.2497-3.2732l-2.0899-0.78256 1.7561-1.4888c1.3842-1.1946 2.4258-2.7936 3.003-4.6092z" />
  <path fill="#263238" d="m296.53 456.64-129.61-0.0871c-7.4862-3e-3 -14.664-3.2397-19.957-8.9957-5.291-5.7541-8.2649-13.557-8.2649-21.693l0.0628-353.15c0-4.0309 0.73171-8.0223 2.1533-11.746 1.4199-3.7236 3.5018-7.1066 6.1255-9.9556 2.6237-2.849 5.7387-5.1085 9.1674-6.649 3.4269-1.5407 7.0994-2.3323 10.808-2.3299l129.61 0.07652c7.4861 0.0051 14.664 3.2406 19.955 8.9955 5.2927 5.7549 8.2649 13.558 8.2649 21.694l-0.061 353.16c-2e-3 4.0311-0.73345 8.0224-2.1533 11.747-1.4216 3.7225-3.5035 7.106-6.1272 9.9556-2.6237 2.8477-5.7387 5.1085-9.1656 6.6478-3.4269 1.5412-7.1011 2.3327-10.81 2.3308z" />
  <path fill="#fff" d="m296.47 54.602h-25.112c-0.82056 0.01856-1.6289 0.21263-2.3781 0.57106-0.75089 0.35843-1.4286 0.87401-1.9966 1.5176-0.5662 0.64358-1.0105 1.4021-1.3066 2.2325-0.29791 0.83046-0.44078 1.7164-0.4216 2.6069v4.9051c0.0349 1.798-0.58712 3.5377-1.7317 4.8368-1.1446 1.2991-2.7161 2.0513-4.3711 2.0913h-48.978c-0.82405-0.01477-1.6359-0.20638-2.3903-0.56348-0.75611-0.3571-1.439-0.87268-2.0087-1.5174-0.57143-0.64452-1.0209-1.4055-1.3206-2.239-0.29965-0.83349-0.44425-1.723-0.42683-2.6179v-4.9432c0.0192-0.89105-0.12545-1.7774-0.42161-2.6084-0.29617-0.83084-0.74042-1.5903-1.3066-2.2344-0.56795-0.64433-1.2456-1.1609-1.9965-1.5204-0.74914-0.35937-1.5575-0.55458-2.3781-0.57428h-30.793c-5.2387-0.0026-10.263 2.2522-13.972 6.2701-3.7108 4.0179-5.8032 9.4709-5.8189 15.163l-0.0628 344.71c0 5.6973 2.0819 11.162 5.7892 15.193 3.7056 4.0292 8.7336 6.2956 13.976 6.2975l129.36 0.0852c2.5976 3e-3 5.1708-0.55099 7.5715-1.6302 2.399-1.0792 4.5819-2.6622 6.4182-4.6578 1.838-1.9957 3.2945-4.3663 4.2892-6.9735 0.99304-2.6091 1.5035-5.4057 1.5035-8.2288l0.061-344.7c-5e-3 -5.6964-2.0906-11.158-5.798-15.184-3.7074-4.0262-8.7336-6.2877-13.976-6.2877z" />
  <path fill="#263238" d="m278.77 177.73v5.5361c-0.3972-0.46483-0.88224-0.82961-1.4223-1.0688-0.5418-0.23894-1.1279-0.34558-1.7116-0.31434-1.3955 0.0611-2.7148 0.70621-3.6817 1.801-0.9669 1.0948-1.5074 2.5536-1.5074 4.0716 0 1.5187 0.54047 2.979 1.5074 4.0753 0.96692 1.0944 2.2862 1.7404 3.6817 1.801 0.61324 0.0397 1.2287-0.0753 1.7966-0.33283 0.56794-0.25561 1.0742-0.64655 1.4802-1.1464v1.3054h2.9332v-15.728zm-92.931 0.89125v14.837h3.1441v-4.0827h2.746c3.6516 0 5.9377-2.0619 5.9377-5.3733 0-3.3209-2.2831-5.3807-5.9173-5.3807zm3.1441 2.7958h2.5724c1.9321 0 2.9059 0.95322 2.9059 2.585 0 1.6128-0.97382 2.5665-2.9059 2.5665h-2.5724zm14.547 0.46596c-1.499 0.0243-2.9638 0.50106-4.2295 1.3831l1.0957 2.3113c0.87632-0.69809 1.9362-1.0716 3.0216-1.0614 1.6429 0 2.4227 0.82297 2.4227 2.2448h-2.4227c-3.1952 0-4.5052 1.4403-4.5052 3.417 0 1.9748 1.4651 3.454 3.9233 3.454 0.61673 0.07 1.2373-0.0414 1.8-0.32174 0.56272-0.28023 1.0466-0.72117 1.3985-1.2722v1.4201h2.8446v-6.5086c0-3.4546-1.8527-5.0473-5.0496-5.0664-0.10015-2e-3 -0.19951-1e-3 -0.29944 0zm12.199 0c-3.0993 0-4.8556 1.5282-4.8556 3.6944 0 4.513 6.3392 2.6031 6.3392 4.5117 0 0.63997-0.5268 1.0429-1.9327 1.0429-1.284-5e-3 -2.5416-0.38993-3.6409-1.1094l-1.0208 2.3779c1.3885 0.84257 2.9588 1.2674 4.5494 1.2315 3.1342 0 4.9509-1.5091 4.9509-3.6278 0-4.4946-6.3392-2.6438-6.3392-4.5524 0-0.60117 0.58912-1.0688 1.9498-1.0688 1.061-5e-3 2.1033 0.28822 3.0284 0.85057l1.0106-2.3483c-1.2509-0.68788-2.6365-1.0321-4.039-1.0022zm10.341 0c-3.0993 0-4.8522 1.5282-4.8522 3.6944 0 4.513 6.3392 2.6031 6.3392 4.5117 0 0.63997-0.5268 1.0429-1.9328 1.0429-1.2857-8e-3 -2.5465-0.39183-3.6511-1.1094l-1.0106 2.3779c1.3885 0.84257 2.9588 1.2693 4.5494 1.2315 3.1342 0 4.9509-1.5091 4.9509-3.6278 0-4.4946-6.3392-2.6438-6.3392-4.5524 0-0.60117 0.57699-1.0688 1.9463-1.0688 1.0575-9e-3 2.1 0.28575 3.0216 0.85057l1.0208-2.3483c-1.2509-0.68693-2.6399-1.0312-4.0424-1.0022zm29.066 0c-3.338 0-5.771 2.4446-5.771 5.88 2e-5 3.4356 2.433 5.8689 5.771 5.8689 3.3363 0 5.7608-2.4333 5.7608-5.8689 0-3.4354-2.4245-5.88-5.7608-5.88zm14.05 4e-3c-0.596-0.0134-1.1919 0.11146-1.7422 0.36611-0.62893 0.29083-1.1808 0.74482-1.6129 1.3202v-1.5088h-2.9059v11.453h3.0386v-5.3844c0-2.2232 1.1125-3.1767 2.7902-3.1767h0.68733v-3.0546c-0.0852-8e-3 -0.17003-0.0129-0.25519-0.0148zm-38.416 0.16642 3.7838 11.453h2.9263l2.4397-7.0819 2.3615 7.0819h2.9229l3.8042-11.453h-2.6881l-2.5554 7.7216-2.501-7.7216h-2.5724l-2.5724 7.7216-2.4772-7.7216zm24.285 3.0287c0.32294-0.0108 0.64692 0.0399 0.95616 0.15532 0.49304 0.18461 0.92824 0.52461 1.2488 0.9726 0.31881 0.44818 0.51106 0.98764 0.55463 1.5532h0.0272c0.0383 0.40615-2e-3 0.81373-0.12247 1.2019-0.11846 0.38815-0.31215 0.7437-0.56824 1.0428-0.2561 0.30106-0.56865 0.53439-0.91535 0.69154-0.34843 0.15715-0.7245 0.23514-1.0991 0.22189-0.52263 0-1.0327-0.16662-1.4699-0.47704-0.43729-0.31053-0.77938-0.75337-0.99018-1.2722-0.20907-0.5207-0.27767-1.0926-0.19057-1.6531 0.0854-0.55951 0.32347-1.0806 0.67714-1.4977 0.35366-0.41731 0.81161-0.71158 1.3168-0.85057 0.19014-0.0521 0.3813-0.0823 0.57506-0.0887zm21.035 0c0.32396-0.0124 0.64692 0.0373 0.95616 0.15163 0.49652 0.18309 0.93329 0.52016 1.2556 0.9689 0.32404 0.44893 0.51789 0.99314 0.56146 1.5606 0.0383 0.40047-3e-3 0.80093-0.11917 1.1834-0.11498 0.38247-0.30211 0.7345-0.55124 1.0318-0.2474 0.29916-0.55354 0.5361-0.89151 0.69893-0.33799 0.16096-0.70592 0.24598-1.0753 0.24409-0.5244 0.01-1.0377-0.14825-1.4802-0.45117-0.44252-0.30484-0.79456-0.74595-1.0106-1.2647-0.21603-0.51881-0.2877-1.0942-0.20757-1.6568 0.0818-0.56254 0.31161-1.087 0.66352-1.5088 0.35192-0.42185 0.81329-0.72259 1.3203-0.86536 0.1901-0.0536 0.38408-0.085 0.57845-0.0924zm-72.338 3.6167h2.0893v1.1612c-0.16724 0.49229-0.47711 0.91229-0.8813 1.1982-0.40591 0.28589-0.88362 0.42236-1.3645 0.38828-1.0714 0-1.715-0.66072-1.715-1.4238s0.44812-1.3239 1.8715-1.3239z" />
  <path fill="#313131" d="m169.52 242.6v3.3431l-2.7834-1.8047-1.2148 2.2411 2.7596 1.653-2.7221 1.6235 1.1841 2.2411 2.7868-1.8121v3.3505h2.3683l-0.0543-3.3209 2.7766 1.7825 1.2386-2.2521-2.7494-1.6124 2.7392-1.653-1.2352-2.2411-2.7766 1.8047 0.0511-3.3431zm31.611 0v3.3431l-2.7766-1.8047-1.2114 2.2411 2.7494 1.653-2.7936 1.6235 1.1501 2.2817 2.7732-1.8158v3.3505h2.3819v-3.3579l2.7562 1.7825 1.2386-2.2521-2.7494-1.6124 2.7154-1.653-1.2386-2.2411-2.7766 1.8047 0.0543-3.3431zm30.658 0.0114v3.3431l-2.78-1.8047-1.2148 2.241 2.7596 1.6494-2.7596 1.6161 1.1875 2.2817 2.7834-1.8158v3.3505h2.3717l-0.0543-3.3579 2.7732 1.7825 1.2386-2.2521-2.746-1.6124 2.746-1.642-1.2386-2.241-2.7732 1.8047 0.0543-3.3431zm29.733 0v3.3431l-2.7732-1.8047-1.2114 2.241 2.7562 1.6494-2.7562 1.6161 1.2182 2.2411 2.7766-1.8121v3.3505h2.3717l-0.0544-3.3209 2.7732 1.7825 1.2148-2.2521-2.7494-1.6124 2.7664-1.642-1.2386-2.241-2.7766 1.8047 0.0543-3.3431zm29.512 0v3.3431l-2.7732-1.8047-1.2148 2.241 2.7494 1.6494-2.7494 1.6161 1.1943 2.2484 2.7766-1.8121v3.3505h2.3717l-0.0442-3.3209 2.7732 1.7825 1.2386-2.2484-2.7664-1.6235 2.7834-1.642-1.2386-2.241-2.7732 1.8047 0.0442-3.3431z" />
  <path fill="#263238" d="m195.56 229.66c-1.6446 0-3.2206 0.70818-4.3861 1.9711-1.1638 1.2629-1.8187 2.9776-1.8204 4.7668v25.669c0 0.88991 0.16272 1.7706 0.47638 2.5924 0.31359 0.82174 0.77586 1.568 1.3543 2.1967 0.58015 0.62672 1.2685 1.1237 2.0246 1.4608 0.75785 0.33893 1.5716 0.51042 2.3887 0.50665h13.301c1.6411-0.0114 3.2122-0.73027 4.369-1.997 1.1568-1.2648 1.8034-2.9759 1.8034-4.7594v-25.669c-2e-3 -1.7893-0.65665-3.5039-1.8204-4.7668-1.1638-1.2629-2.7415-1.9711-4.3861-1.9711zm-30.862 8e-3c-1.6446 0-3.2223 0.71188-4.3861 1.9748-1.1638 1.2629-1.8204 2.9758-1.8238 4.7632v25.672c3e-3 1.7893 0.66008 3.502 1.8238 4.7668 1.162 1.2648 2.7397 1.9766 4.3861 1.9785h13.301c1.6481-2e-3 3.2291-0.7155 4.3929-1.9822 1.1638-1.2667 1.817-2.985 1.817-4.7742v-25.661c-3e-3 -1.7874-0.65667-3.5002-1.8204-4.7632-1.1638-1.2629-2.7448-1.9748-4.3895-1.9748zm60.946 0c-1.6446 0-3.2206 0.71188-4.3861 1.9748-1.1638 1.2629-1.8187 2.9758-1.8204 4.7632v25.672c2e-3 1.7893 0.65667 3.502 1.8204 4.7668 1.1638 1.2648 2.7415 1.9766 4.3861 1.9785h13.311c0.81535 0 1.6224-0.17685 2.3751-0.51774 0.75262-0.34082 1.4361-0.83773 2.011-1.4645 0.57493-0.62672 1.0322-1.3694 1.3441-2.1893 0.3101-0.81985 0.47133-1.6988 0.46959-2.585v-25.661c-2e-3 -1.7855-0.65502-3.4965-1.817-4.7595-1.162-1.2629-2.7398-1.9766-4.3827-1.9785zm30.389 0c-1.6446 0-3.2223 0.71188-4.3861 1.9748-1.1638 1.2629-1.817 2.9758-1.8204 4.7632v25.672c3e-3 1.7893 0.65666 3.502 1.8204 4.7668 1.1638 1.2648 2.7397 1.9766 4.3861 1.9785h13.311c0.81534 0 1.6224-0.17685 2.3751-0.51774 0.75263-0.34082 1.4377-0.83773 2.0144-1.4645 0.57492-0.62672 1.0306-1.3694 1.3407-2.1893 0.31184-0.81985 0.46959-1.6988 0.46959-2.585v-25.661c-3e-3 -1.7855-0.65501-3.4965-1.817-4.7595-1.162-1.2629-2.7381-1.9766-4.3827-1.9785zm29.512 0c-1.6446 0-3.2223 0.71188-4.3861 1.9748-1.1638 1.2629-1.8187 2.9758-1.8204 4.7632v25.672c2e-3 1.7893 0.65667 3.502 1.8204 4.7668 1.1638 1.2648 2.7415 1.9766 4.3861 1.9785h13.305c1.6464-2e-3 3.2257-0.7155 4.3895-1.9822s1.817-2.985 1.817-4.7742v-25.661c-2e-3 -1.7874-0.65666-3.5002-1.8204-4.7632-1.1655-1.2629-2.7415-1.9748-4.3861-1.9748zm-107.55 0.46965c1.5296 0 2.9945 0.65663 4.0764 1.8306 1.0819 1.1739 1.6911 2.7698 1.6946 4.4303v25.669c0 1.6624-0.60924 3.2582-1.6911 4.434-1.0819 1.1758-2.5502 1.8343-4.0798 1.8343h-13.301c-1.5296-2e-3 -2.9963-0.66214-4.0764-1.838-1.0819-1.1758-1.6876-2.7679-1.6911-4.4303v-25.661c3e-3 -1.6605 0.60924-3.2527 1.6911-4.4266 1.0819-1.1739 2.5468-1.8342 4.0764-1.8342zm30.9 0c1.5279 0 2.9945 0.65663 4.0764 1.8306 1.0819 1.1739 1.6894 2.7679 1.6912 4.4303v25.669c0 1.6624-0.60585 3.2582-1.6877 4.434-1.0819 1.1758-2.5502 1.8343-4.0798 1.8343h-13.301c-1.5279-2e-3 -2.9979-0.66214-4.0798-1.838-1.0802-1.1758-1.6894-2.7679-1.6912-4.4303v-25.657c2e-3 -1.6624 0.61265-3.2564 1.6946-4.4303 1.0819-1.1739 2.5485-1.8342 4.0764-1.8342zm30.056 0c1.5279 0 2.9929 0.65663 4.073 1.8306 1.0802 1.1758 1.6877 2.7698 1.6877 4.4303v25.669c0 1.6605-0.60758 3.2545-1.6877 4.4303-1.0802 1.1739-2.5451 1.8361-4.073 1.838h-13.311c-1.5296-2e-3 -2.9946-0.66214-4.0764-1.838-1.0801-1.1758-1.6894-2.7679-1.6911-4.4303v-25.661c2e-3 -1.6605 0.60923-3.2527 1.6911-4.4266 1.0802-1.1739 2.5486-1.8342 4.0764-1.8342zm30.389 0c1.5279 0 2.9929 0.65663 4.073 1.8306 1.0801 1.1758 1.6877 2.7698 1.6877 4.4303v25.669c0 1.6605-0.60592 3.2545-1.6843 4.4303-1.0802 1.1739-2.5468 1.8361-4.0764 1.838h-13.311c-1.5296-2e-3 -2.9945-0.66214-4.0764-1.838-1.0819-1.1758-1.6876-2.7679-1.6911-4.4303v-25.661c3e-3 -1.6605 0.60923-3.2527 1.6911-4.4266 1.0819-1.1739 2.5468-1.8342 4.0764-1.8342zm29.505 0c1.5279 0 2.9929 0.65663 4.073 1.8306 1.0819 1.1739 1.6928 2.7698 1.6945 4.4303v25.669c-2e-3 1.6624-0.61099 3.2545-1.6912 4.4303-1.0819 1.1758-2.5468 1.8361-4.0764 1.838h-13.305c-1.5296 0-2.9945-0.65845-4.0764-1.8343-1.0819-1.1758-1.6912-2.7716-1.6912-4.434v-25.661c2e-3 -1.6605 0.61267-3.2527 1.6946-4.4266 1.0802-1.1739 2.5451-1.8342 4.073-1.8342z" />
  <path fill="#313131" d="m297.87 299.82h-129.26c-5.4757 0-9.9147 4.8245-9.9147 10.774v6.8334c0 5.951 4.4391 10.774 9.9147 10.774h129.26c5.4757 0 9.9148-4.8226 9.9148-10.774v-6.8334c0-5.9491-4.4391-10.774-9.9148-10.774z" />
  <path fill="#313131" d="m231.77 164.32c14.573 0 26.385-12.839 26.385-28.676 0-15.838-11.812-28.676-26.385-28.676-14.572 0-26.385 12.839-26.385 28.676 0 15.837 11.814 28.676 26.385 28.676z" />
  <path fill="#fff" d="m231.81 122.16c-1.3641 0-2.6723 0.58949-3.6375 1.6382-0.96517 1.0488-1.5074 2.4702-1.5074 3.9533v2.4334h-1.4393c-0.57318 2e-3 -1.1253 0.24999-1.5312 0.69154-0.40766 0.44136-0.63454 1.0397-0.63629 1.6642v14.23c2e-3 0.62425 0.22863 1.2226 0.63629 1.6641 0.40594 0.44155 0.95805 0.68889 1.5312 0.69154h13.083c0.57488-2e-3 1.1253-0.24999 1.5312-0.69154s0.63457-1.0399 0.63631-1.6641v-14.23c-2e-3 -0.62445-0.23038-1.2228-0.63631-1.6642-0.40593-0.44155-0.95632-0.68909-1.5312-0.69154h-11.205v-2.4334c0-1.3566 0.49656-2.6575 1.3781-3.6167 0.88329-0.95922 2.0804-1.4977 3.3278-1.4977 1.2492 0 2.4445 0.53852 3.3278 1.4977 0.88155 0.9592 1.3781 2.2601 1.3781 3.6167v2.1745h0.43894v-2.1745c0-1.4831-0.53882-2.9045-1.504-3.9533-0.96516-1.0488-2.275-1.6382-3.6409-1.6382zm6.4992 8.4723c0.46513 0 0.91271 0.20056 1.242 0.55842 0.32927 0.35786 0.5138 0.8435 0.5138 1.3498v14.26c0 0.50631-0.18453 0.99177-0.5138 1.3498-0.32928 0.35785-0.77686 0.55841-1.242 0.55841h-13.083c-0.46517 0-0.91271-0.20056-1.242-0.55841-0.32927-0.35805-0.5138-0.84351-0.5138-1.3498v-14.23c0-0.5063 0.18453-0.99195 0.5138-1.3498 0.32928-0.35785 0.77682-0.55841 1.242-0.55841zm-6.5808 5.022c-0.10068 5e-3 -0.2031 0.0192-0.30285 0.0407-0.39721 0.0861-0.76056 0.29797-1.048 0.61018-0.28746 0.31243-0.48645 0.71321-0.56485 1.1464-0.0802 0.43322-0.0359 0.8826 0.11917 1.2906 0.15505 0.40804 0.41743 0.75681 0.75541 1.0022 0.25927 0.18824 0.55388 0.30896 0.86088 0.35501v3.7129h0.43894v-3.7018c0.48614-0.0408 0.94537-0.269 1.293-0.64717 0.38675-0.41882 0.60228-0.98682 0.60228-1.5791 0-0.44173-0.12057-0.87172-0.34709-1.2388-0.22474-0.36734-0.54416-0.65209-0.91872-0.82098-0.28223-0.12681-0.58604-0.18612-0.8881-0.17011zm0.10205 0.44747c0.21429 0 0.42409 0.0468 0.62271 0.13684 0.19687 0.0899 0.37583 0.22224 0.52741 0.3883 0.14983 0.16625 0.27033 0.36067 0.35047 0.5769 0.0784 0.21642 0.11586 0.44737 0.11237 0.68045 2e-3 0.34763-0.0929 0.68992-0.26882 0.98-0.17596 0.28988-0.42694 0.51662-0.72136 0.65087-0.29443 0.13443-0.61876 0.17019-0.93235 0.10356-0.31534-0.0669-0.60377-0.23186-0.83025-0.47706-0.22823-0.2452-0.3813-0.55782-0.44576-0.89864-0.0628-0.34082-0.0335-0.69566 0.0885-1.017 0.12197-0.3213 0.32893-0.59807 0.59548-0.79139 0.26481-0.19332 0.58116-0.29566 0.9017-0.29584z" />
  <path fill="#ffbe9d" d="m415.28 436.48-16.568-41.54-19.011 13.265 20.16 37.971 10.106-4.9248z" />
  <path fill="#313131" d="m414.92 434.16 0.54356 1.1834s22.084-2.0506 24.042 1.6321l-36.563 19.764-5.5576-13.494c6.69-0.18934 12.521-2.9575 17.535-9.0847z" />
  <path fill="#ffbe9d" d="m384.12 443.69 0.63241-45.281-22.347 3.5899 3.9879 43.628 11.08 0.0303z" />
  <path fill="#313131" d="m384.66 441.41 0.061 1.3159s20.897 8.0168 21.284 12.245l-40.812 1.6586 0.0435-14.78c6.1725 2.8042 12.538 2.8913 19.424-0.43927z" />
  <path fill="#e0e0e0" d="m437.13 435.74-34.132 17.052-37.807 0.28844v3.5502l37.083-1.5088 0.66353 1.6124 36.565-19.755c-0.38676-1.3443-2.3717-1.2389-2.3717-1.2389zm-33.074 9.3155c-0.43032 0-0.8434 0.17912-1.1535 0.50295l0.11236-0.074c-0.29791 0.30484-0.4807 0.71994-0.51379 1.1649-0.0349 0.44307 0.0844 0.88291 0.33345 1.2389 0.27003 0.33513 0.64716 0.54633 1.0548 0.58798 0.40941 0.0398 0.8176-0.0934 1.1399-0.3698 0.31359-0.32567 0.50618-0.7637 0.54101-1.2352 0.0349-0.46956-0.0958-0.93793-0.36068-1.3128-0.31011-0.32379-0.7232-0.50296-1.1535-0.50296zm-34.136 1.3165c-0.18399 8e-3 -0.36649 0.0475-0.54101 0.12194l0.14965-0.0924c-0.38851 0.14769-0.71331 0.44202-0.91192 0.83206-0.19859 0.39194-0.26073 0.84777-0.1702 1.2833 0.12021 0.42602 0.38804 0.78993 0.74519 1.0096 0.35888 0.21965 0.77838 0.27985 1.1773 0.17383 0.4129-0.15527 0.75895-0.47289 0.96977-0.88756 0.20906-0.41656 0.26611-0.90261 0.16323-1.3646-0.17247-0.426-0.4875-0.76132-0.88471-0.93931-0.22244-0.1002-0.46096-0.14636-0.69755-0.1369z" opacity=".6" />
  <path fill="#263238" d="m387.35 222.29-20.144 1.1575v-3e-3l-31.924 1.8232-1.0548 4.2158c-1.716 6.5323-3.1106 13.158-4.1785 19.851-2.1429 14.933-1.8892 28.523 3.5116 44.488 5.4008 15.965 13.839 46.322 13.839 46.322l11.283 33.875-1.2386 61.2 21.219-1.2204 0.40491 1.2204 4.1411-1.4792 9.1294-0.52515s0.20781-2.6859 0.21777-2.8142l23.39-8.3614-18.062-61.437c1.8891-25.108 3.6831-49.448 4.1104-57.332 1.2021-23.056 0.0515-42.723-0.55464-48.467-0.60628-5.7447-7.2165-19.773-11.307-22.636z" />
  <path fill="var(--color-white)" d="m386.04 233.55c0.0244 0.2878 0.091 0.56519 0.20077 0.82837 0.22649 0.73087 0.49799 1.4445 0.80984 2.1375 2.0366 4.6408 5.2217 8.5735 9.2009 11.357 0.59409 0.41843 1.2117 0.80017 1.8511 1.1353 0.22648 0.14769 0.47207 0.25728 0.72817 0.32545 0.0435-0.0871-0.93048-0.65797-2.3887-1.7751-3.8102-2.8894-6.9249-6.7349-9.0852-11.205-0.85192-1.7079-1.2559-2.8316-1.3168-2.8032zm-32.21 4.9333c-0.0871-0.0473-0.74498 1.7843-2.4227 4.312-2.1812 3.3022-5.0749 5.9727-8.4251 7.7771-3.3502 1.8044-7.0564 2.6893-10.793 2.5776-1.5505-0.0947-3.0945-0.27304-4.6277-0.53622 0.38851 0.17988 0.79498 0.31248 1.2114 0.39199 1.1185 0.27076 2.2547 0.43685 3.3993 0.49555 3.8084 0.22343 7.6048-0.62441 11.025-2.4629 3.4199-1.8404 6.3468-4.6052 8.4931-8.0323 0.65506-1.0244 1.2207-2.1091 1.6945-3.2432 0.19688-0.40709 0.34471-0.83459 0.44576-1.2796zm15.765 25.376s0.0682 0.21741 0.20075 0.72485c0.13241 0.50555 0.33583 1.2387 0.59889 2.193 0.53483 1.9464 1.3255 4.7827 2.3342 8.4465 2.0645 7.3294 5.0299 17.919 8.7007 31.012 7.4896 26.139 17.052 62.516 29.94 101.89 1.4629 4.6358 2.9022 9.2088 4.318 13.727l-36.463 13.04-21.284-63.63c-2.6342-7.7782-4.7132-14.01-6.1453-18.276l-1.6503-4.8482c-0.19339-0.53395-0.34315-0.95295-0.43895-1.2388-0.0975-0.2878-0.15993-0.42159-0.15993-0.42159l0.13276 0.42897c0.0889 0.29159 0.21875 0.71385 0.3947 1.261 0.36935 1.1171 0.89567 2.7554 1.5891 4.8741l6.033 18.313 21.206 63.94 0.0715 0.2182 0.20077-0.074 36.878-13.162 0.22116-0.0776-0.0714-0.24778c-1.4512-4.5935-2.9172-9.2476-4.3929-13.96-12.889-39.364-22.503-75.734-30.073-101.84-3.7318-13.065-6.7496-23.638-8.8402-30.968-1.0453-3.6354-1.86-6.4972-2.4227-8.4058l-0.64311-2.1856c-0.14809-0.49608-0.23479-0.73223-0.23479-0.73223z" />
  <path fill="var(--primary-500)" d="m400.96 160.38s-1.669-10.144-6.453-15.001c-4.7858-4.8574-24.727-10.354-24.727-10.354s0.23694 7.5294-4.223 9.5429c-4.7248 2.1471-9.4478 1.422-13.171-2.8629-2.2439-2.6631-3.8084-5.9162-4.5401-9.438 0 0-23.638 3.7503-27 10.717-3.3624 6.9663-6.8834 33.4-6.8834 33.4l21.415 3.674-0.69338 45.214 56.283-3.2169-3.1777-42.189 15.436 1.4983z" stroke-width="1.8162" />
  <path fill="var(--color-white)" d="m337.87 155.55c-0.0453 0.33552-0.0453 0.67776 0 1.0133 0 0.65835 0.0514 1.6019 0.11238 2.7662 0.11498 2.338 0.30044 5.5638 0.54783 9.1232 0.24564 3.5595 0.48186 6.7875 0.68394 9.1158 0.0958 1.1643 0.19232 2.1062 0.26201 2.7551 8e-3 0.34119 0.0639 0.67935 0.16672 1.0022 0.0331-0.33627 0.0331-0.67331 0-1.0096 0-0.65834-0.0512-1.6035-0.1122-2.7773-0.11323-2.3285-0.29877-5.5527-0.54443-9.1121-0.24564-3.5594-0.48358-6.7873-0.68394-9.1158-0.10627-1.1643-0.19397-2.1097-0.2654-2.7588-0.0139-0.34044-0.0709-0.67766-0.16673-1.0022zm54.184 4.1826c-0.13065 0-1.2302 4.6094-2.4602 10.373-0.8223 3.461-1.4838 6.9625-1.9838 10.495 0.98085-3.4104 1.8034-6.8728 2.4602-10.373 0.82231-3.461 1.4855-6.9625 1.9838-10.495zm-24.523 7.337c-0.0871 0.0189 0.13885 1.1626 0.0953 3.014-0.0261 1.0851-0.14809 2.1679-0.36069 3.2284-0.54009 2.5938-1.616 5.018-3.1509 7.0892-0.62892 0.8386-1.3279 1.6099-2.0893 2.3076-1.3171 1.1828-2.2825 1.7102-2.239 1.7973 0.24913-0.0606 0.48492-0.16856 0.70095-0.31434 0.2683-0.13633 0.52844-0.29357 0.77583-0.46966 0.3345-0.22153 0.65459-0.46353 0.96295-0.72482 0.81535-0.67652 1.5617-1.4472 2.222-2.3002 1.6202-2.1006 2.7324-4.608 3.2394-7.2927 0.20209-1.0929 0.29312-2.2064 0.27221-3.3209-5e-3 -0.42431-0.0312-0.84716-0.0783-1.2684-0.0244-0.3215-0.0698-0.64037-0.13954-0.9541-0.0296-0.27474-0.1012-0.54166-0.21098-0.7914z" />
  <path fill="#ffbe9d" d="m317.76 177.07s8.0423 34.648 8.9116 37.606c0.86934 2.9594 2.4331 10.957 10.194 12.178 10.278 1.6278 49.081-2.0495 50.625-2.1967 0.47752 0.11361 0.96313 0.17856 1.453 0.19232 0.26829 0.0323 0.54005 8e-3 0.79964-0.074-0.65007-0.0881-1.2946-0.22494-1.9293-0.39938l-7.4077-9.1639c-0.27377-1.1355-0.42069-2.307-0.42873-3.491-8e-3 -1.9654 0.31002-3.1688 0.22116-3.1878-0.13763 0.25371-0.22882 0.53489-0.2654 0.82837-0.1777 0.77253-0.27512 1.5642-0.29603 2.3594-0.031 0.92694 0.0277 1.8493 0.17004 2.7551l-36.164-8.8163-6.1453-25.191z" />
  <path fill="#263238" d="m356.62 71.286c-4.165 0.12525-7.7962 2.2864-11.246 5.1589-3.9286 3.3775-6.8155 7.9818-8.272 13.191-1.6394 5.4567-1.6019 11.343 0.10557 16.775 0.45608 1.4097 1.0503 2.7562 1.766 4.0235-0.89244 3.5935-2.3835 6.9873-4.4269 9.996-0.95646 1.4123-2.0981 3.0528-1.6503 4.7706 0.19512 0.57029 0.51911 1.0763 0.94594 1.4718 0.42509 0.39572 0.9382 0.66946 1.487 0.79139 1.1045 0.20525 2.2301 0.20525 3.3346 0l-2.0008 2.3742c6.744-1.4089 13.586-2.1895 20.45-2.3298-0.94694-2.363-1.5528-4.8556-1.834-7.3925 4.4643-0.21293 8.9102-2.106 12.308-5.2883 3.1616-2.9616 5.4193-6.9203 6.7169-11.25l-4.5902 22.166c4.0993 1.0067 8.3862 0.64503 12.294-1.0392-0.5453-0.0324-1.0762-0.20796-1.5448-0.51034-0.47036-0.30238-0.86603-0.72393-1.1535-1.2278 3.2596 0.30958 6.5318-0.41098 9.422-2.0783-4.2492-2.8629-6.9281-7.8856-8.2277-13.125-1.1212-4.5195-2.5124-11.776-2.9025-17.167l0.76901 0.06658c0.45644-2.3302 0.39299-4.7433-0.18715-7.0412-0.5784-2.298-1.6546-4.4126-3.1407-6.1647-2.3206-2.5752-5.2699-4.3772-8.4999-5.1921-2.6666-0.71091-5.3301-1.0389-7.8126-0.81728-0.0975-0.01268-0.19488-0.02983-0.29264-0.04067v-0.04808c-0.61783-0.06918-1.222-0.09186-1.817-0.07396zm18.688 19.119 1.6946 0.14422-1.6163 7.803c0.16847-1.4434 0.23681-2.8994 0.20077-4.349-0.0139-1.2114-0.11011-2.4112-0.27903-3.5983z" />
  <path fill="#ffbe9d" d="m368.54 78.87c-0.3714-0.0123-0.75019 0.01039-1.1365 0.06658l-19.239 5.8763c-0.90593 0.13046-1.7335 0.62525-2.3206 1.3868-0.58712 0.76135-0.88735 1.7369-0.84728 2.7292l1.0378 15.887c-2.0867-0.12571-5.0855 0.57867-4.9986 5.6766 0.10628 5.4522 3.6874 6.1666 5.7676 6.039l1.1944 18.269c0.20557 3.1313 1.3537 6.1011 3.2666 8.4539l2.0212 2.474c4.6011 5.6494 13.169 4.4361 15.996-2.4444 0.17073-0.39136 0.29432-0.80563 0.36748-1.2315 0.0644-0.34649 0.1068-0.6977 0.12596-1.0503 0.1986-2.3219 0.17265-4.6588-0.0782-6.9746-0.054-4.0938-0.0986-5.7724-0.0986-5.7247s7.9026-1.67 9.2894-12.988c0.68643-5.64 0.20177-14.823-0.42193-22.333-0.51776-6.334-4.3548-13.927-9.9256-14.112z" />
  <path fill="#263238" d="m374.1 96.37c-0.75263 0.01325-1.4812 0.28212-2.0892 0.76551-0.44773 0.37225-0.70338 0.61163-0.52742 0.80249 0.1742 0.19086 1.1929-0.62164 2.6337-0.66936 1.439-0.04771 2.4664 0.73448 2.6337 0.54362 0.0785-0.08597-0.0773-0.41978-0.55124-0.7729-0.61674-0.45973-1.3538-0.69511-2.0995-0.66936zm-6.9279 0.5843c-0.14113 0.06683 1.0274 3.578 2.6337 7.8437l1.1603 2.9955c0.19687 0.35294 0.29137 0.76399 0.27222 1.176-0.054 0.26735-0.39628 0.41049-0.76562 0.41049-0.78921 0.068-1.5681 0.24082-2.3172 0.52143 0.77876 0.095 1.5675 0.0834 2.3445-0.037 0.20905-5e-3 0.41553-0.0397 0.61588-0.10356 0.13589-0.0419 0.25791-0.11719 0.36069-0.22189 0.1011-0.10454 0.18093-0.23681 0.22797-0.38091 0.0958-0.53148 0.0139-1.0806-0.22797-1.5532l-1.1093-3.0176c-1.608-4.304-3.054-7.6997-3.1951-7.6329zm-6.9994 0.11094c-0.0463-5.27e-4 -0.093 0.0023-0.13954 0.0038-0.75262 0.01325-1.4812 0.27842-2.0893 0.76181-0.45645 0.38172-0.71019 0.61163-0.53422 0.80249 0.17422 0.19086 1.1842-0.63111 2.6337-0.66936 1.4477-0.03825 2.4751 0.73448 2.6337 0.54362 0.0784-0.08596-0.0809-0.41978-0.55463-0.7729-0.57493-0.42904-1.2542-0.66147-1.9497-0.66936zm13.308 1.8638c-0.0426 6.31e-4 -0.0866 0.0058-0.12927 0.01117-0.34494 0.02462-0.66661 0.19332-0.89832 0.47336-0.23171 0.28004-0.35254 0.64834-0.33686 1.0244 0.0122 0.18328 0.0576 0.36191 0.13606 0.52513 0.0767 0.16321 0.18578 0.30789 0.31646 0.42528 0.12891 0.11739 0.28031 0.20566 0.44233 0.25886 0.16202 0.053 0.33121 0.0678 0.50019 0.0481 0.3467-0.0246 0.67169-0.19388 0.90514-0.47335 0.23343-0.27928 0.35919-0.64664 0.35047-1.0244-0.0139-0.18461-0.0628-0.36467-0.14286-0.52883-0.0784-0.16397-0.1858-0.3077-0.31644-0.42528-0.13241-0.11739-0.28541-0.20642-0.44917-0.25887-0.12283-0.0392-0.24997-0.05738-0.37769-0.05548zm-13.55 0.77291c-0.042 3.26e-4 -0.0841 0.0062-0.12596 0.01117-0.34669 0.02462-0.67168 0.1937-0.90514 0.47336-0.23168 0.27966-0.35246 0.64758-0.34025 1.0244 0.0139 0.18385 0.0594 0.36173 0.13954 0.52513 0.0785 0.1634 0.18579 0.30789 0.31644 0.42528 0.13068 0.1174 0.28374 0.20585 0.44576 0.25887 0.16202 0.053 0.33121 0.0678 0.5002 0.0481 0.34669-0.0246 0.67002-0.1937 0.90171-0.47336 0.23346-0.27966 0.35928-0.64739 0.34708-1.0244-0.0139-0.18366-0.0645-0.36192-0.14285-0.52513-0.0785-0.16341-0.18581-0.30789-0.31648-0.42529-0.13065-0.11739-0.28031-0.20584-0.44233-0.25886-0.12282-0.03962-0.25145-0.06016-0.37771-0.05917zm4.0458 11.394c-0.11498 0-0.27408 0.41897-0.19395 1.1538 0.1202 0.94085 0.5725 1.7953 1.2624 2.3779 0.72301 0.60325 1.6204 0.91128 2.5316 0.86905 0.70209-0.0382 1.0791-0.16354 1.0616-0.37351-0.0174-0.20998-1.6678 0.0279-3.0284-1.1649-1.3606-1.1929-1.4051-2.8623-1.6333-2.8623z" />
  <path fill="#eb996e" d="m369.6 128.29c-4.8816 0.21945-9.7231-1.0357-13.988-3.6263 0 0 3.6795 7.7011 14.049 6.346z" />
  <path fill="#263238" d="m358.06 71.57c-6.2875-0.16227-14.588 9.2575-16.221 15.861-0.78223 3.13 0.16655 6.4858-0.33346 9.7112-0.392 1.6668-0.24358 3.4313 0.42193 4.9924 0.53484 1.3837 0.65106 4.0748 2.1267 4.5043 1.4739 0.42944 4.9054-1.6588 5.4681-3.1952 0.43033-1.1546 0.13154-2.51 0.54444-3.6648 0.93032-2.6623 4.7235-2.7406 6.0058-5.2217 0.93032-1.7942 0.22195-4.2761 1.2046-5.965 0.98258-1.6891 3.0893-1.963 4.8454-2.6404 1.6324-0.65437 3.0708-1.7771 4.1649-3.2469 0.86858-1.1668 1.4892-2.5203 1.834-3.9644 1.7591 2.1308 4.1906 4.2292 5.5396 5.7321 3.9338 4.3706 4.75 5.8562 5.3388 16.22 1.5105-3.7028 2.6344-7.3076 2.239-11.335-0.32927-4.0771-2.0134-7.8868-4.7399-10.71-1.3746-1.378-3.0272-2.3863-4.8216-2.9511-1.7962-0.5648-3.6862-0.67076-5.526-0.30324v0.01117c0.10662 0.39262 0.28007 0.79321 0.49681 1.2019zm-23.839 9.726c-1.9402-0.03112-3.8501 0.60589-5.4477 1.8306-1.0889 0.75377-2.1755 1.7946-2.341 3.1878-0.16724 1.3934 1.1481 2.9488 2.324 2.3668-0.57144 0.25599-1.0842 0.64275-1.5006 1.139-0.41812 0.49646-0.72558 1.0888-0.90851 1.7307-0.18119 0.64206-0.23342 1.3205-0.14634 1.9859 0.0854 0.66516 0.3068 1.3021 0.64652 1.8638 0.33798 0.56178 0.78897 1.0319 1.3168 1.3831 0.52614 0.35123 1.117 0.57332 1.732 0.64717 0.615 0.07365 1.2368-4.44e-4 1.8204-0.21819 0.58538-0.21793 1.1176-0.575 1.5618-1.0429-0.48084 2.2676-1.6602 4.2907-3.3448 5.7284 1.8432 0.14731 3.6887-0.23713 5.3524-1.1094 1.6638-0.87211 3.0856-2.2022 4.1275-3.8608 1.0401-1.6588 1.664-3.5859 1.8034-5.5878 0.13937-2.0019-0.21092-4.0109-1.0106-5.8208-0.12195-2.4048-2.9653-3.8146-5.1517-4.1678-0.27766-0.0319-0.55649-0.05102-0.83365-0.05548zm4.791 27.662c-0.31629 0.0548-0.67292 0.90568-1.3066 2.0598-0.81882 1.5774-1.9057 2.9717-3.2053 4.1049-1.3258 1.0925-2.8309 1.9015-4.4337 2.3853-1.2561 0.41978-2.1777 0.59152-2.1777 0.95411-0.0349 0.334 0.84147 0.82179 2.3955 0.85056 2.0558-0.0348 4.047-0.79976 5.6655-2.1782 1.6185-1.3784 2.778-3.2933 3.3006-5.4547 0.35018-1.6414 0.1575-2.6646-0.17693-2.7218-0.0208-3e-3 -0.0402-3e-3 -0.0613 0z" />
  <path fill="#ffbe9d" d="m411.81 147.83c-0.98792 0.0157-2.0009 0.65545-3.1543 1.4755-1.1794 0.99008-2.1397 2.2526-2.8174 3.6944l-0.13276-0.12575c-0.26132-0.25656-0.57054-0.44499-0.90852-0.55102-0.33624-0.10584-0.69113-0.12543-1.0378-0.0592-0.34495 0.0664-0.67218 0.21883-0.95615 0.44377-0.28223 0.22513-0.51676 0.51648-0.68053 0.85427-0.4251 0.92228-0.68863 1.9245-0.77922 2.9511-0.11203 1.5803-0.27712 7.3657-0.28582 8.0249l-5.9106 15.891-7.3531-0.55501-7.7718 29.322s-2.0273 12.827 7.0878 15.269c11.976 3.2453 16.49-18.989 18.517-28.79 1.2746-6.0421 3.3269-15.395 4.8761-22.425 8.2e-4 -4.3e-4 2e-3 4.2e-4 3e-3 0 1.9024-1.3523 3.32-3.3764 4.0152-5.7284l5.2061-4.5043s1.6698-1.307 1.4938-2.4999c-0.17597-1.1928-1.6673-1.6863-1.6673-1.6863 0.4913-0.93043 0.63323-2.0304 0.40152-3.0731-0.4669-1.5077-2.3615-0.88014-2.3615-0.88014s0.92161-2.8219 0-3.7573c-0.92159-0.93517-3.0556-0.62129-3.0556-0.62129-0.0279-0.476-0.17301-0.93427-0.41513-1.3313-0.24391-0.39705-0.57778-0.72043-0.96977-0.93193-0.45025-0.29229-0.89501-0.41395-1.3441-0.40678z" />
  <path fill="#313131" d="m411.6 164.57c0.0313-0.86909-0.16376-1.7298-0.56272-2.4838-0.39895-0.75377-0.98606-1.3703-1.6934-1.7785-0.70558-0.40841-1.5035-0.59208-2.3014-0.53016-0.79966 0.0621-1.5645 0.36732-2.2108 0.88063-0.64635 0.51332-1.1464 1.2143-1.4425 2.0222-0.29617 0.80773-0.37632 1.6901-0.23345 2.5457 0.1446 0.85546 0.50698 1.6498 1.047 2.2916 0.54009 0.64168 1.2352 1.1052 2.007 1.3371l-0.0435 1.2786 1.1585 0.95428-1.2213 0.73484-0.0522 1.6128 1.1585 0.95428-1.2195 0.73485-0.0522 1.3837 0.71081 0.58204-0.7474 0.44855v0.80168l0.87806 1.0878 1.7561-1.1355 0.33451-9.5431c0.78398-0.32567 1.4617-0.89635 1.9478-1.6403 0.48607-0.74392 0.75785-1.6274 0.78224-2.5395zm-4.1342-3.55c0.1603 6e-3 0.31709 0.0468 0.46343 0.11911 0.14634 0.0723 0.277 0.17532 0.38676 0.30294 0.10801 0.12762 0.19338 0.27739 0.24914 0.44079 0.0575 0.16341 0.0818 0.33723 0.0767 0.51142-6e-3 0.17419-0.0435 0.34536-0.11151 0.50364-0.0679 0.1583-0.16201 0.30069-0.28048 0.41902-0.11673 0.11815-0.2561 0.21018-0.40594 0.27038-0.14983 0.0604-0.3101 0.0879-0.47039 0.0811-0.16027-8e-3 -0.31881-0.048-0.46342-0.12118-0.14633-0.073-0.277-0.17646-0.38675-0.30446-0.10803-0.12819-0.19339-0.27814-0.2474-0.44173-0.0557-0.1636-0.0818-0.33741-0.075-0.51161 0.0139-0.35029 0.15331-0.68031 0.39025-0.91813 0.23694-0.23781 0.55228-0.3641 0.87458-0.35123z" />
  <path fill="#eb996e" d="m383.2 209.96c-0.40071-1.5526-0.48085-3.181-0.23695-4.7714 0.30141-1.7041 0.8711-3.3381 1.6864-4.8301 1.047-1.8177 2.2213-3.5464 3.5122-5.1709 1.2962-1.6492 2.4704-3.4082 3.5122-5.258 0.82754-1.5242 1.5383-3.1202 2.1237-4.7718 0.39199-1.113 0.71952-2.2507 0.98433-3.4068 0.11847-0.41901 0.19164-0.85109 0.21951-1.2883-0.16551 0.398-0.29965 0.80964-0.40419 1.2309-0.23693 0.79221-0.58884 1.9086-1.1237 3.3211-0.62195 1.6119-1.3537 3.1711-2.1864 4.6669-1.0558 1.812-2.23 3.5407-3.5122 5.171-1.3032 1.6473-2.4791 3.4101-3.5122 5.2675-0.82579 1.5469-1.3816 3.2453-1.6429 5.01-0.16726 1.1948-0.12021 2.4141 0.14111 3.5899 0.0732 0.32567 0.17073 0.64377 0.28921 0.95429 0.0801 0.18935 0.1324 0.29538 0.14983 0.28591z" />
  <path fill="#eb996e" d="m408.84 150.22c-0.13537 0.0198-0.43962 0.49777-0.36068 1.1723 0.0732 0.61304 0.42628 0.98152 0.59208 1.0281-0.49876 0.72417-0.92294 1.5046-1.2624 2.3298-0.23758-0.46557-0.59106-0.85143-1.0242-1.1131-0.89548-0.55346-1.3424-0.96322-1.4121-0.90604-0.0696 0.0573 0.39387 0.59106 1.2284 1.2019 0.45645 0.33154 0.80061 0.81734 0.97656 1.3831 3e-3 0.0293 2e-3 0.0594 3e-3 0.0887-0.0404 0.17999-0.0613 0.36481-0.0613 0.55102v4e-3c-0.0328 0.11837-0.0784 0.23177-0.13606 0.34022-0.1568 0.29821-0.39474 0.53588-0.68394 0.67676-0.59932 0.36126-1.2838 0.522-1.9668 0.46596-0.56273-0.047-1.1066-0.24062-1.5822-0.56952-0.42859-0.35065-0.82676-0.74076-1.1944-1.1649-0.0435 0.01 0.14931 0.74504 0.96637 1.4608 0.51395 0.41447 1.1199 0.67041 1.7558 0.74331 0.77876 0.0937 1.5663-0.079 2.2492-0.49554 0.2789-0.17984 0.51981-0.41716 0.71456-0.69525 0.0203 0.0636 0.0426 0.12688 0.0681 0.18861 0.16028 0.33911 0.43624 0.59777 0.769 0.71743 0.32927 0.11456 0.68133 0.11456 1.0106 0 5e-3 -3e-3 0.0105-9e-3 0.0174-0.0111-6e-3 0.0123-0.0105 0.0238-0.0174 0.037-0.0906 0.22532-0.12299 0.47318-0.0986 0.71744 0.0261 0.24444 0.10574 0.47794 0.23818 0.67675 0.20906 0.27681 0.48448 0.48816 0.79284 0.61389 0.30837 0.12571 0.6389 0.16281 0.96295 0.10356 0.75785-0.17041 1.4694-0.53033 2.0756-1.0503 1.1254-0.78841 2.2062-1.6498 3.2394-2.5776 0.7805-0.73483 1.1501-1.3165 1.1501-1.3165-0.47213 0.29612-0.91764 0.64247-1.327 1.0318-0.81708 0.65853-1.982 1.4865-3.2904 2.4408-0.55052 0.47468-1.1885 0.81644-1.8715 1.0022-0.25959 0.0642-0.53159 0.0579-0.78943-0.0222-0.2561-0.0801-0.48898-0.2317-0.67714-0.43637-0.11499-0.1528-0.19297-0.32963-0.23478-0.52143-0.04-0.19181-0.0418-0.39231 0-0.58431 0.0245-0.0977 0.0506-0.17082 0.0783-0.23298 0.46831-0.26116 0.89063-0.61105 1.2454-1.0355 0.41289-0.41995 0.7982-0.85237 1.1501-1.2721 0.63765-0.73522 1.2227-1.5166 1.7558-2.3446 0.43728-0.52561 0.6935-1.2003 0.72136-1.9082-0.0261-0.5152-0.24838-0.70633-0.24838-0.70633 0.0279 0.22436 0.0376 0.45048 0.0272 0.67674-0.10627 0.64168-0.38482 1.2324-0.80643 1.6974-0.44774 0.668-1.0466 1.4336-1.7592 2.2448-0.35016 0.40083-0.7338 0.80987-1.1467 1.2204-0.37108 0.4387-0.82197 0.7915-1.3202 1.0392-0.21952 0.10562-0.46593 0.11802-0.69415 0.037-0.22997-0.0811-0.42082-0.25079-0.54103-0.47705-0.0873-0.20559-0.13433-0.42597-0.14635-0.65087 0.0444-0.18218 0.0626-0.37315 0.0511-0.56211 0.0244-0.10367 0.0537-0.20528 0.0953-0.30325 0.32927-0.91092 0.75368-1.7772 1.2624-2.585 0.50872-0.73445 0.97691-1.5029 1.3985-2.3002-0.61222 0.59463-1.154 1.2677-1.6163 2.0044-0.0288-0.18728-0.16829-0.53648-0.22117-0.94672-0.0696-0.55345 0.0381-1.0089-0.0681-1.0946-0.0105-9e-3 -0.0235-0.0131-0.0374-0.0112zm-3.8416 7.7327c-0.1392 0.0121-0.46032 0.56054-1.1365 0.84686-0.71953 0.30541-1.403 0.13306-1.4291 0.1997-0.0261 0.0669 0.11394 0.22054 0.40493 0.32544 0.38676 0.14106 0.80419 0.14106 1.191 0 0.37283-0.16265 0.68275-0.4587 0.87789-0.83947 0.15852-0.28629 0.16794-0.52514 0.11567-0.52514-6e-3 -4e-3 -0.0139-9e-3 -0.0239-8e-3zm14.519 0.84686c-1.7666 0.59132-3.4881 1.3388-5.1449 2.2337-0.6028 0.36941-1.2684 0.59912-1.9566 0.67675-0.25785 0.0298-0.52029-0.0209-0.75199-0.14793-0.23172-0.12686-0.42564-0.32639-0.55804-0.56951-0.0696-0.15735-0.091-0.33453-0.0613-0.50664 0.0313-0.17193 0.10958-0.32932 0.22798-0.44747 0.19337-0.21964 0.35196-0.19906 0.36068-0.21819 8e-3 -0.0189-0.17523-0.11625-0.46617 0.0555-0.16725 0.1083-0.30105 0.27425-0.37769 0.46965-0.0522 0.13273-0.0782 0.27362-0.0782 0.41789 0 0.14428 0.026 0.28885 0.0782 0.42158 0.14286 0.3289 0.37266 0.60451 0.66011 0.79139 0.28746 0.1867 0.62167 0.27705 0.95616 0.25887 0.75612-0.0517 1.4902-0.2872 2.1505-0.68784 1.7213-0.76324 3.3827-1.6821 4.9611-2.7477zm-4.267 2.5739c-0.12823 0.0108-0.43021 0.14843-0.81665 0.45857-0.277 0.231-0.52567 0.49971-0.74518 0.79509-0.15332 0.19787-0.25281 0.4385-0.28242 0.69524-0.0139 0.16 0.0139 0.32263 0.0817 0.46596 0.0662 0.14334 0.17057 0.26061 0.29603 0.34393 0.40071 0.21641 0.84364 0.32769 1.2896 0.31804 0.34843 0.0108 0.69809-0.0281 1.0378-0.11466 0.59757-0.15261 0.8779-0.39379 0.8779-0.45117-0.0261-0.0667-0.36155 0.039-0.90511 0.0961-0.31881 0.0337-0.63908 0.0337-0.95617 0-0.36759-0.0159-0.72889-0.11073-1.0616-0.27735-0.27353-0.16227-0.2021-0.48391 0-0.79879 0.18291-0.28306 0.38775-0.55103 0.61249-0.79509 0.38676-0.42943 0.68691-0.66765 0.6329-0.72483-0.0105-0.0108-0.0317-0.0136-0.0614-0.0112z" />
  <path fill="var(--ground-700)" d="m83.635 271.84c-0.29195-2e-3 -0.58605 0.01-0.8813 0.0369-4.7239 0.43928-8.7268 4.9522-10.184 9.9812-1.4575 5.029-0.95932 10.498-0.09868 15.661 1.2117 7.2708 3.2419 14.705 7.9045 20.107 4.6624 5.4019 10.535 11.403 16.523 7.8622h-0.04423c8.3504-13.894 8.0336-34.2-1.9497-46.759-2.906-3.6585-6.8904-6.8649-11.27-6.8896zm51.112 39.614c-3.0701-0.079-6.2298 1.3673-8.864 3.2432-11.265 8.0736-18.05 25.088-14.046 39.126l-0.0374-0.0189c4.2762 4.5423 12.628 1.2309 17.782-2.1375 5.1539-3.3684 8.5709-9.1651 11.205-15.033 1.8955-4.1996 3.5468-8.6921 3.4231-13.358-0.12195-4.6673-2.5196-9.5715-6.4447-11.194-0.98128-0.40567-1.9948-0.60233-3.0182-0.62867zm-1.0548 41.959c-2.212 0.0444-4.4899 0.88-6.4821 2.0007-10.256 5.8033-16.228 19.393-13.927 31.711 3.2751 4.3038 9.5015 2.4819 14.155 0.0962 4.6534-2.3857 7.9989-6.9737 10.722-11.745 1.9495-3.4082 3.7045-7.0531 3.9675-11.043 0.26307-3.9895-1.3861-8.387-4.6004-10.133-1.2054-0.65537-2.5076-0.91414-3.8349-0.88754zm-51.35 12.348c-0.45578-1.9e-4 -0.9136 0.0617-1.3713 0.19229-2.441 0.69679-4.0822 3.4047-4.3895 6.1425-0.19356 2.7777 0.23746 5.5649 1.2556 8.121 1.2293 3.6183 2.8974 7.2556 5.7335 9.5448 2.8363 2.291 6.8142 4.5036 9.5888 2.0894h-0.03403c1.5037-4.0387 1.7989-8.4897 0.84387-12.721-0.95524-4.2299-3.113-8.0252-6.1657-10.85-1.5623-1.3877-3.4863-2.5176-5.4613-2.5184z" />
  <path fill="var(--ground-800)" d="m82.332 288.65c0.02943 0.089 0.06918 0.17382 0.1157 0.25518 0.09652 0.18934 0.21138 0.43702 0.36069 0.72483l1.4223 2.7773c0.30732 0.60212 0.67448 1.2602 1.0344 2.0044l1.1161 2.4444 1.2896 2.8069c0.43032 1.0016 0.87972 2.076 1.31 3.2026 0.43014 1.1266 0.94678 2.31 1.4121 3.5502 0.46534 1.2402 0.87906 2.5682 1.3883 3.9126l0.72818 2.0636c0.21951 0.71572 0.44891 1.4287 0.67714 2.1634 0.44791 1.4598 0.87698 2.9687 1.3951 4.5043 1.7561 6.2313 3.4521 13.161 4.8659 20.528 1.4136 7.3673 2.3343 14.469 3.0454 20.939 0.71133 6.4698 1.0613 12.338 1.1841 17.27 0.11411 2.4633 0.14291 4.6887 0.14291 6.6825v7.0116c-0.026 0.21974-0.0567 0.43833-0.0817 0.65825-0.30732 3.2075-0.64776 6.253-0.71796 9.1158-0.0439 1.4314-0.15123 2.8146-0.15994 4.1419-9e-3 1.3273 0 2.6046 0 3.8164 0 2.4331 0.1587 4.6366 0.2552 6.5642 0.0615 0.95429 0.0965 1.9083 0.16673 2.6922 0.0702 0.78199 0.17611 1.5648 0.2552 2.2522 0.14913 1.3084 0.27288 2.3471 0.36069 3.1101 0.0439 0.32565 0.086 0.58284 0.11228 0.80247 0.0146 0.0985 0.0439 0.19386 0.0817 0.28475 0.0113-0.0947 0.0113-0.19008 0-0.28475 0-0.21963-2e-3 -0.48421-0.0545-0.80987-0.0357-0.44394-0.0987-1.1844-0.15312-1.8158 0.0178-0.10356 0.0337-0.20875 0.0408-0.31432 0.0704-0.50554 0.16681-1.1554 0.27222-1.9563 0.0526-0.42981 0.11353-0.90715 0.18374-1.4127 0.0702-0.50555 0.184-1.0752 0.28923-1.6678 0.2108-1.2023 0.42949-2.5707 0.78943-4.0494 0.1669-0.75358 0.34159-1.5323 0.51721-2.3446 0.17561-0.81038 0.44873-1.6327 0.67713-2.4999 0.43014-1.7363 1.0703-3.5404 1.6673-5.4584 2.7995-8.261 6.6423-16.061 11.416-23.172 1.1415-1.6037 2.169-3.1766 3.2666-4.5228 0.53555-0.69678 1.0532-1.3549 1.5448-2.0044l1.5823-1.764c0.93955-1.1455 1.861-2.0991 2.6337-2.9474l1.1127-1.1945 0.98678-0.95412 1.3509-1.3276c0.16203-0.14578 0.31501-0.31015 0.44915-0.48813-0.18815 0.10982-0.36207 0.24593-0.52061 0.40309l-1.4223 1.2388-1.0174 0.90974-1.1501 1.1612c-0.82528 0.82933-1.7559 1.7679-2.7392 2.866l-1.5448 1.7455c-0.50053 0.63997-1.0278 1.3043-1.572 1.9822-1.124 1.3462-2.1703 2.9209-3.338 4.5228-2.3974 3.5748-4.5798 7.3145-6.5332 11.194-1.9019 3.9137-3.5603 7.959-4.9679 12.111-0.58834 1.9086-1.2139 3.7529-1.6265 5.5176-0.2284 0.86909-0.43911 1.7061-0.64992 2.5184-0.2108 0.81038-0.33197 1.6113-0.48998 2.3668-0.33381 1.4977-0.52667 2.8614-0.71117 4.0827-0.0878 0.60022-0.17628 1.1676-0.2552 1.6826-0.0791 0.51501-0.0888 0.95402-0.1327 1.4312-0.0646 0.73493-0.11147 1.3177-0.15312 1.8121-0.0246-0.29221-0.0386-0.44657-0.0647-0.7729-0.0613-0.67785-0.13204-1.4306-0.21097-2.241-0.0791-0.81228-0.0697-1.7322-0.12249-2.6959-0.0615-1.9086-0.23712-4.122-0.16673-6.5456v-3.8165c0-1.3273 0.12225-2.6977 0.18375-4.1197 0.0878-2.8629 0.446-5.879 0.7622-9.0752 1.6342-13.835 5.3057-27.295 10.872-39.862 1.3434-2.8629 2.5555-5.612 3.9165-8.0545 0.66742-1.2307 1.2538-2.4515 1.9123-3.5687l1.8987-3.2062c1.1678-2.079 2.4046-3.8184 3.4231-5.3918 0.52684-0.78198 0.99102-1.5175 1.4564-2.1745l1.2998-1.7677 1.7592-2.463 0.45597-0.64717c0.0967-0.142 0.14822-0.21981 0.13951-0.22928-8e-3 -0.01-0.0695 0.0561-0.18375 0.18859l-0.49339 0.61389-1.8681 2.3927-1.2998 1.7677c-0.47422 0.64944-0.95824 1.3724-1.4938 2.1449-1.045 1.5659-2.3088 3.2929-3.5116 5.3549l-1.9327 3.1952c-0.66743 1.1171-1.2736 2.3416-1.9498 3.5724-1.3786 2.4425-2.6329 5.199-3.9675 8.0618-5.3929 12.021-8.9953 24.892-10.684 38.131 0.0139-0.26176 0.0276-0.48544 0.0408-0.7729 0.0615-1.3349 0.0987-3.0698 0.0987-5.0257 0-1.9559 2.5e-4 -4.2002-0.0613-6.6824-0.0791-4.9418-0.48352-10.809-1.0718-17.307-0.58834-6.5001-1.6328-13.612-3.0114-20.998-1.3786-7.3862-3.1169-14.313-4.9169-20.565l-1.4053-4.5413c-0.22822-0.73467-0.45572-1.4608-0.68394-2.1671l-0.74859-2.0598-1.4223-3.9126c-0.47405-1.2497-0.98421-2.4141-1.4495-3.5502-0.46534-1.1342-0.87665-2.203-1.3509-3.1952-0.47405-0.99215-0.87914-1.9114-1.3271-2.7994-0.44774-0.88613-0.80569-1.6798-1.1569-2.4334-0.35122-0.75358-0.75714-1.384-1.0821-1.9748l-1.5176-2.7181c-0.15802-0.28591-0.29952-0.51537-0.40492-0.69525-0.10523-0.18177-0.15802-0.23876-0.16673-0.22929zm2.8447 85.234c0.24861 0.59075 0.54218 1.1615 0.87789 1.7011 0.61464 1.0584 1.4495 2.6314 2.4329 4.5967 0.98346 1.9654 2.0737 4.3541 3.1713 7.056 1.0976 2.7 2.1332 5.7233 3.0726 9.016 0.93956 3.2908 1.6047 6.4222 2.1403 9.3229 0.53554 2.9007 0.88113 5.5448 1.048 7.7771 0.16673 2.2342 0.33039 4.0275 0.3743 5.2772 5.22e-4 0.63998 0.05094 1.2777 0.14972 1.9082 0.0615-0.63239 0.08199-1.2701 0.06125-1.9082 0-1.2591 0.0012-3.0818-0.20076-5.3142-0.19251-2.6262-0.50569-5.2423-0.93914-7.8363-0.54844-3.1753-1.2551-6.316-2.1165-9.408-0.88834-3.0806-1.934-6.1048-3.1339-9.0566-1.1239-2.7095-2.2475-5.0928-3.2836-7.0412-1.0362-1.9464-1.9225-3.4929-2.6337-4.5154-0.30749-0.5472-0.6499-1.0755-1.0208-1.5754z" />
  <path fill="var(--primary-500)" d="m120.21 416.15h-36.712l4.4429 40.748h27.694z" />
  <path fill="#263238" d="m428.18 456.9c0 0.142-85.321 0.24803-190.54 0.24803s-190.54-0.10605-190.54-0.24803c0-0.14391 85.304-0.24805 190.54-0.24805s190.54 0.0853 190.54 0.24805z" />
</svg>