<svg fill="none" viewBox="0 0 500 500" xmlns="http://www.w3.org/2000/svg">
  <defs>
    <style>
      /* Light Scheme */
      :root {
        --base-100: #FFFFFF;
        --ground-500: #f5f5f5;
        --ground-600: #e0e0e0;
        --ground-700: #dbdbdb;
        --ground-800: #cccccc;
        --primary-500: #d70718;
        --primary-600: #7e000a;
        --color-skin: #e4897b;
      }

      /* Dark Scheme */
      @media (prefers-color-scheme: dark) {
        :root {
          --base-100: #1f2937;
          --ground-500: #c5c5c5;
          --ground-600: #a7a7a7;
          --ground-700: #acacac;
          --ground-800: #e0e0e0;
        }
      }
    </style>
  </defs>

  <path fill="var(--ground-600)" opacity="0.8" d="m520.38 391.01h-547.49v0.2968h547.49z" />
  <path fill="var(--ground-600)" opacity="0.8" d="m453.93 242.41c-13.468-22.236-1.171-46.136-3.2176-70.876-2.0488-24.741-23.729-30.131-19.623-51.05 4.7515-24.314-7.9169-47.642-22.273-47.642-14.354 0-27.012 23.269-22.26 47.607 4.1062 20.954-17.52 26.356-19.623 51.05-2.1009 24.693 10.25 48.675-3.2285 70.876-13.481 22.199-9.9331 51.678-2.3442 66.292 2.0183 3.8772 4.4516 7.4836 7.2499 10.744 5.1425 5.9855 11.367 10.76 18.285 14.025 6.9197 3.2624 14.383 4.9467 21.928 4.9467 7.5454 0 15.008-1.6842 21.928-4.9467 6.9175-3.2648 13.142-8.0395 18.285-14.025 2.7918-3.2624 5.2207-6.8688 7.2391-10.744 7.5997-14.579 11.137-43.973-2.3442-66.257z" />
  <path fill="var(--ground-500)" d="m408.82 259.28c0.89511 0 1.7815 0.1908 2.6071 0.56063 0.82559 0.37217 1.5773 0.91631 2.2095 1.6018 0.63222 0.68547 1.1341 1.5005 1.4774 2.3956 0.34109 0.89511 0.51707 1.8562 0.51707 2.8267v124.34h-13.62v-124.34c0-0.97049 0.17598-1.9316 0.51707-2.8267 0.34327-0.89511 0.84514-1.7101 1.4774-2.3956 0.63223-0.68546 1.3818-1.2296 2.2095-1.6018 0.82558-0.36983 1.712-0.56063 2.6049-0.56063z" />
  <path fill="var(--ground-600)" opacity="0.8" d="m313.92 233.6c-9.5842 0-18.61 2.5722-26.542 7.0943-1.4809-1.0674-3.2611-1.693-5.1726-1.693-3.4221 0-6.4114 1.9947-8.0411 4.9687-1.3054-0.78367-2.7541-1.3442-4.3112-1.6194-7.2651-1.2814-14.115 4.0642-15.297 11.939-0.97842 6.5089 2.221 12.704 7.4598 15.385-3.3428 7.8729-5.2235 16.625-5.2235 25.86 0 30.794 20.733 56.329 47.886 61.12v34.358h18.514l9e-3 -34.367c27.132-4.809 47.844-30.332 47.844-61.111 0-34.207-25.576-61.934-57.124-61.934z" />
  <path fill="var(--ground-500)" d="m381.04 276.95c2.996-13.083-4.356-26.323-16.423-29.574-12.067-3.2483-24.279 4.7229-27.275 17.806-2.9982 13.083 4.3539 26.323 16.42 29.572 12.067 3.2507 24.279-4.7205 27.277-17.803z" />
  <path fill="var(--ground-600)" opacity="0.8" d="m196.27 316.8c-8.8837 1.4345-17.372 4.9467-24.878 10.291-0.0652-9.401-1.6533-18.317-5.727-25.525-6.1962 6.5414-11.224 15.019-15.33 24.137-1.4991-17.085-5.6487-33.706-14.837-44.235-13.763 9.3892-20.859 25.037-24.231 41.611-5.5727-11.175-13.66-20.642-23.51-27.52-8.4203 9.6154-11.114 22.912-10.884 36.542-9.5703-12.086-20.192-21.511-30.55-22.616-2.5515 19.101 2.8798 37.123 9.789 51.37 4.486 9.1395 11.187 16.781 19.382 22.097 8.1948 5.3141 17.572 8.1054 27.122 8.0701h44.992c19.173 0 37.153-11.09 46.144-29.456 5.6835-11.634 8.3992-26.604 2.518-44.767z" />
  <path fill="var(--ground-500)" d="m183.41 70.157c5.551-17.654 1.095-30.226-12.449-30.226-8.5209 0-19.086 4.9507-29.38 13-1.1602-4.5943-4.4342-7.3368-9.7006-7.3368-9.2748 0-22.054 8.5005-32.073 20.491-2.8207-2.9058-6.5551-4.5399-10.446-4.5707-8.8805-0.54625-19.622 4.345-28.962 12.287-0.46798-0.7102-1.0859-1.2887-1.8022-1.6875-0.7163-0.39856-1.51-0.60561-2.3151-0.60396-5.1134-0.30858-12.045 4.6301-15.472 11.017-0.20792 0.39173-0.39411 0.78346-0.59116 1.1872h145.89c0.43669-5.5798-0.47145-10.234-2.694-13.558z" />
  <path fill="var(--ground-500)" d="m183.86 177.35c2.7157-8.6197 0.55836-14.758-6.0789-14.758-4.1714 0-9.3291 2.3744-14.354 6.3515-0.27157-1.1078-0.89728-2.075-1.7663-2.7277-0.86903-0.65273-1.9227-0.94835-2.9743-0.83387-4.5233 0-10.765 4.1552-15.671 10.02-1.3731-1.4228-3.2002-2.2213-5.1012-2.2307-4.3799-0.27325-9.5811 2.1129-14.148 5.9949-0.2216-0.34391-0.5149-0.62658-0.85382-0.82445-0.3411-0.19786-0.71913-0.30622-1.1058-0.31564-2.4963-0.15547-5.8812 2.2566-7.5563 5.3777l-0.29547 0.57005h71.263c0.29765-2.3132-0.18467-4.6664-1.3579-6.6238z" />
  <path fill="var(--ground-500)" d="m348.22 112.12c-0.56271-0.0857-1.1298-0.12932-1.6968-0.13049 0.52577-8.6072-2.5072-14.116-9.001-14.116-4.6754 0-10.424 2.8731-16.271 7.7286 1.6751-16.716-3.6912-27.579-15.845-27.579-9.7897 0-22.195 7.1232-34.449 18.591-1.095-6.5531-4.6863-10.495-10.752-10.495-10.654 0-25.8 12.157-37.942 29.3-1.3839-1.9768-3.159-3.5924-5.1925-4.7285-2.0357-1.1361-4.28-1.7636-6.5677-1.8366-10.139-0.77168-22.743 6.209-33.945 17.582-0.40844-0.95895-1.0559-1.774-1.8728-2.3516-0.81472-0.57758-1.7641-0.89393-2.7375-0.91325-5.551-0.42729-13.14 5.8531-17.639 14.246h202.84c4.7623-12.727 0.97332-23.863-8.925-25.299z" />
  <path fill="var(--ground-500)" d="m246.64 444.62c117.25 0 212.31-6.0161 212.31-13.438 0-7.4223-95.053-13.438-212.31-13.438s-212.31 6.0161-212.31 13.438c0 7.4224 95.052 13.438 212.31 13.438z" />
  <path fill="var(--primary-500)" d="m26.393 115.77 249.62 38.964 33.497 36.649z" />
  <path fill="var(--primary-600)" d="m26.393 115.77 249.62 38.964-11.584 52.996z" />
  <path fill="var(--primary-500)" d="m259.31 54.414 14.487 73.606c0.37803 1.9221 0.0348 3.9279-0.94942 5.577-0.98636 1.6491-2.5332 2.8073-4.3061 3.2203l-129.3 29.917c-1.7728 0.40539-3.6217 0.0334-5.1425-1.0343-1.5208-1.0678-2.5876-2.7447-2.9721-4.6642l-14.498-73.606c-0.37368-1.9235-0.0282-3.9291 0.95811-5.5777 0.98636-1.6487 2.5376-2.8064 4.3082-3.2196l129.3-29.917c1.7728-0.40492 3.6239-0.03133 5.1447 1.0388 1.5208 1.0701 2.5876 2.7501 2.9678 4.6718z" />
  <path fill="var(--primary-600)" d="m256.12 49.594-43.198 57.496c-4.0062 5.3308-9.5703 9.0189-15.773 10.455-6.2028 1.4355-12.671 0.53259-18.337-2.5598l-61.089-33.36c0.98853-1.5391 2.4811-2.613 4.1714-3.0036l129.3-29.917c1.6859-0.38937 3.4479-0.07114 4.9274 0.8904z" />
  <path fill="var(--primary-500)" d="m26.393 115.77 205.89 53.056 32.148 38.904z" />
  <path fill="var(--primary-500)" d="m26.393 115.77 205.89 53.056-40.023 52.295z" />
  <path fill="var(--color-skin)" d="m380.55 132.7-10.905 5.9763 7.9478 18.09c2.6288 6.0309 5.2038 12.088 7.4937 18.095l0.83171 2.2451c0.10863 0.35568 0.17446 0.44906 0.24185 0.7223 0.0652 0.27325 0.14926 0.52359 0.20358 0.85573 0.29981 1.4204 0.51868 2.8598 0.65773 4.3108 0.30633 3.0858 0.48357 6.3711 0.58134 9.6476 0.19901 5.9779 0.26416 12.093 0.33097 18.168l-2.6945 5.461-3.4286 8.1892 8.2363 0.7131 4.15-6.1971s1.4387-3.8644 0.0891-7.2921c1.1989-6.1864 2.0973-12.44 2.6563-18.734 0.32372-3.5498 0.47773-7.1141 0.46252-10.683-4e-3 -1.9339-0.13405-3.868-0.38613-5.7831-0.0543-0.49938-0.1523-1.0919-0.26308-1.6148-0.10863-0.52058-0.294-1.257-0.42435-1.7069l-0.74683-2.5304c-2.0574-6.6839-4.4132-13.058-6.9421-19.35-2.5289-6.2922-5.1895-12.444-8.092-18.582z" />
  <path fill="#263238" d="m342.85 91.669c-0.1195 0.70031-0.56922 1.1872-0.98419 1.092-0.41713-0.09493-0.64526-0.7241-0.5149-1.4126s0.56922-1.1872 0.98636-1.0923c0.41496 0.09493 0.65612 0.72433 0.51273 1.4129z" />
  <path fill="#de5753" d="m342.35 92.856c-1.158 1.9424-2.5528 3.7039-4.1496 5.2357 0.37151 0.43012 0.82559 0.76744 1.3318 0.98862 0.50404 0.22142 1.0472 0.32153 1.5903 0.2935z" />
  <path fill="var(--color-skin)" d="m353.84 79.922c-0.69208 0.0017-1.3864 0.07535-2.0708 0.22083-8.2667 1.6859-11.696 14.02-11.444 21.987 0.20031 6.2398 4.6688 11.051 9.7936 11.539 0.69936 4.338 0.11428 8.5482-5.6182 10.03 0 0-6.3078 6.4732 5.737 6.4732 10.939 0 12.548-6.4732 12.548-6.4732-2.8992-3.0012-3.1801-9.6762-2.6945-15.596 1.9804-3.1956 2.8123-7.4029 4.2518-13.181 0.50404-1.9405 0.53843-3.9879 0.10602-5.9487-0.43452-1.9605-1.3241-3.7673-2.5842-5.2494-1.2601-1.4823-2.8504-2.5891-4.6168-3.2159-1.1053-0.39176-2.254-0.58713-3.4074-0.58429z" />
  <path fill="#263238" d="m364.44 127.72c0.86686-3.1223 1.8185-6.6957-0.15208-7.8235-2.19-1.1872-14.094-2.4931-18.2-0.17807-4.1062 2.315-2.933 8.6665-2.933 8.6665z" />
  <path fill="var(--color-skin)" d="m343.82 403.15 0.79775 20.197h8.0496l-0.80199-20.197zm45.06 0 4.0354 20.197h8.0496l-4.0482-20.197z" />
  <path fill="#263238" d="m344.67 422.34c-0.69957 0.0236-1.3804 0.2614-1.9604 0.69011-5.4423 3.6322-10.58 3.7858-16.876 5.2816-1.3796 0.39337-0.44614 3.9566 2.8388 3.9566 5.464 0 9.4936-0.28523 14.147-0.28523 3.9867 0 8.5653 0.20093 11.729 0.26224 0.17598 2e-3 0.34844-0.0372 0.50921-0.11966 0.1586-0.0801 0.30286-0.20116 0.41584-0.34963 0.1108-0.1484 0.1901-0.3246 0.22914-0.51069 0.0413-0.18609 0.0435-0.37745 4e-3 -0.5659l-1.587-7.7521c-0.0348-0.1696-0.12014-0.32174-0.24611-0.43245-0.12601-0.10836-0.28478-0.17243-0.44555-0.17479zm47.674 0c-0.48449 0-0.95273 0.1941-1.3112 0.54748-1.9836 1.9245-4.3166 3.952-10.515 5.4242-1.3796 0.39337-0.9513 3.9566 2.4314 3.9566 3.3827 0 8.421-0.28523 10.863-0.28523 3.9737 0 5.5082 0.20093 8.6607 0.26224 0.17815 2e-3 0.35474-0.0349 0.51769-0.11495 0.16077-0.0801 0.30286-0.20116 0.41583-0.34966 0.11515-0.1484 0.19836-0.32459 0.24188-0.51068 0.0435-0.18844 0.0432-0.37969 9e-3 -0.57049l-1.587-7.7521c-0.0348-0.1696-0.12014-0.32175-0.24611-0.43246-0.12601-0.10836-0.28261-0.17243-0.44555-0.17478z" fill-opacity=".98978" />
  <path fill="var(--color-skin)" d="m260.82 81.656-2.1217 9.1278 3.7384 5.6772-0.0552 0.0644s3.044 5.5437 7.9817 5.6864c4.2186 4.9798 8.5811 9.7452 13.171 14.354 2.4963 2.4338 4.9846 4.8073 7.6677 7.1817 1.347 1.1636 2.7022 2.3365 4.2773 3.4643 0.87555 0.64707 1.7897 1.2273 2.737 1.7345 0.84297 0.39173 1.6988 0.80703 2.5418 1.187 3.2676 1.4249 6.6203 2.614 10.031 3.5609 3.3284 0.97331 6.6784 1.745 9.9634 2.4338 6.6286 1.3566 13.323 2.3195 20.05 2.8846l0.96324-13.094c-6.2397-0.71232-12.702-1.5907-18.955-2.6592-6.1289-0.94811-12.18-2.4178-18.098-4.3936-0.68871-0.26123-1.3491-0.53211-1.9944-0.80512-0.54314-0.23909-1.0659-0.5185-1.5743-0.83273-1.2145-0.74788-2.5433-1.6246-3.836-2.5626-2.6049-1.8875-5.2534-3.8975-7.8714-5.9395l-15.709-12.242 0.0298-0.09201-5.1472-6.5698 9e-3 -0.0092-0.0806-0.08282-0.25461-0.32665-0.0254 0.0322z" />
  <path fill="#636363" d="m318.91 121.93 0.72562 23.077s3.8814 0.0962 8.7964-0.19782c-0.65019 11.293-0.23038 29.045 3.2122 56.699h43.023c0.2127-4.9434-1.7123-23.309-0.78926-45.358 1.7407 4.2817 2.9576 7.3657 2.9576 7.3657l15.514-12.072s-7.6182-23.897-15.161-25.773c-0.30181-0.0748-0.60024-0.12734-0.89534-0.17023-4.4645-0.89146-8.975-1.5038-13.507-1.8035-6.0898-0.38019-12.193-0.38019-18.285 0-0.24507 0.0268-0.48931 0.0674-0.73409 0.0966-0.75513-0.0856-1.5663-0.12539-2.4442-0.10581-7.4998-0.0233-14.987-0.61078-22.413-1.7575z" />
  <path fill="#263238" d="m353.92 66.989c-10.885-0.0068-11.943 7.5695-8.9492 12.537-2.1331-2.3786-3.6238-4.7748-3.6238-4.7525-0.57307 4.0534 2.8838 7.0484 5.7327 8.1018-0.62425 3.5875-0.20965 8.3354 3.1316 10.273 0.14122 7.4796 1.2581 15.842 7.9393 16.719 6.055 0.73611 14.599-14.481 15.331-19.502 0.65669-4.4734-0.70522-5.2462-1.7992-6.1327 0.0956 0.0047 0.19314 0.0082 0.28854 0.01837 0.91466 0.09728 1.7877 0.43878 2.5502 0.99375-0.68254-1.941-1.5666-2.535-2.4145-2.5074 0.73792-2.6182-0.38613-6.0131-0.38613-6.0131-0.19575 1.2084-0.56881 2.3693-1.0948 3.4459-0.0343-3.6161-5.65-5.3792-10.226-7.9592-2.4827-2.1809-0.47102-4.5961-0.47102-4.5961-2.2708-0.4324-4.2653-0.62459-6.0086-0.62569z" />
  <path fill="#263238" d="m374.66 201.46-27.76 0.0459h-15.259s-1.0981 65.203-0.23337 91.807c0.90814 27.664 9.8573 118.24 9.8573 118.24h13.617s0.50385-88.966 1.0948-116.13c0.16273-7.1986 0.48622-16.483 0.87414-26.357 1.512 9.426 2.9733 17.995 4.1882 24.057 5.4749 27.306 26.169 118.43 26.169 118.43h14.729s-13.635-88.887-16.765-116c-3.3936-29.383-10.511-94.093-10.511-94.093z" />
</svg>