<svg fill="none" viewBox="0 0 500 500" xmlns="http://www.w3.org/2000/svg">
  <defs>
    <style>/* Light Scheme */
      :root {
        --base-100: #FFFFFF;
        --ground-500: #f5f5f5;
        --primary-500: #d70718;
        --color-white: #ffffff;
      }

      /* Dark Scheme */
      @media (prefers-color-scheme: dark) {
        :root {
          --base-100: #1f2937;
          --ground-500: #c5c5c5;
        }
      }</style>
  </defs>

  <path fill="var(--ground-500)" d="m386.06 122.3c-41.843-34.198-98.483 0-153.51 71.965-55.031 71.964-81.196 41.679-127.98 73.398-46.78 31.717-59.292 161.65 105.52 149.02 164.82-12.631 285.35-205.1 175.97-294.38z"/>
  <path fill="var(--ground-500)" d="m436.87 466.15c0 0.14842-79.344 0.27775-177.19 0.27775-97.844 0-177.22-0.12933-177.22-0.27775 0-0.15057 79.333-0.27778 177.22-0.27778 97.891 0 177.19 0.13782 177.19 0.27778z"/>
  <path fill="var(--primary-500)" d="m359.56 335.32c-17.654-11.531-21.654-32.936-20.958-52.183 0.11565-3.206-0.263-6.605 1.3716-9.4167 1.6346-2.8095 5.4502-4.7433 8.5245-3.3969 2.5483 1.1217 3.6569 3.8994 5.0852 6.1979 1.9044 3.0597 4.6976 5.5533 8.0552 7.1924 2.1833 1.0687 4.8902 1.709 7.0508 0.59796 2.97-1.5288 3.3123-5.3434 3.2896-8.5494 0-5.9626-0.0386-11.919-0.11334-17.869-0.2063-3.1933 0.14057-6.3994 1.027-9.4888 1.0633-3.0364 3.4279-5.8459 6.6632-6.7026 3.233-0.85452 7.2662 0.90965 7.9985 4.0309 0.12469 1.321 0.1587 2.6484 0.10204 3.9736 0.0907 1.3359 0.75498 2.801 2.0903 3.206 1.3376 0.40711 2.7319-0.52373 3.7612-1.4631 3.5186-3.206 5.9173-7.3854 8.1459-11.51 2.2286-4.1263 4.4096-8.3671 7.6108-11.885 3.199-3.5156 7.6199-6.304 12.569-6.5711 4.947-0.26716 10.1 2.5742 11.334 7.063 1.2356 4.4889-1.5644 9.0732-4.5706 12.718-4.5343 5.4092-9.8803 10.178-15.87 14.16-1.1698 0.59796-2.1039 1.5288-2.6639 2.6611-0.74136 2.1374 1.417 4.2747 3.6683 4.9469 2.5483 0.79091 5.3142 0.54495 7.9985 0.84391 2.6866 0.30111 5.5432 1.391 6.5589 3.7404 1.3943 3.2718-1.5303 6.692-4.3983 8.9354-5.7586 4.4889-12.299 8.0193-19.334 10.441-2.5143 0.85451-5.1532 1.6136-7.1869 3.259-2.0336 1.6454-3.2443 4.5207-2.0223 6.7768 1.222 2.254 4.3643 2.9707 7.0032 2.5105 2.6412-0.46013 4.9832-1.7854 7.4975-2.6717 4.6953-1.656 10.751-1.3571 13.712 2.4363 0.91593 1.3062 1.4963 2.7947 1.6958 4.3468 0.19724 1.5521 9e-3 3.1255-0.5532 4.5991-1.1449 2.9283-2.9042 5.6148-5.1759 7.8964-7.4839 8.3629-17.208 14.718-28.178 18.414-10.889 3.5262-20.978 4.4889-31.799 0.78031" opacity=".8"/>
  <path fill="#1a1a1a" d="m428.15 224.12c-0.15189 0.0785-0.29358 0.17154-0.42508 0.27747l-1.0627 0.80342c-0.91592 0.7167-2.2629 1.7848-3.9542 3.2054-4.7701 4.0266-9.1911 8.403-13.222 13.083-2.5346 2.9495-5.2198 6.3221-7.997 9.9352-2.775 3.6132-5.7233 7.4828-8.648 11.757-3.0357 4.3254-5.8183 8.8029-8.338 13.41 5e-3 -0.37904-0.0204-0.75709-0.0929-1.1306-0.11565-1.0157-0.26608-2.2904-0.43838-3.7852-0.35369-3.3248-0.80881-7.5971-1.3461-12.47-0.53505-4.8727-1.1781-9.2306-1.8288-12.437-0.31966-1.5924-0.60298-2.8557-0.85461-3.7314-0.0839-0.46012-0.23014-0.90935-0.42509-1.3377 2e-3 0.4686 0.07 0.93775 0.19475 1.3915 0.16097 0.88633 0.38794 2.1579 0.65091 3.7397 0.50105 3.1742 1.1055 7.5746 1.6428 12.437 0.53732 4.8642 1.0446 9.2554 1.5365 12.461 0.23805 1.6242 0.44071 2.8782 0.62435 3.7645 0.0522 0.40862 0.14692 0.80965 0.27896 1.201-0.0318 0.0583-0.0657 0.11556-0.0974 0.17388-1.3354 2.4575-2.5091 5.0351-3.7107 7.6326l-3.631 7.9266c-4.6748 10.049-8.7339 20.341-12.151 30.824-2.7546 8.5898-4.6225 17.408-5.5838 26.331-0.628 6.0198-0.66604 12.078-0.11516 18.102 0.2063 2.1374 0.42031 3.8265 0.62435 4.8951 0.0929 0.53435 0.1646 0.95357 0.22128 1.2632 0.0204 0.14631 0.0519 0.28662 0.10183 0.42656v-0.43898c-0.0476-0.30959-0.0914-0.73708-0.15939-1.2714-0.16096-1.1111-0.33443-2.7454-0.51807-4.8827-0.45115-6.0134-0.34102-12.052 0.32323-18.048 1.027-8.8866 2.9372-17.666 5.7122-26.219 0.10971-0.33296 0.23435-0.66134 0.34538-0.99394 0.0721-0.0169 0.14192-0.0329 0.21244-0.0539l1.7269-0.41414c1.4986-0.38591 3.6552-0.96371 6.3055-1.7228 5.3142-1.4949 12.641-3.7407 20.639-6.2618 7.9985-2.5233 15.288-4.8079 20.568-6.4109l6.2524-1.8926 1.6871-0.53426c0.20404-0.0509 0.40315-0.12616 0.58451-0.22365-0.20857 0.0191-0.41815 0.0567-0.61993 0.11599l-1.7225 0.41831c-1.5077 0.38378-3.6572 0.96167-6.3188 1.7187-5.3119 1.497-12.627 3.7427-20.626 6.266-7.9985 2.5212-15.29 4.8079-20.568 6.4109l-6.248 1.8926-1.6915 0.53423c-0.0478 0.0127-0.0951 0.0269-0.14171 0.0414 3.3661-10.067 7.2943-19.963 11.796-29.636l3.5424-7.9598c1.2016-2.6081 2.3646-5.1608 3.6886-7.6078 0.0642-0.11831 0.13467-0.23375 0.19928-0.352 0.44142-0.0757 0.87812-0.18236 1.3018-0.32305 1.0384-0.28837 2.6154-0.7137 4.5697-1.1844 3.9176-0.93084 9.367-2.1409 15.436-3.2096 6.0669-1.0687 11.596-1.8148 15.618-2.2198 2.011-0.21416 3.6352-0.34357 4.7778-0.43899 0.56905-0.0149 1.136-0.0801 1.6915-0.19466-0.58267-0.072-1.1708-0.0878-1.7579-0.0495-1.1426 0.0213-2.7777 0.0832-4.8 0.24433-5.2326 0.43045-10.44 1.1048-15.6 2.0293-6.0896 1.0899-11.539 2.3604-15.436 3.4291-1.9407 0.52375-3.4951 1.0167-4.5697 1.3708-0.39396 0.10894-0.77573 0.24827-1.1513 0.40171 2.4696-4.5164 5.1826-8.9119 8.1432-13.161 2.8793-4.1793 5.7836-8.1125 8.5948-11.757 2.8112-3.645 5.4488-7 7.997-9.9601 3.9902-4.6924 8.3519-9.0983 13.049-13.178 1.655-1.4419 2.9702-2.5315 3.8612-3.28l1.0184-0.84069c0.22672-0.19296 0.33212-0.30232 0.33212-0.30232z"/>
  <path fill="var(--primary-500)" d="m399.97 45.671-5.8833 1.9662-2.5256-7.1922c-4.6409-13.262-19.425-20.305-33.012-15.827-13.585 4.4776-20.819 19.023-16.178 32.285l2.5234 7.1922-5.906 1.9771c-2.2535 0.8172-4.0831 2.4149-5.1079 4.4609-1.027 2.046-1.1698 4.3829-0.40129 6.5251l16.376 46.798c0.34007 1.0604 0.9046 2.0462 1.6596 2.8988 0.75495 0.85241 1.6845 1.5543 2.7364 2.0636 1.0497 0.50932 2.2014 0.81614 3.3803 0.9016 1.1812 0.0857 2.3669-0.0513 3.4892-0.40309l60.984-20.401c2.2808-0.81572 4.1376-2.4276 5.1736-4.4965 1.0384-2.0687 1.1789-4.4333 0.38994-6.5964l-16.385-46.798c-0.34914-1.0574-0.92273-2.0386-1.6845-2.8844-0.76403-0.84583-1.7004-1.5394-2.7569-2.0392-1.0565-0.49956-2.2082-0.79536-3.3894-0.86915-1.1789-0.07401-2.3646 0.07506-3.4824 0.43871zm-46.483 7.4808c-1.2492-3.4484-1.0248-7.2159 0.628-10.513 1.6528-3.297 4.6046-5.8678 8.2388-7.1737 1.7956-0.57442 3.6954-0.80469 5.5885-0.67726 1.8908 0.12744 3.7363 0.61004 5.423 1.419 1.689 0.80872 3.1854 1.9274 4.4006 3.2892 1.2174 1.3615 2.1266 2.9382 2.6775 4.636l2.5143 7.1922-26.956 9.0198zm34.279 41.529 4.1829 11.948c0.0771 0.2396 0.0522 0.49765-0.068 0.7205-0.12243 0.22286-0.33101 0.39356-0.58266 0.47646l-5.8629 1.9556c-0.23352 0.0604-0.48291 0.0341-0.69603-0.0733-0.21085-0.10751-0.3718-0.28816-0.44661-0.50359l-4.2146-11.895c-2.3261-0.11832-4.557-0.89842-6.3956-2.2353-1.8364-1.3369-3.1944-3.167-3.8882-5.2454-0.99529-2.7476-0.81391-5.7482 0.50557-8.3737 1.3172-2.6255 3.6705-4.6721 6.5657-5.7115 1.4306-0.45674 2.9428-0.63973 4.4504-0.53794 1.5077 0.10177 2.9768 0.48621 4.3212 1.1304 1.3444 0.64439 2.537 1.5352 3.505 2.6193 0.96808 1.0844 1.6936 2.3399 2.1334 3.692 0.73456 2.1111 0.79579 4.3771 0.17458 6.52-0.6212 2.1431-1.8976 4.0703-3.6728 5.5453z" opacity=".8"/>
  <path fill="#455a64" d="m339.81 385.13-114.14-0.49193c-6.5906-0.0339-12.9-2.5127-17.536-6.8934-4.6386-4.3786-7.23-10.303-7.2028-16.467l1.2129-267.61c0.0136-3.0542 0.66881-6.076 1.9316-8.8927 1.2628-2.8165 3.1083-5.3729 5.4276-7.5225 2.3193-2.1497 5.0694-3.8509 8.0938-5.0061 3.0221-1.1552 6.2596-1.7417 9.5243-1.7262l114.13 0.49151c6.5906 0.03117 12.9 2.5078 17.539 6.886 4.6409 4.3782 7.2345 10.3 7.2096 16.465l-1.2107 267.6c-0.0135 3.0555-0.67108 6.0771-1.9339 8.8951-1.2605 2.818-3.106 5.3752-5.4253 7.5274-2.3193 2.1501-5.0694 3.8549-8.0915 5.0126-3.0244 1.1556-6.2619 1.7451-9.5266 1.7324z"/>
  <path fill="var(--color-white)" d="m341.08 80.211h-22.121c-0.72323 0.01251-1.4351 0.15797-2.0971 0.4279-0.662 0.26993-1.2605 0.65923-1.7593 1.1454-0.50104 0.48642-0.89552 1.0602-1.1585 1.6887-0.26525 0.62849-0.39221 1.2996-0.37861 1.9745v3.7512c0.0136 0.6745-0.11565 1.345-0.37862 1.9728-0.26525 0.62806-0.65747 1.201-1.1585 1.6866-0.50104 0.48536-1.0996 0.8736-1.7616 1.1425-0.662 0.26866-1.3739 0.41284-2.0948 0.42387l-43.124-0.18173c-1.46-0.03624-2.843-0.61257-3.8474-1.6026-1.0043-0.9898-1.5485-2.3121-1.5122-3.6766v-3.7512c0.0363-1.3626-0.50558-2.6834-1.5077-3.673-1.0021-0.98938-2.3828-1.567-3.8406-1.6062h-7.7809l-19.368-0.08545c-4.6069-0.02566-9.0369 1.6569-12.32 4.6795-3.2828 3.0224-5.151 7.1385-5.1963 11.447l-1.1426 261.21c-0.011 2.1374 0.42849 4.2556 1.2945 6.234 0.8638 1.9783 2.1379 3.7786 3.7454 5.2968 1.6097 1.5182 3.5209 2.7247 5.6294 3.5517 2.1062 0.82695 4.3688 1.2574 6.6541 1.268l113.9 0.49194c2.2876 8e-3 4.5547-0.40287 6.67-1.2108 2.1175-0.80998 4.0423-2.0017 5.6679-3.5071 1.6256-1.5055 2.9156-3.2951 3.7998-5.2671 0.88644-1.972 1.3467-4.0881 1.358-6.2276l1.1426-261.21c0.0272-4.3205-1.782-8.4744-5.0286-11.549-3.2443-3.0742-7.663-4.8167-12.283-4.8451z"/>
  <path fill="#e0e0e0" d="m344.11 187.97c0.22898-0.0218 0.45571-0.0723 0.67336-0.1497 0.31513-0.11556 0.59173-0.31234 0.7935-0.56763 0.20177-0.25509 0.32193-0.55851 0.34914-0.87509v-7.3633-5.3434-1.4854c0.0748-0.48746-0.0386-0.98365-0.31967-1.4001-0.1587-0.19952-0.36275-0.36238-0.59853-0.4754-0.23578-0.11328-0.49651-0.17344-0.76176-0.17641h-18.294l-95.572-0.33121c-0.24259-4e-3 -0.48517 0.0476-0.70508 0.1497-0.21765 0.10243-0.40809 0.25254-0.55093 0.43808-0.27658 0.41793-0.38087 0.91495-0.29699 1.3999v3.206 6.4121 3.206c-0.0476 0.49765-0.0476 0.99849 0 1.4962 0.0613 0.21331 0.17231 0.41115 0.32648 0.57781 0.15417 0.16665 0.34687 0.29812 0.56451 0.384 0.22446 0.0837 0.46705 0.12384 0.70963 0.11747h5.8152l25.379 0.12828 42.963 0.24576 28.967 0.21374 7.8716 0.0857h2.045 0.6983-39.582l-42.963-0.12828-25.379-0.0963h-5.8152c-0.32194 0.012-0.63934-0.0389-0.93861-0.14949-0.29926-0.12023-0.56679-0.30301-0.78216-0.53456-0.21312-0.23134-0.36728-0.5055-0.45116-0.80129-0.0657-0.28053-0.0885-0.56849-0.068-0.85496v-0.7909-3.206-6.4121-3.206c-0.0227-0.28456-0.0227-0.57039 0-0.85495 0.0431-0.31445 0.17231-0.61279 0.37635-0.86555 0.19722-0.25805 0.45796-0.46755 0.76175-0.61088 0.30154-0.14334 0.63708-0.21607 0.97489-0.21204l95.572 0.49151 16.512 0.10688h1.782c0.31285 2.2e-4 0.62346 0.0712 0.90233 0.20717 0.27659 0.1357 0.5169 0.33226 0.69601 0.57293 0.32421 0.46479 0.45343 1.0233 0.36728 1.571v1.4856 5.3434c0 3.206-0.0816 5.664-0.1043 7.3739-0.0272 0.32867-0.15415 0.64313-0.36727 0.90627s-0.50104 0.46415-0.83205 0.57909c-0.21537 0.1253-0.46477 0.1921-0.71868 0.19252z"/>
  <path fill="var(--primary-500)" d="m290.17 176.4h-53.75v4.7128h53.75z" opacity=".8"/>
  <path fill="#e0e0e0" d="m343.36 233.98c0.23125-0.0276 0.46023-0.0679 0.68469-0.11874 0.31966-0.0953 0.61439-0.25233 0.86151-0.46226 0.24938-0.20991 0.44663-0.46859 0.57813-0.75486 0.18137-0.43255 0.25165-0.89691 0.20631-1.3592v-1.6878-4.2747-6.7853c0.0543-0.49194-0.0611-0.98599-0.33101-1.4122-0.28113-0.43468-0.72549-0.75698-1.2447-0.90753-0.56906-0.0954-1.1494-0.12299-1.7253-0.0848h-16.444l-95.239-0.33291c-0.51239 2e-3 -1.0066 0.17811-1.392 0.49405-0.38541 0.31594-0.63253 0.75274-0.70056 1.2277v3.206 6.4121 3.2061c-0.0408 0.49829-0.018 1.0008 0.0703 1.497 0.14056 0.43256 0.43529 0.80787 0.83204 1.0687 0.42396 0.2502 0.9182 0.36894 1.417 0.34139h4.8925l25.286 0.11661 42.815 0.24597 28.863 0.21416 7.8489 0.0848h2.7319-39.444l-42.838-0.0423-25.288-0.0848h-4.9696c-0.61894 0.0339-1.2311-0.12086-1.748-0.43891-0.51918-0.33716-0.90006-0.83119-1.0746-1.3995-0.10204-0.54284-0.13376-1.0963-0.0907-1.6454v-3.206-6.4121-3.206c0.0839-0.61068 0.40129-1.1726 0.89553-1.5797 0.49423-0.40712 1.1313-0.63188 1.7888-0.63399l95.241 0.49193 16.441 0.11873c0.61213-0.0361 1.2265 4e-3 1.8296 0.11663 0.59172 0.18235 1.0928 0.56191 1.4056 1.0687 0.29472 0.47072 0.42169 1.0178 0.36502 1.5606v1.4864 5.3434 4.2747 1.6984c0.0408 0.47709-0.0408 0.95842-0.24034 1.3995-0.14736 0.29473-0.36275 0.55766-0.63027 0.76758-0.26525 0.20992-0.57585 0.36472-0.91139 0.45164-0.25165 0.0191-0.50104-2e-3 -0.74363-0.0636z"/>
  <path fill="#e0e0e0" d="m343.13 281.98c0.23125-0.0254 0.46023-0.0636 0.68694-0.11662 0.31741-0.0953 0.60987-0.2502 0.857-0.46012 0.24937-0.20779 0.44663-0.46225 0.58265-0.7485 0.1791-0.43045 0.24939-0.8948 0.20405-1.3571v-1.6984-4.2747-6.7853c0.0543-0.49194-0.0611-0.986-0.33101-1.4122-0.28793-0.42619-0.73002-0.74425-1.2447-0.89692-0.56907-0.0997-1.1494-0.13146-1.7253-0.0955h-16.444l-95.239-0.33289c-0.51238 2e-3 -1.0066 0.17598-1.392 0.49404-0.38315 0.31595-0.63253 0.75274-0.69828 1.2277v3.206 6.4121 3.206c-0.0431 0.49618-0.0204 0.99447 0.068 1.4843 0.13603 0.43679 0.43077 0.81423 0.83432 1.0687 0.41942 0.25657 0.91593 0.37743 1.417 0.3435h4.9696l25.288 0.12723 42.813 0.24596 28.863 0.21416 7.8512 0.0848h2.045 0.68697-0.68697-38.759l-42.813-0.11663-25.288-0.0975h-4.9696c-0.61894 0.0403-1.2334-0.1145-1.748-0.43679-0.52146-0.33716-0.90006-0.83121-1.0746-1.4016-0.10204-0.54282-0.13376-1.0941-0.0929-1.6454v-3.206-6.4121-3.2591c0.0816-0.61066 0.39901-1.1726 0.89099-1.5797 0.49198-0.40712 1.1268-0.63188 1.7842-0.63188l95.239 0.49193 16.444 0.11662c0.61213-0.0339 1.2265 4e-3 1.8273 0.11874 0.59399 0.18024 1.095 0.56191 1.4056 1.0687 0.29472 0.47073 0.42395 1.0157 0.365 1.5585v1.4864 5.3434 4.2747 1.6984c0.0453 0.47921-0.0386 0.95842-0.23804 1.4016-0.14965 0.29474-0.36502 0.55555-0.63027 0.76547-0.26525 0.20991-0.57813 0.36471-0.91367 0.45165-0.26753 0.0869-0.55319 0.11237-0.83432 0.0743z"/>
  <path fill="var(--primary-500)" d="m289.97 222.42h-53.75v4.7137h53.75z" opacity=".8"/>
  <path fill="var(--primary-500)" d="m238.65 270.9c-0.40047 0.0169-0.79037 0.13274-1.1336 0.3313-0.39223 0.22899-0.70618 0.55611-0.89889 0.94839-0.19271 0.39226-0.254 0.82865-0.18592 1.2548 0.0702 0.4262 0.2739 0.82497 0.5845 1.143 0.30833 0.32019 0.7091 0.54621 1.1557 0.65435 0.44664 0.10815 0.91529 0.0925 1.3506-0.0495 0.4353-0.13995 0.82146-0.3958 1.1026-0.73718s0.44865-0.75611 0.48266-1.1844c0.0272-0.59583-0.19589-1.1783-0.62435-1.6193-0.4285-0.44316-1.0235-0.7095-1.6606-0.74129-0.0576-1e-3 -0.1154-2e-3 -0.17275 0zm7.386 0.0374c-0.3242 0-0.64403 0.0613-0.93875 0.18214-0.29701 0.12086-0.56157 0.29715-0.78376 0.51768-0.21992 0.22051-0.38712 0.48616-0.49593 0.7703-0.10656 0.28412-0.151 0.58516-0.12833 0.88625-0.0227 0.3011 0.0227 0.60416 0.12833 0.8904 0.10885 0.28415 0.27601 0.54151 0.49593 0.76203 0.22219 0.22052 0.48675 0.39682 0.78376 0.51767 0.29472 0.12087 0.61455 0.18215 0.93875 0.18215 0.32192 0 0.64175-0.0613 0.93874-0.18215 0.29474-0.12085 0.56385-0.29715 0.78376-0.51767s0.38939-0.47788 0.49594-0.76203c0.10886-0.28624 0.15099-0.5893 0.12833-0.8904 0.0227-0.30109-0.0204-0.60213-0.12833-0.88625-0.10655-0.28414-0.27603-0.54979-0.49594-0.7703-0.21991-0.22053-0.48902-0.39682-0.78376-0.51768-0.29699-0.12086-0.61682-0.18214-0.93874-0.18214zm7.355 0.0248c-0.46022-0.0105-0.91406 0.10452-1.3063 0.3313-0.39222 0.22901-0.70174 0.56238-0.89445 0.95253-0.19271 0.39228-0.25842 0.82662-0.19045 1.2507 0.0702 0.42622 0.2739 0.827 0.58449 1.1472 0.30833 0.31804 0.7091 0.54417 1.1557 0.65019 0.44663 0.10815 0.91525 0.0944 1.3506-0.0456 0.43528-0.13995 0.82145-0.39993 1.1026-0.74131 0.28113-0.34139 0.44866-0.74985 0.48265-1.1803 0.0249-0.59582-0.20041-1.1782-0.62879-1.6193-0.42623-0.44105-1.0213-0.70941-1.6561-0.74546zm7.2797 0.0331c-0.46249-0.0105-0.91847 0.10222-1.3107 0.33131-0.38995 0.22688-0.69733 0.55822-0.89004 0.94837-0.19271 0.39227-0.26068 0.82866-0.19044 1.2549 0.0702 0.42619 0.27173 0.82284 0.58006 1.143 0.31058 0.31806 0.71351 0.54834 1.1601 0.65436 0.44663 0.10814 0.91301 0.0904 1.3506-0.0495 0.43529-0.13996 0.81919-0.39581 1.1026-0.73719 0.28111-0.34139 0.44865-0.75399 0.48265-1.1844 0.025-0.59583-0.20245-1.172-0.62879-1.6151-0.4285-0.44105-1.0213-0.70941-1.6561-0.74545zm7.1026 0.0331c-0.40091 0.0169-0.7904 0.13104-1.1336 0.33131-0.38995 0.229-0.70178 0.56026-0.89449 0.95252-0.19044 0.39228-0.25625 0.82865-0.18589 1.2548 0.0702 0.42621 0.27391 0.82285 0.58451 1.143 0.31059 0.31805 0.71349 0.54417 1.1601 0.65019 0.44663 0.10815 0.9197 0.0925 1.355-0.0496 0.43529-0.14206 0.81486-0.40194 1.0937-0.74545 0.28112-0.34139 0.4465-0.75399 0.47822-1.1844 0.0227-0.59371-0.20018-1.1721-0.62877-1.611-0.42622-0.43891-1.0236-0.70526-1.6561-0.74131-0.0576-1e-3 -0.1154-2e-3 -0.17275 0zm7.4081 0.029c-0.45797 0-0.90758 0.1249-1.293 0.36032-0.38315 0.23536-0.68866 0.56852-0.87231 0.9608-0.18364 0.39439-0.24093 0.83289-0.16391 1.2548 0.077 0.42408 0.28492 0.81264 0.59778 1.1265 0.31286 0.31381 0.71794 0.54011 1.1646 0.64191 0.44663 0.10169 0.9131 0.078 1.3461-0.0661 0.43302-0.14419 0.8127-0.40407 1.0893-0.74545 0.27659-0.34139 0.4399-0.75199 0.46937-1.1803 0.0227-0.6022-0.20654-1.1865-0.64648-1.6276-0.43983-0.44105-1.0476-0.70143-1.6915-0.72475zm7.1513 0.0331c-0.28092 0.0127-0.5593 0.0766-0.81919 0.18215-0.29473 0.12086-0.56385 0.29716-0.78376 0.51766-0.21991 0.22053-0.38937 0.47789-0.49593 0.76201-0.10885 0.28627-0.151 0.58932-0.12832 0.89041-0.0227 0.30109 0.0204 0.60213 0.12832 0.88627 0.10655 0.28413 0.27602 0.54976 0.49593 0.77029 0.21991 0.22052 0.48903 0.39681 0.78376 0.51768 0.29699 0.12086 0.61682 0.18214 0.93875 0.18214 0.32419 0 0.64402-0.0613 0.93876-0.18214 0.29699-0.12087 0.56157-0.29716 0.78375-0.51768 0.2199-0.22053 0.38711-0.48616 0.49593-0.77029 0.10655-0.28414 0.151-0.58518 0.12833-0.88627 0.0227-0.30109-0.0227-0.60414-0.12833-0.89041-0.10885-0.28412-0.27603-0.54148-0.49593-0.76201-0.22218-0.2205-0.48676-0.3968-0.78375-0.51766-0.29474-0.12086-0.61457-0.18215-0.93876-0.18215-0.0402 0-0.0794-2e-3 -0.11952 0zm7.4037 0.0331c-0.45796-2e-3 -0.90759 0.12297-1.293 0.35615-0.38315 0.23536-0.68426 0.57268-0.8679 0.96496-0.18364 0.3944-0.2409 0.82662-0.16391 1.2507 0.077 0.42195 0.28491 0.81468 0.59777 1.1306 0.31288 0.31382 0.71795 0.53599 1.1646 0.63777 0.44663 0.1017 0.9131 0.0821 1.3461-0.0621 0.43303-0.14207 0.81043-0.40196 1.0893-0.74545 0.27658-0.34138 0.43989-0.75199 0.46936-1.1803 0.0227-0.60219-0.21107-1.1887-0.65092-1.6276-0.43983-0.44105-1.0476-0.70356-1.6915-0.72476zm7.1646 0.0331c-0.40199 0.0169-0.79038 0.13273-1.1336 0.33131-0.39222 0.229-0.70618 0.56023-0.89889 0.95252-0.19044 0.39226-0.25624 0.82863-0.1859 1.2548 0.0702 0.4262 0.27389 0.82499 0.5845 1.143 0.31059 0.32018 0.71794 0.54832 1.1646 0.65434 0.44664 0.10598 0.91526 0.0842 1.3505-0.0579 0.4353-0.14207 0.81931-0.3978 1.0982-0.74131 0.28112-0.34351 0.44649-0.75402 0.47822-1.1845 0.0227-0.59371-0.20472-1.1721-0.6332-1.611-0.42623-0.43893-1.0191-0.70526-1.6517-0.74131-0.0578-1e-3 -0.11517-2e-3 -0.17276 0z"/>
  <path fill="var(--primary-500)" d="m289.02 119.23c0.79349-0.32697 1.4668-0.86492 1.9361-1.547 0.46931-0.68213 0.71417-1.4783 0.70283-2.2896 0.0295-0.52713-0.0567-1.0547-0.25166-1.55-0.19498-0.49534-0.49651-0.94825-0.88419-1.3314-0.38996-0.38294-0.85698-0.68806-1.3762-0.8965-0.51916-0.20844-1.0769-0.31573-1.6414-0.31573s-1.1245 0.10729-1.6414 0.31573c-0.51918 0.20844-0.98622 0.51356-1.3762 0.8965-0.38769 0.38316-0.68923 0.83607-0.8842 1.3314-0.19497 0.49532-0.28113 1.0229-0.25165 1.55-0.018 0.81933 0.22445 1.6251 0.69602 2.3155 0.47156 0.6904 1.1517 1.2347 1.9543 1.564-6.3979 0.89756-6.1123 7.3951-6.1123 7.3951l15.129 0.0643s0.35368-6.6152-5.9989-7.5022z" opacity=".8"/>
  <path fill="var(--primary-500)" d="m313.57 130.83h-53.922v6.0274h53.922z" opacity=".8"/>
  <path fill="var(--primary-500)" d="m170.99 461.02v-9.1368l-17.518-0.11661-0.14736 13.817 1.086 0.0763c4.8313 0.28837 24.59 0.71457 27.834-0.22476 3.6116-1.0475-11.254-4.4147-11.254-4.4147z" opacity=".8"/>
  <path fill="#1a1a1a" d="m170.03 460.02c-0.57132 0.0105-1.0381 0.14758-1.0494 0.29819-0.011 0.14844 0.45545 0.27979 1.0494 0.26919 0.594-0.0105 1.0539-0.14334 1.0539-0.30233-0.0227-0.15055-0.48253-0.27565-1.0539-0.26505zm1.1602 1.0975c-0.17706 2e-3 -0.45951 0.0926-0.75721 0.19465-0.43529 0.15056-0.78872 0.37439-0.76605 0.48041 0.0227 0.10815 0.46871 0.17176 0.96975 0 0.50331-0.16964 0.8011-0.49399 0.72179-0.62121-0.0283-0.0405-0.0878-0.0552-0.16824-0.0539zm1.2886 0.0621c-0.19566 0.0252-0.54733 0.24515-0.82365 0.64606-0.35367 0.51314-0.50387 0.99425-0.35424 1.0685 0.14737 0.0763 0.48788-0.30037 0.83248-0.73716 0.34234-0.43892 0.58499-0.8465 0.46936-0.95253-0.0247-0.023-0.0692-0.0319-0.124-0.0248zm-17.942 0.15329c-0.628 0.0445-0.95945 0.26559-0.92545 0.3313 0.0339 0.0636 0.37485 2e-3 0.91217 0.0663 0.69375 0.10169 1.351 0.36722 1.8996 0.77856 0.55773 0.43045 1.0719 0.91131 1.5321 1.4329 0.17842 0.19318 0.32841 0.33636 0.44722 0.43486-3.0242 0.052-5.0214 0.12595-5.0214 0.20716 0 0.14842 6.5612 0.27748 14.639 0.27748 8.0779 0 14.635-0.12914 14.635-0.27748 0-0.15054-6.5568-0.28161-14.635-0.28161-3.6143 0-6.8151 0.0282-9.3697 0.0705-0.0488-0.14313-0.15847-0.37164-0.31883-0.6585-0.38994-0.63188-0.90461-1.1943-1.5099-1.6566-0.64614-0.48557-1.4551-0.73957-2.2849-0.72473zm19.01 0.15733c-0.17683 0.0171-0.56392 0.34121-0.86346 0.83657-0.3446 0.56615-0.42221 1.1637-0.26126 1.1637 0.14736 0.0552 0.46411-0.41685 0.78377-0.91939 0.31967-0.50253 0.52764-0.98366 0.40294-1.0685-0.0159-0.0105-0.0367-0.0149-0.0619-0.0127z"/>
  <path fill="var(--primary-500)" d="m214.13 461.02v-9.1368l-17.518-0.11661-0.14736 13.679 1.086 0.0743c4.8313 0.28838 24.601 0.85452 27.834-0.0848 3.6116-1.0475-11.254-4.4147-11.254-4.4147z" opacity=".8"/>
  <path fill="#1a1a1a" d="m213.19 460.02c-0.57132 0.0105-1.0248 0.14758-1.0362 0.29819-0.0109 0.14844 0.44217 0.27979 1.0362 0.26919 0.594-0.0105 1.0539-0.14334 1.0539-0.30233 0-0.15055-0.48256-0.27565-1.0539-0.26505zm1.138 1.0975c-0.17705 2e-3 -0.4595 0.0926-0.7572 0.19465-0.4353 0.15056-0.78873 0.37439-0.76606 0.48041 0.0227 0.10815 0.46872 0.17176 0.96975 0 0.50331-0.16964 0.80113-0.49399 0.72178-0.62121-0.0284-0.0405-0.0878-0.0552-0.16822-0.0539zm1.2886 0.0621c-0.19566 0.0252-0.54733 0.24515-0.82364 0.64606-0.35365 0.51314-0.49252 0.99425-0.35422 1.0685 0.14736 0.0763 0.48785-0.30037 0.83246-0.73716 0.34233-0.43892 0.58498-0.8465 0.46937-0.95253-0.0248-0.023-0.0692-0.0319-0.12402-0.0248zm-17.942 0.15329c-0.62799 0.0445-0.95944 0.26559-0.92545 0.3313 0.034 0.0636 0.39064 2e-3 0.91662 0.0663 0.69375 0.10169 1.3466 0.36722 1.8952 0.77856 0.55769 0.43045 1.0719 0.91131 1.5321 1.4329 0.19974 0.20971 0.36166 0.3613 0.48266 0.4597-3.0354 0.0513-5.0435 0.12151-5.0435 0.20293 0 0.14842 6.5366 0.27748 14.626 0.27748 8.0915 0 14.639-0.12914 14.639-0.27748 0-0.15054-6.5612-0.27748-14.639-0.27748-3.612 0-6.805 0.0288-9.3564 0.0704-0.0431-0.141-0.16209-0.37908-0.33212-0.68333-0.38768-0.63399-0.90007-1.1964-1.5099-1.6566-0.64614-0.48556-1.4551-0.73956-2.2849-0.72472zm19.023 0.15733c-0.17502 0.0171-0.554 0.34121-0.86347 0.83657-0.35595 0.56615-0.42416 1.1637-0.27453 1.1637 0.15871 0.0552 0.46851-0.41685 0.78817-0.91939 0.31967-0.50253 0.5365-0.98366 0.41181-1.0685-0.0159-0.0105-0.0371-0.0149-0.0619-0.0127z"/>
  <path fill="#ffbe9d" d="m278.67 189.69c-0.45796-0.43807-1.5893-0.22434-1.5893-0.22434 0.11334-0.61534 0.11334-1.2442 0-1.8596-0.20631-0.59838-1.646-0.48091-1.646-0.48091-0.0657-0.50381-0.0657-1.0136 0-1.5176 0.011-0.11156-0.0136-0.2239-0.0726-0.32144-0.059-0.0975-0.14963-0.17557-0.25845-0.2235-0.68015-0.25974-1.4124-0.38358-2.147-0.36322-0.88192-0.58777 2.6843-5.258 4.0106-6.7541 1.324-1.4962 1.0837-2.6611-0.0929-2.6611-0.81164 0-4.9696 4.4885-6.2506 5.9954-1.2787 1.5068-4.6726 5.696-4.786 2.3511-0.11565-3.3452-1.5553-5.8672-2.4576-6.2946-0.90234-0.42747-1.8636 0.57695-1.3716 1.5068 0.43302 1.0564 0.70055 2.1645 0.8003 3.2915 0.1247 0.89777 0.0816 1.8089-0.12469 2.6931-0.38088 1.6454-0.89552 3.2603-1.5439 4.8305h-0.0907s-24.932 22.367-26.739 23.96c-1.6097 1.4313-34.016-1.6984-40.519-2.3409-2.2082-0.30109-4.4391-0.44528-6.6722-0.4262-2.8226 0.11662-3.3259 0.49193-6.1349 0.52373-7.1007 0.0721-14.181 0.65521-21.187 1.7409-3.1695 0.50465-6.1327 1.8129-8.563 3.7849-2.4304 1.972-4.235 4.5292-5.2167 7.3938-6.5476 19.13-21.379 64.409-23.996 89.843-1.977 3.3545-3.7612 6.8044-5.3482 10.335-1.8387 4.6818-1.3929 4.8409-0.77605 4.949 1.6693 0.28837 3.5646-8.1127 4.2743-6.0813 0.70736 2.0292-3.6002 10.013-1.8523 10.248 2.2853 0.29899 4.1036-8.5494 4.3189-9.2555 0.21765-0.70398 1.349-0.47921 1.1426 0.18236-0.331 0.94145-3.5413 10.912-1.3014 11.232 1.2333 0.17175 1.3716-1.9338 1.3716-1.9338s2.2853-9.5439 3.3236-9.351c1.0406 0.19295-0.068 5.8247-0.594 7.7055-0.52598 1.8808 0.20631 2.8308 1.2809 2.3727 0.73003-0.3223 2.478-6.0389 2.9586-7.8985 0.48064-1.8596 1.68-7.01 3.2896-4.0288 1.612 2.9813 4.0582 4.7136 5.0626 4.756 0.22672-0.0255 0.43983-0.11237 0.61441-0.2502 0.17229-0.13994 0.297-0.32442 0.3582-0.5301 0.059-0.20568 0.0522-0.42408-0.0204-0.62552-0.0749-0.20144-0.21084-0.37743-0.39222-0.50678-0.86377-0.7909-1.6074-1.69-2.2059-2.6717-0.53279-0.76548-0.91821-1.6115-1.1426-2.5021-0.46023-1.7727-0.72776-3.5835-0.79804-5.407l-0.18364-1.0687c2.5596-11.851 9.9302-46.636 20.568-68.856l4.3643 8.401 1.8976 6.2191-11.633 26.857 49.614-0.61067-7.4045-26.651 8.9916-27.786c9.7238 0.20142 34.692 0.54493 38.85-1.2192 5.2349-2.1374 32.305-34.113 32.305-34.113 1.7638-1.2807 3.4529-2.6516 5.0603-4.103 0 0 1.646-1.2932 0.65293-2.2551z"/>
  <path fill="var(--primary-500)" d="m148.42 266.58c1.4396-4.597 8.8328-27.317 8.8328-27.317s3.632 18.522 2.673 20.754c-0.88419 1.9126-1.9271 3.7552-3.1196 5.5152-8.3862 11.936-7.2912 17.911-7.2912 17.911l50.678-1.444c0.11335-6.6262-4.0786-22.035-4.9469-24.493-0.87059-2.4597 2.0223-10.507 2.0223-10.507s5.7132-5.4388 5.5069-8.2399c-0.10885-2.5148-0.44208-5.0169-0.99528-7.4808l30.851 1.0687-0.97033-19.556-44.312-4.1454c-1.5439 4.0712-15.494 2.0716-15.494 2.0716-15.061 0.47074-15.997 3.0576-22.259 7.6101-6.2619 4.5525-16.625 43.623-16.625 43.623z" opacity=".8"/>
  <path fill="#263238" d="m193.67 209.77c-0.32874-4e-3 -0.65459 0.0354-0.96974 0.11599-1.1834 0.33078-2.2068 1.0376-2.8915 2.0003-0.9726 1.427-1.5176 3.0747-1.5675 4.7667-0.14509 2.0504 0.2045 4.105 1.0184 6.0133 0.73456 1.7366 1.853 3.3094 3.2768 4.6177s3.1267 2.3245 4.9948 2.9818c1.12 0.40288 2.2945 0.66822 3.4893 0.78273 0.43076 0.0679 0.86667 0.0679 1.2974 0-1.587-0.23749-3.1398-0.63516-4.6362-1.1886-1.5938-0.62975-3.0587-1.5128-4.3306-2.6091-1.553-1.338-2.7605-2.9884-3.5336-4.8289-1.655-3.8994-1.2187-8.078 0.33653-10.366 0.60987-0.91814 1.5266-1.625 2.6125-2.0003 0.76631-0.28838 1.2443-0.28577 1.2443-0.28577zm35.331 2.4973c-0.30379 3.2739-0.40951 6.5596-0.31883 9.8441-0.10419 3.2866-0.0136 6.5743 0.27453 9.8524 0.30834-3.276 0.41406-6.5658 0.31883-9.8524 0.10204-3.2824 0.011-6.5702-0.27453-9.8441zm-30.111 27.681c-0.35367 0.74426-0.60745 1.526-0.76162 2.3275-0.4353 1.6688-0.96132 3.593-1.51 5.6986-0.54866 2.1056-1.0392 4.0278-1.4746 5.6944-0.25391 0.77817-0.41475 1.5816-0.47822 2.3937 0.38994-0.73154 0.68599-1.5033 0.89004-2.2985 0.50104-1.3889 1.0601-3.437 1.6428-5.6613 0.58267-2.2222 1.0403-4.2557 1.3373-5.74 0.21312-0.79092 0.33157-1.6002 0.35424-2.4144zm-17.044 17.974c-0.98168 0.0975-1.9526 0.26363-2.9048 0.50112-1.714 0.34138-4.1384 0.77365-6.859 1.0726-2.7183 0.29899-5.1853 0.41288-6.9786 0.46798-0.97035-0.0213-1.9391 0.0244-2.9004 0.13676 0.9522 0.19932 1.9255 0.28645 2.9004 0.25676 4.7134 0.0933 9.4156-0.4272 13.975-1.5489 0.95673-0.18658 1.8879-0.48339 2.7675-0.88625zm-48.359 1.9879c2.4894 0.92449 5.0488 1.6743 7.6561 2.2446 2.5528 0.74851 5.1587 1.3163 7.8022 1.698-2.4871-0.92449-5.0488-1.6722-7.6561-2.2405-2.5551-0.74427-5.1587-1.3141-7.8022-1.7021zm26.816 0.34373c0.83431 0.30535 1.7061 0.51107 2.5948 0.61709 1.6119 0.29898 3.8734 0.6323 6.3764 0.86555 2.5007 0.23536 4.7766 0.34373 6.4339 0.34373 0.89099 0.0615 1.7839 0.0169 2.6612-0.12829-0.87056-0.1675-1.7614-0.25858-2.6524-0.26918-1.6346-0.10597-3.8959-0.26574-6.3852-0.50111-2.4916-0.23536-4.7421-0.50077-6.3631-0.69161-0.87965-0.15691-1.7724-0.23607-2.6657-0.23607z"/>
  <path fill="#ffbe9d" d="m187.05 209.84c0.12469-2.3833 0.38768-5.0762 0.38768-5.0762s6.3072-0.65095 6.6858-6.7429c0.37635-6.0919 0-20.145 0-20.145l-11.426-5.4717-12.685 9.3296 1.9543 30.458 11.633 0.69337c0.88872 0.0234 1.7502-0.28413 2.3986-0.85451 0.64613-0.5704 1.0248-1.3592 1.052-2.1904z"/>
  <path fill="#263238" d="m198.04 174.59c-0.87965-2.8-4.0673-4.1893-6.9692-4.9586-4.4232-1.1756-9.1978-1.6887-13.517-0.20313-4.3212 1.4856-9.5084 4.093-9.5084 8.5494-2.5483-0.19232-4.0106 1.8916-5.015 4.4779-0.64387 1.5755-1.0293 3.2328-1.1426 4.9159-0.31967 5.8349-2.0699 13.893-6.1145 18.168-2.2853 2.3833-5.4502 4.0288-6.7516 6.9994-1.1426 2.5763-0.54865 5.6318-1.612 8.2399-0.94767 2.2985-3.0403 3.9334-4.5706 5.9308-1.5598 2.2667-2.478 4.8684-2.6684 7.5592-0.18819 2.6887 0.35594 5.3795 1.5825 7.82 1.2379 2.377 2.979 4.4931 5.117 6.2191 2.1402 1.7281 4.6318 3.0301 7.3274 3.8252 5.3369 1.5203 11.027 1.5712 16.396 0.15055 4.0287-0.90118 7.7877-2.6442 10.993-5.0974 3.2783-2.5063 5.5319-5.9944 6.3752-9.8747 0.81164-4.3595-0.49197-8.7954-1.4623-13.134-3.0403-13.713-2.1719-14.427 1.6686-27.156 0.0907-0.22476 0.13603-0.46012 0.20405-0.68276 0.0702-0.22477 0.10419-0.3329 0.14963-0.50254 0.10885-0.50465 0.1655-1.0157 0.1723-1.5288-0.56226 0.19508-1.1698 0.23536-1.7548 0.11875-0.58493-0.11664-1.1222-0.38804-1.5485-0.78159-0.42622-0.41899-0.72548-0.93827-0.86152-1.5027-0.13602-0.56445-0.10655-1.1531 0.0839-1.7033 0.26979-0.60176 0.67108-1.1437 1.1789-1.5911 0.50785-0.44741 1.1109-0.78985 1.7706-1.0057 1.2673-0.49151 2.6276-0.74808 3.8723-1.293 2.639-1.1756 4.4686-3.6121 5.7132-6.1664 1.0248-1.7701 1.3399-3.8237 0.89099-5.7923z"/>
  <path fill="#263238" d="m149.51 283.44 50.678-1.444 22.053 80.516-4.0559 92.354h-26.796l3.2783-90.388-19.595-56.053 3.0153 150.02-27.079 0.3732-2.8453-141.01c-0.12696-3.9206-1.4986-12.761-0.98395-16.649z"/>
  <path fill="#808080" d="m196.04 283.44c9e-3 0.14419 0.0387 0.28459 0.0841 0.42241 0.0794 0.30959 0.16732 0.71871 0.30554 1.2424 0.28567 1.1111 0.6873 2.7041 1.2133 4.7461l4.5698 17.427c3.9426 14.737 9.3708 35.107 15.37 57.549v0.55495c-0.94994 23.286-1.8188 44.385-2.4354 59.69-0.28567 7.608-0.51438 13.815-0.67308 18.09-0.068 2.1055-0.16391 3.7624-0.16391 4.9158v1.2838c-8e-3 0.0817-8.4e-4 0.16559 0 0.24848-2.4753-0.0545-5.995-0.0911-9.9498-0.0911-7.4952 0-13.563 0.13317-13.563 0.28163 0 0.15055 6.0792 0.27746 13.563 0.27746 7.4861 0 13.55-0.12702 13.55-0.27746 0-0.0748-1.3745-0.14165-3.5778-0.19041 9e-3 -0.0824 0.0279-0.16561 0.0265-0.24849 0.0109-0.31169 0.0798-0.7389 0.0798-1.2838 0.0567-1.1535 0.14555-2.7785 0.26125-4.9158 0.20404-4.2959 0.50311-10.463 0.85905-18.081 0.67334-15.305 1.599-36.389 2.617-59.678v-0.70418c-6.0782-22.474-11.566-42.79-15.542-57.516-2.011-7.3217-3.6219-13.259-4.7646-17.386-0.57132-2.0292-1.0156-3.6567-1.324-4.7253-0.1587-0.51314-0.27685-0.9186-0.36753-1.2176-0.0318-0.14206-0.0782-0.28056-0.13738-0.41415zm-30.704 22.989c-0.0283 2e-3 -0.0442 7e-3 -0.0442 0.0169 0.72323 0.34561 1.4935 0.60702 2.2893 0.77029 1.1197 0.29899 2.5615 0.65143 4.1889 0.9898-0.12135 1.3182 0.29026 33.155 0.99632 72.748 0.71868 40.428 1.4265 73.208 1.5852 73.208 0.17231 0-0.28453-32.769-0.99187-73.22-0.6948-39.604-1.402-71.402-1.5719-72.731 0.52554 0.10917 1.0707 0.2152 1.6295 0.31891 2.2966 0.4283 4.3877 0.72691 5.9203 0.89867 0.81618 0.13994 1.6478 0.18553 2.4753 0.13676 0.025-0.15902-3.6523-0.71478-8.2229-1.582-4.2849-0.81103-7.8279-1.5911-8.2539-1.553zm-0.64648 147.84c-7.2572 0-13.151 0.11641-13.151 0.27747 0 0.15903 5.8828 0.27748 13.151 0.27748 7.2662 0 13.16-0.11854 13.16-0.27748 0-0.15054-5.9052-0.27747-13.16-0.27747z"/>
</svg>
