<svg
  version="1.1"
  viewBox="0 0 1024 1024"
  xmlns="http://www.w3.org/2000/svg"
>
  <path
    opacity=".1"
    fill="#66ddb7"
    d="m0.6648 0.6664h1022.7v1022.7h-1022.7z"
  />

  <g
    fill="none"
    stroke="#65dcb7"
  >
    <g stroke-width="1.2">
      <path d="m0.6648 0.6664h1022.7v1022.7h-1022.7z" />
      <path
        d="m51.266 171.11h921.44c4.4182 0 8.0002 3.582 8.0002 8.0002v665.77c0 4.4182-3.582 8.0002-8.0002 8.0002h-921.44c-4.4182 0-8.0003-3.582-8.0003-8.0002v-665.77c0-4.4182 3.582-8.0002 8.0003-8.0002z"
      />
      <path
        d="m179.1 43.278h665.77c4.4182 0 8.0002 3.582 8.0002 8.0003v921.44c0 4.4182-3.582 8.0002-8.0002 8.0002h-665.77c-4.4182 0-8.0002-3.582-8.0002-8.0002v-921.44c0-4.4182 3.582-8.0003 8.0002-8.0003z"
      />
      <path
        d="m115.18 107.19h793.61c4.4182 0 8.0002 3.582 8.0002 8.0002v793.61c0 4.4182-3.582 8.0002-8.0002 8.0002h-793.61c-4.4182 0-8.0002-3.582-8.0002-8.0002v-793.61c0-4.4182 3.582-8.0002 8.0002-8.0002z"
      />
      <path
        d="m512 43.278c258.87 0 468.72 209.85 468.72 468.72s-209.85 468.72-468.72 468.72-468.72-209.85-468.72-468.72 209.85-468.72 468.72-468.72z"
      />
      <path
        d="m512 298.94c117.67 0 213.06 95.388 213.06 213.06s-95.388 213.06-213.06 213.06-213.06-95.388-213.06-213.06 95.388-213.06 213.06-213.06z"
      />
    </g>
    <g
      opacity=".3"
      stroke-width=".5"
    >
      <path d="m1.7833 1022.5 1020.6-1020.8" />
      <path d="m1021.9 1021.9-1020.3-1020.1" />
      <path d="m362.86 0.6664v1022.7" />
      <path d="m512 0.6664v1022.7" />
      <path d="m661.35 0.6664v1022.7" />
      <path d="m1022.6 362.86h-1021.9" />
      <path d="m1022.6 512h-1021.9" />
      <path d="m1022.6 661.14h-1021.9" />
    </g>
  </g>
</svg>
