<svg
  fill="none"
  version="1.1"
  viewBox="0 0 500 500"
  xmlns="http://www.w3.org/2000/svg"
>
  <defs>
    <style>
      /* Light Scheme */
      :root {
        --base-100: #FFFFFF;
        --ground-500: #f5f5f5;
        --ground-600: #e0e0e0;
        --ground-700: #dbdbdb;
        --ground-800: #cccccc;
        --primary-500: #2c3940;
        --primary-600: #1b2328;
      }

      /* Dark Scheme */
      @media (prefers-color-scheme: dark) {
        :root {
          --base-100: #1f2937;
          --ground-500: #c5c5c5;
          --ground-600: #a7a7a7;
          --ground-700: #acacac;
          --ground-800: #e0e0e0;
          --primary-500: #2c3940;
          --primary-600: #1b2328;
        }
      }
    </style>
  </defs>

  <rect
    id="frame"
    width="500"
    height="500"
    fill="var(--base-100)"
  />

  <path
    id="ground-1"
    fill="var(--ground-500)"
    d="m256.5 437.46c109.07 0 197.49-42.011 197.49-93.835s-88.42-93.835-197.49-93.835c-109.07 0-197.49 42.011-197.49 93.835s88.421 93.835 197.49 93.835z"
  />

  <path
    id="ground-2"
    fill="var(--ground-600)"
    d="m270.68 380.79c32.3 0 58.484-12.81 58.484-28.612 0-15.802-26.184-28.612-58.484-28.612-32.3 0-58.484 12.81-58.484 28.612 0 15.802 26.184 28.612 58.484 28.612z"
  />

  <path
    id="cloud"
    fill="var(--ground-500)"
    d="m162.54 51.85c-1.0265-1.83e-4 -2.078 0.096563-3.1524 0.30469-10.7 2.07-16.189 16.76-16.189 16.76 0 0-8.071-11.58-14.541-9.3496s-10.328 14.531-10.328 14.531-6.6714 3.2192-7.6914 6.4492l89.471 0.14062s-5.5e-4 -5.7213-12.311-6.8613c0 0-9.861-21.972-25.258-21.975zm209.84 69.146c-8.64-0.12-12.111 10.141-12.111 10.141s-3.9984-4.6098-7.8184-2.5098-6 8.1191-6 8.1191-4.2201 2.3091-5.8301 4.6191l52 0.08008s-2.5914-3.3691-5.4414-3.7891c0 0-5.5188-16.53-14.799-16.66z"
  />

  <path
    id="leaf"
    fill="var(--ground-700)"
    d="m286.37 145.39c-0.68723 2e-3 -1.3737 0.0689-2.0528 0.19744-4.2273 1.0446-6.854 4.975-8.7488 8.618-5.5873 10.897-8.5091 22.826-8.558 34.918 0 5.6348 0.6757 11.529 4.055 16.168 4.3069 5.7715 12.68 3.8689 16.563 0.33639s5.5265-8.632 7.0115-13.496c3.4184-11.133 6.8508-22.813 4.3199-34.146-0.61028-3.4352-2.2178-6.6459-4.651-9.2761-1.2305-1.2936-2.8009-2.2614-4.5536-2.8081-1.0954-0.34281-2.2396-0.5155-3.385-0.51189zm-66.259 18.556c-0.41937-2e-3 -0.84208 4e-3 -1.2621 0.0219-1.6759 0.0899-3.2999 0.56588-4.7367 1.3821-1.4366 0.81434-2.6422 1.9464-3.5058 3.298-2.3059 4.1166-0.0912 9.1056 2.2943 13.185 4.2006 7.1793 8.9948 14.038 14.339 20.512 4.3071 5.2005 9.277 10.336 15.784 12.687 6.4198 2.3198 13.181 2.0766 16.695-2.0293 4.2515-5.1851 5.0174-12.456 3.0111-18.753-2.0805-6.5316-6.7877-12.08-12.208-16.622-6.3747-5.3222-13.79-9.4276-21.837-12.088-2.7288-1.0352-5.6379-1.5758-8.5735-1.5942zm39.607 49.057c-0.15721 0.19175-0.30839 0.38819-0.47522 0.57404l0.62325-0.73492c-0.0464 0.0571-0.10036 0.10521-0.14803 0.16081zm43.234 18.282c-5.4648-0.035-10.902 0.91045-15.749 3.2541-2.0656 1.0203-3.85 2.4722-5.2197 4.245-1.37 1.7728-2.286 3.8178-2.6761 5.9781-0.96428 3.117-0.61619 6.4627 0.97772 9.3419 1.7228 2.7613 5.3673 4.5895 8.667 3.6198 3.2997-0.97159 5.158-4.2407 7.9542-6.2194 4.8902-3.4577 11.675-2.4515 17.798-2.3766 2.5428 0.0243 5.2614-0.1966 7.2219-1.7148 3.2728-2.5497 2.7412-7.7625-0.12066-10.724-2.862-2.9597-7.2364-4.1421-11.437-4.7898-2.4437-0.38085-4.9326-0.59836-7.4166-0.61426z"
  />

  <path
    id="trunk"
    fill="var(--ground-800)"
    d="m285.6 168.46c-0.19944 0.36318-0.35081 0.74695-0.45033 1.1438-0.29158 0.88361-0.64977 1.9788-1.0871 3.3341-0.43717 1.3554-0.96788 3.2461-1.5245 5.3222-0.55664 2.078-1.192 4.4667-1.7884 7.1175-3.1836 13.784-5.5771 27.721-7.1696 41.747-1.0907 9.3846-1.8295 18.254-2.2856 26.182-0.17631-2.2521-0.50558-5.1912-1.1077-8.7424-0.86636-4.8448-2.0253-9.6373-3.471-14.357-1.6713-5.8089-3.8111-11.489-6.4008-16.993-4.4339-10.139-10.797-19.437-18.778-27.439-1.3847-1.376-2.8631-2.6639-4.4259-3.8583-0.6759-0.54851-1.3251-1.082-1.8817-1.5051l-1.6436-1.1064c-1.0315-0.73945-2.1268-1.3965-3.2742-1.9656-0.18547 0.23588 4.6254 2.8998 10.695 8.9577 7.7203 8.076 13.914 17.331 18.314 27.366 2.545 5.4664 4.6922 11.09 6.4269 16.83 1.4575 4.6745 2.6651 9.4164 3.6184 14.205 0.79517 4.0923 1.3255 7.4638 1.5375 9.7515 0.0527 0.58782 0.12943 1.1719 0.23035 1.7541-0.24112 4.813-0.37534 9.2366-0.40386 13.112 0 5.4121 5.9e-4 9.8001 0.19943 12.823 0.0479 0.72635 0.0774 1.1981 0.11648 1.7916-0.16434 2.4093-0.24093 4.4105-0.27443 5.8482-0.0975 0.86676-0.0975 1.7429 0 2.6115 0.22955-0.85552 0.36238-1.7316 0.39608-2.6115 0.19865-1.917 0.43797-4.3169 0.74272-7.1662 0.38033-3.5232 0.95152-7.0276 1.711-10.497 0.995-4.2439 2.355-8.4036 4.0662-12.44 1.6791-4.0099 3.9497-7.7783 6.745-11.195 2.286-2.78 5.196-5.0526 8.5232-6.657 2.2616-1.0465 4.6868-1.7522 7.1818-2.0892 0.93935-0.0337 1.8727-0.16286 2.7842-0.38376-0.93935-0.0974-1.8867-0.0974-2.824 0-2.5927 0.18158-5.1296 0.80123-7.4887 1.8271-3.5123 1.5557-6.5921 3.8545-8.9971 6.7169-2.9254 3.4614-5.2835 7.3141-6.9961 11.431-1.71 4.0848-3.0402 8.3025-3.9756 12.603-0.55563 2.7762-0.97366 5.5749-1.2527 8.3867 4e-3 -2.8867 0.0203-6.4585 0.15257-10.95 0.29158-10.798 1.3255-22.39 3.194-38.796 1.8157-15.413 4.2391-33.337 6.8098-44.993 0.54347-2.6508 1.1007-5.0395 1.6308-7.1287 0.5301-2.0892 0.91442-3.907 1.3251-5.3615 0.41084-1.4564 0.63641-2.4861 0.87494-3.3828 0.12963-0.40436 0.20562-0.8237 0.22556-1.2449z"
  />

  <path
    id="pot"
    fill="var(--primary-500)"
    d="m234.39 288.94v15.598h5.2353l3.0734 39.591h54.187l3.0773-39.591h6.4506v-15.598z"
  />

  <path
    id="plate"
    fill="var(--primary-600)"
    d="m234.39 342.61v4.315h3.5977l3.1084 7.14h57.685l3.6298-7.14h2.826v-4.315z"
  />
</svg>
