<svg
  class="h-full w-full"
  version="1.1"
  viewBox="0 0 140 140"
  xmlns="http://www.w3.org/2000/svg"
>
  <path
    d="m118.64 19.908c6.555 6.4106 11.784 14.05 15.387 22.481s5.51 17.49 5.613 26.658c0.102 9.1684-1.602 18.267-5.016 26.777-3.414 8.5093-8.471 16.263-14.881 22.819-12.947 13.239-30.623 20.793-49.139 21-18.516 0.206-36.356-6.951-49.596-19.898-13.239-12.946-20.793-30.622-21-49.138-0.20684-18.516 6.9503-36.356 19.897-49.596 6.4106-6.5554 14.05-11.784 22.481-15.387 8.4312-3.6032 17.49-5.5104 26.658-5.6129 9.1683-0.10241 18.267 1.602 26.777 5.016 8.5091 3.4139 16.263 8.4706 22.819 14.881z"
    fill="#fff"
    opacity=".1"
  />
  <path
    d="m116.44 30.633c10.393 12.364 15.449 28.35 14.055 44.441-1.394 16.091-9.123 30.97-21.486 41.363-12.364 10.393-28.35 15.449-44.442 14.055-16.091-1.393-30.97-9.122-41.363-21.486s-15.449-28.35-14.055-44.442c1.3937-16.091 9.1225-30.97 21.486-41.363 12.364-10.393 28.35-15.449 44.441-14.055 16.091 1.3936 30.97 9.1225 41.363 21.486z"
    fill="#5bcbf5"
  />
  <g fill="#257793">
    <path
      d="m20.82 34.789c-0.7208 0.6497-1.4235 1.3192-2.1074 2.0078-1.6933 2.6449-3.1795 5.4168-4.4453 8.291 3.3373-3.6008 9.3457-4.9562 11.703-4.3887 2.7 0.65 6.7996 1.6101 7.0996-0.1699s1.53-5.1197-6-3.4297-6.25-2.3105-6.25-2.3105zm19.611 8.2441c-2.0213 0.1043-4.7352 0.938-7.7715 1.7168-6.94 1.78-0.1596 5.6101-0.0996 7.0801s-3.2 4.0496-7 4.8496-5.4997-1.6797-4.6797-5.6797 0.2501-6.3009-2.4199-4.2109c-2.195 1.7182-5.6984 7.7591-7.832 9.3906-1.5297 6.5432-1.9659 13.294-1.291 19.98 0.08732 0.0264 0.17456 0.0531 0.26172 0.0801 2.34 0.96 5.2898 4.9598 13.76 6.2598 2.94 0.48 7.1998-1.76 11.51-0.25 4.31 1.51 5.8302 0.6808 7.9102-0.3692s3.0613-4.8099 6.5312-3.4199c3.47 1.39 5.8603 0.9082 5.5703-0.0918s-4.8416-2.76-7.4316-2-3.7002 3.211-6.6602 2.541-2.2294-4.7005-1.3594-6.3105 3.75-3.6103 5-3.3203 2.9695 0.6811 3.6895-0.2089-2.4393-1.4113-4.2793-3.7812c-1.84-2.37-0.6998-10.349 0.1602-17.369 0.4837-3.9487-0.9695-5.0208-3.5684-4.8867z"
    />
    <path
      d="m57.77 68.9s4.64-3.28 8.39-3.28 4.65 0.46 8.54-1.67 6.92-1.52 7.88 3.9 2.05 14.45 1.68 17.77-1.41 6.72 0.21 10.31 2.81 5.55 5.66 5.08c0 0 1.11 3.29-3.89 2.13s-6.36-6.46-7.79-9-5.85-9.9-7.92-10.85-6.21 0.9-9.91-1.64-7.74-10.19-2.85-12.75z"
    />
    <path
      d="m105.79 20.846c-1.07 1.8986-3.679 3.176-6.3497 5.3047-5.12 4.08-10.199 3.65-15.86 6.0001-5.2501 2.22-7.1609 8.1707-6.721 13.481 0.33 3.94 2.0896 12 6.18 13.43 2.0044 0.5716 4.1033 0.7343 6.1719 0.4785 2.9909-0.1006 5.9694-0.4349 8.9082-0.9999 3.3601-0.73 6.8811-2.0487 10.121-0.8887 2.67 1 4.5 3.4104 5.84 5.9004 3.64 6.84 1.92 16.199 10.92 18.539 1.433 0.3742 2.925 0.4703 4.394 0.2833 1.908-9.042 1.733-18.4-0.511-27.364-2.245-8.9643-6.5-17.3-12.443-24.376-3.149-3.6739-6.724-6.9594-10.651-9.7871z"
    />
    <path
      d="m70.734 8.9277c-8.3013-0.0978-16.535 1.5027-24.195 4.7031-0.6369 0.96-1.0409 2.0555-1.1797 3.1992-0.07 2.56 2.44 4.5397 4 6.1797 0.5581 0.5854 1.1637 1.1237 1.8105 1.6094 8.25 6.11 13-3.1389 20-4.6289 4.45-1 9.0008 1.43 13.551 1 4.11-0.3918 6.2135-3.8106 7.0879-7.7969-6.7161-2.6605-13.852-4.1049-21.074-4.2656z"
    />
    <path
      d="m108.53 88.17c1.31 0.3 2.08-2.07 4.54 1.18s1.59 4.76 3.57 5.77 1 3.73 0.51 3.85-2.16 0.74-3.06 1.1-3.37 1.08-4.08-0.07-0.38-2.07-2-3.21-2-0.64-3.28-0.73-1.35-1.43-2.7-0.3-4 3.82-4.24 2.12c-0.2284-1.3328-0.0105-2.7037 0.62-3.9 0.62-1.57-0.56 0.14 0.62-1.57s0.47-1.71 2-2.29 7.5-1.95 7.5-1.95z"
    />
  </g>
  <path
    d="m123.34 40.764c-0.263 11.478-2.967 22.768-7.932 33.12-4.965 10.352-12.078 19.528-20.865 26.917-16.093 13.527-39.17 20.231-58.764 19.477 10.967 7.402 24.046 11.031 37.259 10.338 13.213-0.693 25.841-5.67 35.973-14.178 10.742-9.031 18.035-21.495 20.646-35.284 2.61-13.789 0.379-28.056-6.318-40.39z"
    opacity=".2"
  />
  <path
    d="m48.992 116.1c-1.1495 6e-3 -2.1563 0.395-2.8125 1.242-1.7536 2.263-2.4604 6.161-2.6484 7.399 7.0735 3.338 14.724 5.283 22.533 5.728-0.4801-0.923-1.9797-3.568-3.7344-4.178-2.13-0.74-3.5994 1.421-4.8594 0.371s1.51-1.649-1-5.849c-1.7256-2.888-4.9497-4.727-7.4785-4.713z"
    fill="#257793"
  />
</svg>
