<svg
  class="h-full w-full"
  viewBox="0 0 92 92"
  fill="none"
  xmlns="http://www.w3.org/2000/svg"
>
  <path
    opacity="0.1"
    d="M46.2753 67.0013C57.7235 66.8734 66.9003 57.4892 66.7725 46.041C66.6446 34.5929 57.2603 25.416 45.8122 25.5439C34.3641 25.6718 25.1872 35.056 25.315 46.5041C25.4429 57.9523 34.8272 67.1292 46.2753 67.0013Z"
    fill="white"
  />
  <path
    d="M46.2151 61.6116C54.6866 61.517 61.4774 54.5728 61.3828 46.1012C61.2881 37.6297 54.3439 30.8389 45.8724 30.9335C37.4008 31.0282 30.61 37.9724 30.7047 46.4439C30.7993 54.9155 37.7435 61.7063 46.2151 61.6116Z"
    fill="white"
  />
  <path
    d="M54 40.84C54.0257 43.2446 53.4648 45.6193 52.3656 47.7582C51.2665 49.8971 49.6624 51.7357 47.6924 53.1148C45.7223 54.4938 43.4457 55.3717 41.0597 55.6723C38.6738 55.973 36.2506 55.6873 34 54.84C35.3385 56.721 37.0989 58.2622 39.1403 59.3403C41.1817 60.4183 43.4473 61.0032 45.7554 61.048C48.0635 61.0929 50.3501 60.5964 52.4318 59.5984C54.5135 58.6004 56.3324 57.1286 57.7429 55.301C59.1534 53.4734 60.1161 51.3409 60.554 49.0742C60.9919 46.8076 60.8927 44.4698 60.2644 42.2484C59.6362 40.027 58.4962 37.9836 56.936 36.2821C55.3758 34.5805 53.4387 33.2681 51.28 32.45C53.0241 34.9023 53.9735 37.8308 54 40.84Z"
    fill="#CEDCF0"
  />
  <path
    d="M45.86 31.36C47.4906 31.1942 49.1351 31.4851 50.61 32.2C50.4362 32.7671 50.061 33.2511 49.5551 33.5607C49.0492 33.8703 48.4475 33.9843 47.8634 33.881C47.2794 33.7777 46.7532 33.4643 46.3842 33C46.0152 32.5356 45.8287 31.9523 45.86 31.36ZM39.58 34C40.1484 33.6312 40.8133 33.4389 41.4909 33.4476C42.1684 33.4562 42.8282 33.6653 43.387 34.0486C43.9458 34.4318 44.3786 34.972 44.6308 35.6009C44.8829 36.2298 44.9431 36.9194 44.8038 37.5825C44.6645 38.2456 44.3319 38.8526 43.848 39.3269C43.3641 39.8012 42.7505 40.1215 42.0847 40.2475C41.4189 40.3735 40.7308 40.2994 40.107 40.0347C39.4833 39.7699 38.9519 39.3264 38.58 38.76C38.3319 38.3822 38.1609 37.959 38.0769 37.5149C37.9929 37.0708 37.9974 36.6144 38.0904 36.1721C38.1833 35.7298 38.3627 35.3101 38.6184 34.9374C38.874 34.5646 39.2008 34.246 39.58 34ZM47 35C47.3994 34.7316 47.8696 34.5879 48.3508 34.587C48.832 34.5862 49.3027 34.7282 49.7031 34.9952C50.1035 35.2621 50.4156 35.6419 50.5999 36.0865C50.7842 36.531 50.8323 37.0203 50.7382 37.4922C50.6441 37.9642 50.412 38.3975 50.0713 38.7374C49.7306 39.0773 49.2967 39.3083 48.8245 39.4013C48.3523 39.4942 47.8632 39.4449 47.4191 39.2595C46.975 39.0741 46.5959 38.7611 46.33 38.36C45.9752 37.825 45.8465 37.1714 45.9721 36.5418C46.0976 35.9123 46.4671 35.358 47 35Z"
    fill="#EFEFEF"
  />
</svg>
