<svg
  version="1.1"
  viewBox="0 0 57.83 41.92"
  xmlns="http://www.w3.org/2000/svg"
>
  <path
    fill="#5bcbf5"
    d="m16.31 41.57a7.89 7.89 0 0 0 1.91-1 9.68 9.68 0 0 0-6-17.66 10 10 0 0 0-4.92 1.66 10.1 10.1 0 0 0-1.63 1.43 13.83 13.83 0 1 1 26.81 6.43 13.67 13.67 0 0 1-5.35 7 13.41 13.41 0 0 1-10.82 2.14z"
  />
  <path
    fill="#ffcb39"
    d="m57.81 2.35a0.92 0.92 0 0 0-0.53-0.78 21.75 21.75 0 0 0-20.53 2.33c-4.12 2.8-14.37 11.3-23.86 19.75a3.69 3.69 0 0 0-0.59 4.82l4.05 5.94a3.69 3.69 0 0 0 4.7 1.2c11.33-5.74 23-12.19 27.1-15a21.75 21.75 0 0 0 9.66-18.26z"
  />
  <path
    fill="#ff9600"
    d="m14.33 31.44-2-3a3.69 3.69 0 0 1 0.59-4.82c9.46-8.42 19.71-16.92 23.83-19.72a21.75 21.75 0 0 1 20.53-2.33 0.92 0.92 0 0 1 0.37 0.32z"
  />
  <path
    fill="#5bcbf5"
    d="m44.8 17.34a5.52 5.52 0 1 1 1.45-7.67 5.52 5.52 0 0 1-1.45 7.67z"
  />
  <path
    fill="#5bcbf5"
    d="m57.28 1.57a21.48 21.48 0 0 0-10.82-1.4l8.71 12.77a21.48 21.48 0 0 0 2.64-10.59 0.92 0.92 0 0 0-0.53-0.78z"
  />
  <path
    fill="#007bbd"
    d="m57.66 1.89a0.92 0.92 0 0 0-0.38-0.32 21.48 21.48 0 0 0-10.82-1.4l4.35 6.38z"
  />
  <path
    fill="#c7f4f9"
    d="m44.8 17.34a5.52 5.52 0 0 0 1.45-7.67l-9.12 6.22a5.52 5.52 0 0 0 7.67 1.45z"
  />
  <path
    fill="#5c546a"
    d="m36.37 16.41a6.44 6.44 0 1 1 9 1.69 6.45 6.45 0 0 1-9-1.69zm9.12-6.22a4.6 4.6 0 1 0-1.21 6.39 4.61 4.61 0 0 0 1.21-6.39z"
  />
  <path
    fill="#e87e04"
    d="m11.39 38.49c-4 2.72-11.39 2.73-11.39 2.73s2.33-6.63 6.7-9.61a4.1632 4.1632 0 0 1 4.69 6.88z"
  />
  <path
    fill="#ff9600"
    d="m11.75 36.54c-2.65 1.81-7.56 1.81-7.56 1.81s1.55-4.35 4.45-6.35a2.7667 2.7667 0 0 1 3.12 4.57z"
  />
  <path
    fill="#ffcb39"
    d="m11.72 35.37c-1.61 1.1-4.61 1.1-4.61 1.1a9 9 0 0 1 2.71-3.89 1.6836 1.6836 0 0 1 1.9 2.78z"
  />
</svg>
